<?xml version="1.0" encoding="UTF-8" standalone="no"?>
<!-- Created with Inkscape (http://www.inkscape.org/) -->

<svg
   xmlns:dc="http://purl.org/dc/elements/1.1/"
   xmlns:cc="http://creativecommons.org/ns#"
   xmlns:rdf="http://www.w3.org/1999/02/22-rdf-syntax-ns#"
   xmlns:svg="http://www.w3.org/2000/svg"
   xmlns="http://www.w3.org/2000/svg"
   xmlns:sodipodi="http://sodipodi.sourceforge.net/DTD/sodipodi-0.dtd"
   xmlns:inkscape="http://www.inkscape.org/namespaces/inkscape"
   width="210mm"
   height="297mm"
   viewBox="0 0 744.09448819 1052.3622047"
   id="svg2"
   version="1.1"
   inkscape:version="0.91 r"
   sodipodi:docname="uluru-main2.svg">
  <defs
     id="defs4" />
  <sodipodi:namedview
     id="base"
     pagecolor="#ffffff"
     bordercolor="#666666"
     borderopacity="1.0"
     inkscape:pageopacity="0.0"
     inkscape:pageshadow="2"
     inkscape:zoom="0.25"
     inkscape:cx="1208.4161"
     inkscape:cy="509.19035"
     inkscape:document-units="cm"
     inkscape:current-layer="layer1"
     showgrid="false"
     inkscape:window-width="1920"
     inkscape:window-height="1031"
     inkscape:window-x="0"
     inkscape:window-y="0"
     inkscape:window-maximized="1"
     showguides="true"
     inkscape:guide-bbox="true">
    <sodipodi:guide
       position="-21.428572,957.14288"
       orientation="0,1"
       id="guide5252" />
    <sodipodi:guide
       position="14.142136,653.56871"
       orientation="1,0"
       id="guide5254" />
  </sodipodi:namedview>
  <metadata
     id="metadata7">
    <rdf:RDF>
      <cc:Work
         rdf:about="">
        <dc:format>image/svg+xml</dc:format>
        <dc:type
           rdf:resource="http://purl.org/dc/dcmitype/StillImage" />
        <dc:title />
      </cc:Work>
    </rdf:RDF>
  </metadata>
  <g
     inkscape:label="Layer 1"
     inkscape:groupmode="layer"
     id="layer1">
    <path
       style="fill:#ffffff;stroke:#ff0000;stroke-width:4"
       d="m -1742.8823,1919.0733 0,35 7,0 7,0 6,0 0,-22 2,0 0,22 6,0 7,0 6,-0.8575 0,-22.1425 2,0 0,22 6,0 7,1 6,0 0,-22 2,0 0,22 6,0 7,-1 6,0 0,-22 2,0 0,22 6,0 7,0 6,0 0,-22 2,0 0,22.1425 6,0.8575 7,0 6,0 0,-22 2,0 0,22 6,0 7,0 6,0 0,-22 2,0 0,22 6,0 7,0 6,0 0,-22 2,0 0,22 6,0 7,0 6,0 0,-22 2,0 0,22 6,0 7,0 6,0 0,-22 2,0 0,22 6,0 7,0 6,-0.8575 0,-22.1425 2,0 0,22 6,0 7,0 6,0 0,-22 2,0 0,22 6,0 7,0 6,0 0,-22 2,0 0,22 6,0 7,0 0,-34 -287,0 z"
       id="polyline595"
       inkscape:connector-curvature="0" />
    <path
       style="fill:#ffffff;stroke:#ff0000;stroke-width:4"
       d="m -1455.2255,2002.0001 0,-35 -7,0 -7,0 -6,0 0,22 -2,0 0,-22 -6,0 -7,0 -6,0 0,22 -2,0 0,-22 -6,0 -7,0 -6,0 0,22 -2,0 0,-22 -6,0 -7,0 -6,0 0,22 -2,0 0,-22 -6,0 -7,0 -6,0 0,22 -2,0 0,-22 -6,0 -7,0 -6,0 0,22 -2,0 0,-22.1426 -6,-0.8574 -7,1 -6,0 0,22 -2,0 0,-22 -6,0 -7,-2 -6,-2.5723 0,24.5723 -2,0 0,-25 -6,0 -7,3 -6,0.8574 0,23.1426 -2,0 0,-23 -6,0 -7,0 -6,0 0,23 -2,0 0,-22.8574 -6,0.8574 -7,0 -6,0 0,22 -2,0 0,-22 -6,0 -7,0 -6,0.8574 0,22.1426 -2,0 0,-22 -6,0 -7,0 -6,0 0,22 -2,0 0,-22 -6,0 -7,0 0,34 287,0 z"
       id="polyline597"
       inkscape:connector-curvature="0" />
    <path
       style="fill:#ffffff;stroke:#ff0000;stroke-width:4"
       d="m -1743.2255,2012.6965 0,35 7,0 7,0 6,0 0,-22 2,0 0,22 6,0 7,0 6,0 0,-22 2,0 0,22 6,0 7,0 6,0.8574 0,-22.8574 2,0 0,23 6,0 7,0 6,3.4277 0,-24.4277 2,0 0,26.2852 6,7.7148 7,14 6,-3.4277 0,-34.5723 2,0 0,35 6,6 7,2 6,-10.2852 0,-34.7148 2,0 0,33.1426 6,0.8574 7,9 6,-5.1426 0,-35.8574 2,0 0,34.5723 6,-2.5723 7,-5 6,-2.5723 0,-29.4277 2,0 0,27.8574 6,-6.8574 7,-4 6,-0.8574 0,-23.1426 2,0 0,23 6,0 7,0 6,0 0,-23 2,0 0,23 6,0 7,-1 6,0 0,-22 2,0 0,22 6,0 7,0 6,0 0,-22 2,0 0,22 6,0 7,-1 6,0 0,-22 2,0 0,22 6,0 7,0 0,-34 -287,0 z"
       id="polyline599"
       inkscape:connector-curvature="0" />
    <path
       style="fill:#ffffff;stroke:#ff0000;stroke-width:4"
       d="m -1455.3676,2190.7655 0,-35 -7,0 -7,0 -6,0 0,22 -2,0 0,-22 -6,0 -7,0 -6,-0.8575 0,22.8575 -2,0 0,-23 -6,0 -7,0 -6,-0.8575 0,22.8575 -2,0 0,-23.7149 -6,-4.2851 -7,-20 -6,-18.8575 0,43.8575 -2,0 0,-50.8575 -6,-23.1425 -7,-4 -6,0 0,62 -2,0 0,-61.4278 -6,3.4278 -7,12 -6,-2.5723 0,55.5723 -2,0 0,-57.5723 -6,-9.4277 -7,5 -6,8.5722 0,55.4278 -2,0 0,-52.2852 -6,10.2852 -7,3 -6,4.2851 0,44.7149 -2,0 0,-42.5723 -6,8.5723 -7,4 -6,6 0,34 -2,0 0,-33.1426 -6,-0.8574 -7,-4 -6,6.8574 0,33.1426 -2,0 0,-29.7149 -6,13.7149 -7,2 -6,0 0,23 -2,0 0,-22.8575 -6,0.8575 -7,0 -6,0 0,22 -2,0 0,-22 -6,0 -7,0 -6,0 0,22 -2,0 0,-22 -6,0 -7,0 0,35 287,0 z"
       id="polyline601"
       inkscape:connector-curvature="0" />
    <path
       style="fill:#ffffff;stroke:#ff0000;stroke-width:4"
       d="m -1375.73,1960.8574 0,35 7,0 7,0 6,0 0,-22 2,0 0,22.1426 6,0.8574 7,0 6,0 0,-23 2,0 0,24 6,6 7,13 6,18 0,-40 2,0 0,45.4277 6,14.5723 7,15 6,6 0,-62 2,0 0,64.4277 6,8.5723 7,8 6,0.8574 0,-71.8574 2,0 0,71.5723 6,-2.5723 7,2 6,2.5723 0,-72.5723 2,0 0,73.1426 6,0.8574 7,-4 6,-5.1426 0,-69.8574 2,0 0,68.7148 6,-1.7148 7,-4 6,-6.8574 0,-63.1426 2,0 0,61.1426 6,-5.1426 7,-3 6,-2.5723 0,-56.4277 2,0 0,55 6,-6 7,-11 6,-4.2852 0,-44.7148 2,0 0,41.2852 6,-16.2852 7,-19 6,-4.2852 0,-23.7148 2,0 0,23 6,0 7,-1 6,0 0,-22 2,0 0,22 6,0 7,0 6,0 0,-22 2,0 0,22 6,0 7,0 0,-35 -287,0 z"
       id="polyline603"
       inkscape:connector-curvature="0" />
    <path
       style="fill:#ffffff;stroke:#ff0000;stroke-width:4"
       d="m -1427.0082,2273.9223 36,0 0,-7 0,-7 0,-6 -23,0 0,-2 23.5723,0 3.4277,-6 13,-7 17.1426,-6 -38.1426,0 0,-2 43.7148,0 16.2852,-6 19,-7 13.7148,-6 -65.7148,0 0,-2 68.2852,0 1.7148,-6 1,-7 0,-6 -70,0 0,-2 70.5723,0 3.4277,-6 4,-7 3.4277,-6 -75.4277,0 0,-2 76.4277,0 2.5723,-6 5,-7 0,-6 -80,0 0,-2 80,0 0,-6 0,-7 -2.5723,-6 -78.4277,0 0,-2 77.4277,0 -3.4277,-6 -2,-7 -0.8574,-6 -75.1426,0 0,-2 74.7148,0 -1.7148,-6 -6,-7 -4.2852,-6 -68.7148,0 0,-2 66.7148,0 -7.7148,-6 -11,-7 -8.5723,-6 -54.4277,0 0,-2 51.1426,0 -11.1426,-6 -6,-7 -3.4277,-6 -42.5723,0 0,-2 40.7148,0 -7.7148,-6 1,-7 -2.5723,-6 -36.4277,0 0,-2 34.4277,0 -9.4277,-6 -13,-7 -3.4277,-6 -22.5723,0 0,-2 22,0 0,-6 0,-7 -35,0 0,287 z"
       id="polyline605"
       inkscape:connector-curvature="0" />
    <path
       style="fill:#ffffff;stroke:#ff0000;stroke-width:4"
       d="m -1043.6944,2001.6294 -36,0 0,7 -3,7 -7.7148,6 27.7148,0 0,2 -31.5723,0 -15.4277,6 -17,7 -16.2852,6 53.2852,0 0,2 -58.1426,0 -12.8574,6 4,7 5.1426,6 58.8574,0 0,2 -56.8574,0 6.8574,6 4,7 -1.7148,6 52.7148,0 0,2 -54.5723,0 -9.4277,6 -10,7 -11.1426,6 68.1426,0 0,2 -71.5723,0 -9.4277,6 -6,7 -3.4277,6 80.4277,0 0,2 -81,0 0,6 -3,7 -5.1426,6 84.1426,0 0,2 -85.1426,0 -0.8574,6 2,7 4.2852,6 82.7148,0 0,2 -81.1426,0 5.1426,6 5,7 8.5723,6 73.4277,0 0,2 -71.2852,0 4.2852,6 8,7 5.1426,6 62.8574,0 0,2 -61.8574,0 0.8574,6 -2,7 2.5723,6 61.4277,0 0,2 -59.8574,0 6.8574,6 8,7 4.2852,6 51.7148,0 0,2 -51,0 0,6 11,7 24.8574,6 35.1426,0 0,2 -28.5723,0 14.5723,6 1,7 34,0 0,-287 z"
       id="polyline607"
       inkscape:connector-curvature="0" />
    <path
       style="fill:#ffffff;stroke:#ff0000;stroke-width:4"
       d="m -1070.3661,2354.0584 0,-36 -7,0 -7,-1 -6,-2.5723 0,24.5723 -2,0 0,-27.2852 -6,-13.7148 -7,-17 -6,-0.8574 0,41.8574 -2,0 0,-41.7148 -6,1.7148 -7,8 -6,3.4277 0,35.5723 -2,0 0,-35 -6,0 -7,-11 -6,-10.2852 0,44.2852 -2,0 0,-47.5723 -6,-9.4277 -7,-8 -6,-8.5723 0,59.5723 -2,0 0,-62.1426 -6,-6.8574 -7,-2 -6,-4.2852 0,67.2852 -2,0 0,-69.7148 -6,-10.2852 -7,-11 -6,-9.4277 0,83.4277 -2,0 0,-85.5723 -6,-3.4277 -7,2 -6,2.5723 0,85.4277 -2,0 0,-84.1426 -6,5.1426 -7,3 -6,4.2852 0,78.7148 -2,0 0,-77.1426 -6,5.1426 -7,8 -6,-1.7148 0,71.7148 -2,0 0,-72.5723 -6,-3.4277 -7,4 -6,6.8574 0,69.1426 -2,0 0,-67.1426 -6,5.1426 -7,-1 -6,3.4277 0,63.5723 -2,0 0,-61 -6,12 -7,27 -6,31.7148 0,29.2852 -2,0 0,-23.2852 -6,4.2852 -7,0 0,34 287,0 z"
       id="polyline609"
       inkscape:connector-curvature="0" />
    <path
       style="fill:#ffffff;stroke:#ff0000;stroke-width:4"
       d="m -1744.5376,2204.5939 0,36 7,0 7,0 6,0.8574 0,-22.8574 2,0 0,23 6,0 7,1 6,-0.8574 0,-23.1426 2,0 0,23 6,0 7,1 6,12 0,-29 2,0 0,34.2852 6,19.7148 7,18 6,12.8574 0,-56.8574 2,0 0,60.1426 6,6.8574 7,8 6,3.4277 0,-68.4277 2,0 0,70.4277 6,8.5723 7,6 6,3.4277 0,-78.4277 2,0 0,79.8574 6,5.1426 7,4 6,3.4277 0,-85.4277 2,0 0,86 6,0 7,-2 6,-2.5723 0,-83.4277 2,0 0,83.1426 6,0.8574 7,2 6,-0.8574 0,-84.1426 2,0 0,83.4277 6,-3.4277 7,-1 6,-3.4277 0,-80.5723 2,0 0,79.2852 6,-4.2852 7,-5 6,-5.1426 0,-72.8574 2,0 0,71.2852 6,-4.2852 7,-11 6,-14.5723 0,-57.4277 2,0 0,50.7148 6,-25.7148 7,-33 6,-3.4277 0,-22.5723 2,0 0,22 6,0 7,0 0,-34 -287,0 z"
       id="polyline611"
       inkscape:connector-curvature="0" />
    <path
       style="fill:#ffffff;stroke:#ff0000;stroke-width:4"
       d="m -1346.8088,1546.3328 0,36 7,0 7,0 6,0.8574 0,-22.8574 2,0 0,23 6,0 7,0 6,0 0,-23 2,0 0,23.7148 6,4.2852 7,21 6,18 0,-44 2,0 0,51 6,24 7,25 6,6 0,-76 2,0 0,77.2852 6,1.7148 7,2 6,0.8574 0,-78.8574 2,0 0,79.2852 6,1.7148 7,1 6,1.7148 0,-81.7148 2,0 0,81.7148 6,-1.7148 7,-1 6,-2.5723 0,-79.4277 2,0 0,79 6,0 7,5 6,5.1426 0,-83.1426 2,0 0,84.4277 6,2.5723 7,2 6,-3.4277 0,-85.5723 2,0 0,84.2852 6,-4.2852 7,-3 6,-3.4277 0,-79.5723 2,0 0,78.2852 6,-4.2852 7,-9 6,-8.5723 0,-68.4277 2,0 0,65.5723 6,-8.5723 7,-16 6,-24 0,-44 2,0 0,35.4277 6,-27.4277 7,-3 6,-0.8574 0,-22.1426 2,0 0,22 6,0 7,0 0,-34 -287,0 z"
       id="polyline613"
       inkscape:connector-curvature="0" />
    <path
       style="fill:#ffffff;stroke:#ff0000;stroke-width:4"
       d="m -1341.3868,1717.8243 0,36 7,0 7,0 6,0 0,-23 2,0 0,23.1426 6,0.8574 7,0 6,0 0,-23 2,0 0,24 6,6 7,19 6,14.5723 0,-42.5723 2,0 0,48.8574 6,23.1426 7,22 6,11.1426 0,-74.1426 2,0 0,76.1426 6,0.8574 7,-1 6,0 0,-76 2,0 0,75.8574 6,-0.8574 7,1 6,0 0,-76 2,0 0,75.8574 6,-0.8574 7,3 6,2.5723 0,-77.5723 2,0 0,78.2852 6,1.7148 7,4 6,0.8574 0,-81.8574 2,0 0,82.1426 6,0.8574 7,1 6,0 0,-83 2,0 0,82.5723 6,-2.5723 7,-1 6,-3.4277 0,-79.5723 2,0 0,78.1426 6,-5.1426 7,-9 6,-6 0,-69 2,0 0,66.8574 6,-6.8574 7,-14 6,-29.1426 0,-44.8574 2,0 0,35 6,-30 7,-1 6,0 0,-22 2,0 0,22 6,0 7,0 0,-34 -287,0 z"
       id="polyline615"
       inkscape:connector-curvature="0" />
    <path
       style="fill:#ffffff;stroke:#ff0000;stroke-width:4"
       d="m 62.462401,580.5939 0,36 7,0 6.999999,0 6,0 0,-23 2,0 0,23 6,0 7,1 6,0 0,-23 2,0 0,23 6,0 7,3 6,11.1426 0,-29.1426 2,0 0,33.7148 6,16.2852 7,14 6,11.1426 0,-52.1426 2,0 0,55.2852 6,7.7148 7,2 6,3.4277 0,-61.4277 2,0 0,63.1426 6,6.8574 7,10 6,5.1426 0,-73.1426 2,0 0,74.7148 6,4.2852 7,0 6,3.4277 0,-77.4277 2,0 0,78.2852 6,1.7148 7,1 6,0.8574 0,-79.8574 2,0 0,80.2852 6,1.7148 7,4 6,0.8574 0,-83.8574 2,0 0,83.8574 6,-0.8574 7,-3 6,-4.2852 0,-79.7148 2,0 0,78.2852 6,-4.2852 7,-7 6,-7.7148 0,-70.2852 2,0 0,64.4277 6,-27.4277 7,-49 6,-10.2852 0,-23.7148 2,0 0,21.8574 6,-0.8574 7,0 6,-0.8574 0,-21.1426 2,0 0,21 6,0 7,0 0,-33 -286.999999,0 z"
       id="polyline617"
       inkscape:connector-curvature="0" />
    <path
       style="fill:#ffffff;stroke:#ff0000;stroke-width:4"
       d="m 27.9624,916.0939 36,0 0,-7 0,-7 0,-6 -23,0 0,-2 23,0 0,-6 1,-7 0,-6 -23,0 0,-2 23,0 0,-6 0,-7 2.5723,-6 -24.5723,0 0,-2 25,0 0,-6 10,-7 13.7148,-6 -35.7148,0 0,-2 40.4277,0 14.5723,-6 16,-7 16.2852,-6 -61.2852,0 0,-2 65.2852,0 7.7148,-6 2,-7 6.8574,-6 -71.8574,0 0,-2 73.8574,0 5.1426,-6 1,-7 2.5723,-6 -77.5723,0 0,-2 78.5723,0 3.4277,-6 3,-7 2.5723,-6 -82.5723,0 0,-2 83.4277,0 2.5723,-6 -1,-7 -1.7148,-6 -83.2852,0 0,-2 82.2852,0 -4.2852,-6 -8,-7 -7.7148,-6 -73.2852,0 0,-2 70.4277,0 -9.4277,-6 -25,-7 -41.1426,-6 -36.8574,0 0,-2 28.2852,0 -10.2852,-6 -5,-7 0,-6 -22,0 0,-2 22,0 0,-6 -1,-7 0,-6 -21,0 0,-2 21,0 0,-6 0,-7 -33,0 0,287 z"
       id="polyline619"
       inkscape:connector-curvature="0" />
    <path
       style="fill:#ffffff;stroke:#ff0000;stroke-width:4"
       d="m 412.9624,612.0939 -36,0 0,7 0,7 0,6 23,0 0,2 -23,0 0,6 -1,7 0,6 23,0 0,2 -23,0 0,6 0,7 0,6 23,0 0,2 -23.2852,0 -1.7148,6 -10,7 -14.5723,6 35.5723,0 0,2 -40.2852,0 -13.7148,6 -13,7 -11.1426,6 57.1426,0 0,2 -61,0 -12,6 1,7 -2.5723,6 66.5723,0 0,2 -67.2852,0 -1.7148,6 -6,7 -4.2852,6 72.2852,0 0,2 -73.8574,0 -5.1426,6 -5,7 -6,6 81,0 0,2 -82.4277,0 -2.5723,6 3,7 4.2852,6 80.7148,0 0,2 -79,0 6,6 6,7 10.2852,6 68.7148,0 0,2 -61.1426,0 35.1426,6 29,7 17.1426,6 24.8574,0 0,2 -21.8574,0 0.8574,6 1,7 0,6 21,0 0,2 -21,0 0,6 0,7 0,6 21,0 0,2 -21,0 0,6 0,7 33,0 0,-287 z"
       id="polyline621"
       inkscape:connector-curvature="0" />
    <path
       style="fill:#ffffff;stroke:#ff0000;stroke-width:4"
       d="m 371.4624,918.5939 0,-36 -7,0 -7,0 -6,0 0,23 -2,0 0,-23 -6,0 -7,0 -6,0 0,23 -2,0 0,-23.1426 -6,-0.8574 -7,0 -6,0 0,23 -2,0 0,-23 -6,0 -7,-13 -6,-6 0,32 -2,0 0,-34.4277 -6,-8.5723 -7,-9 -6,-2.5723 0,43.5723 -2,0 0,-45.2852 -6,-7.7148 -7,-15 -6,-12 0,61 -2,0 0,-65 -6,-12 -7,-9 -6,-1.7148 0,75.7148 -2,0 0,-76.8574 -6,-5.1426 -7,-6 -6,1.7148 0,81.2852 -2,0 0,-80.1426 -6,5.1426 -7,9 -6,4.2852 0,71.7148 -2,0 0,-69.7148 -6,7.7148 -7,29 -6,30.8574 0,39.1426 -2,0 0,-31.2852 -6,16.2852 -7,5 -6,0 0,22 -2,0 0,-22 -6,0 -7,1 -6,0 0,21 -2,0 0,-21 -6,0 -7,0 -6,0 0,21 -2,0 0,-21 -6,0 -7,0 0,33 287,0 z"
       id="polyline623"
       inkscape:connector-curvature="0" />
    <path
       style="fill:#ffffff;stroke:#ff0000;stroke-width:4"
       d="m 415.63989,567.00949 0,36 7,0 7,0 6,0 0,-23 2,0 0,23 6,0 7,0 6,0 0,-23 2,0 0,23 6,0 7,0 6,0.8574 0,-22.8574 2,0 0,23 6,0 7,1 6,12 0,-29 2,0 0,33.2852 6,13.7148 7,14 6,11.1426 0,-50.1426 2,0 0,53.5723 6,9.4277 7,10 6,11.1426 0,-67.1426 2,0 0,70.8574 6,11.1426 7,9 6,1.7148 0,-80.7148 2,0 0,80.7148 6,-1.7148 7,-4 6,-2.5723 0,-77.4277 2,0 0,76.2852 6,-4.2852 7,-8 6,-9.4277 0,-66.5723 2,0 0,61.7148 6,-19.7148 7,-34 6,-16.2852 0,-29.7148 2,0 0,25.7148 6,-7.7148 7,-1 6,-0.8574 0,-21.1426 2,0 0,21 6,0 7,0 6,0 0,-21 2,0 0,21.1426 6,0.8574 7,0 6,-0.8574 0,-21.1426 2,0 0,21 6,0 7,0 0,-33 -287,0 z"
       id="polyline625"
       inkscape:connector-curvature="0" />
    <path
       style="fill:#ffffff;stroke:#ff0000;stroke-width:4"
       d="m 422.63989,903.00949 36,0 -1,-7 1,-7 0,-6 -23,0 0,-2 23,0 0,-6 0,-7 0,-6 -23,0 0,-2 23,0 0,-6 0,-7 0,-6 -23,0 0,-2 23,0 0,-6 2,-7 13.7148,-6 -29.7148,0 0,-2 34.5723,0 15.4277,-6 26,-7 14.5723,-6 -59.5723,0 0,-2 63.2852,0 7.7148,-6 7,-7 6,-6 -73,0 0,-2 74.5723,0 3.4277,-6 3,-7 -2.5723,-6 -76.4277,0 0,-2 75.2852,0 -4.2852,-6 -5,-7 -6,-6 -68,0 0,-2 65.7148,0 -7.7148,-6 -10,-7 -23.1426,-6 -47.8574,0 0,-2 40.2852,0 -22.2852,-6 -19,-7 0,-6 -22,0 0,-2 22,0 0,-6 0,-7 -0.8574,-6 -21.1426,0 0,-2 21,0 0,-6 0,-7 0,-6 -21,0 0,-2 21,0 0,-6 0,-7 0,-6 -21,0 0,-2 21,0 0,-6 0,-7 -33,0 0,287 z"
       id="polyline627"
       inkscape:connector-curvature="0" />
    <path
       style="fill:#ffffff;stroke:#ff0000;stroke-width:4"
       d="m 701.63989,614.00949 -35,0 0,7 0,7 0,6 22,0 0,2 -22,0 0,6 -1,7 0,6 23,0 0,2 -23,0 0,6 0,7 0,6 23,0 0,2 -23,0 0,6 -1,7 -10.2852,6 27.2852,0 0,2 -32.1426,0 -18.8574,6 -13,7 -9.4277,6 50.4277,0 0,2 -53.1426,0 -6.8574,6 -8,7 -10.2852,6 64.2852,0 0,2 -66.8574,0 -5.1426,6 0,7 4.2852,6 67.7148,0 0,2 -65.7148,0 7.7148,6 10,7 9.4277,6 53.5723,0 0,2 -50.1426,0 11.1426,6 20,7 22.2852,6 25.7148,0 0,2 -21.8574,0 0.8574,6 1,7 0,6 21,0 0,2 -21,0 0,6 0,7 0,6 21,0 0,2 -21,0 0,6 0,7 0,6 21,0 0,2 -21,0 0,6 0,7 0,6 21,0 0,2 -21,0 0,6 0,7 33,0 0,-287 z"
       id="polyline629"
       inkscape:connector-curvature="0" />
    <path
       style="fill:#ffffff;stroke:#ff0000;stroke-width:4"
       d="m 704.63989,944.00951 0,-35.00001 -7,0 -7,0 -6,0 0,22.00001 -2,0 0,-22.00001 -6,0 -7,0 -6,0 0,22.00001 -2,0 0,-22.00001 -6,0 -7,-1 -6,0 0,23.00001 -2,0 0,-23.00001 -6,0 -7,0 -6,0 0,23.00001 -2,0 0,-23.28521 -6,-1.7148 -7,-12 -6,-17.1426 0,37.1426 -2,0 0,-42.1426 -6,-12.8574 -7,-16 -6,-8.5723 0,58.5723 -2,0 0,-60.28521 -6,-1.71479 -7,6 -6,9.42769 0,54.57231 -2,0 0,-50 -6,18 -7,18 -6,13.71479 0,27.28521 -2,0 0,-24 -6,6 -7,0 -6,0.85739 0,21.14261 -2,0 0,-21 -6,0 -7,-1 -6,0.85739 0,21.14261 -2,0 0,-21 -6,0 -7.00001,0 -6,0 0,21 -2,0 0,-21 -6,0 -7,0 -6,0 0,21 -2,0 0,-21 -6,0 -7,0 -6,0 0,21 -2,0 0,-21 -6,0 -7,0 0,33 287.00001,0 z"
       id="polyline631"
       inkscape:connector-curvature="0" />
    <path
       style="fill:#ffffff;stroke:#ff0000;stroke-width:4"
       d="m 69.63989,941.0095 0,35 7,0 7,0 6,0 0,-22 2,0 0,22 6,0 7,0 6,0 0,-22 2,0 0,22 6,0 7,0 6,0 0,-22 2,0 0,22 6,0 7,0 6,0.8574 0,-22.8574 2,0 0,23 6,0 7,4 6,21.4277 0,-33.4277 2,0 0,39.7148 6,16.2852 7,8 6,-4.2852 0,-48.7148 2,0 0,46.4277 6,-9.4277 7,-20 6,-13.7148 0,-27.2852 2,0 0,24.1426 6,-5.1426 7,0 6,-0.8574 0,-21.1426 2,0 0,21 6,0 7,0 6,3.4277 0,-22.4277 2,0 0,22.5723 6,-2.5723 7,-1 6,0 0,-21 2,0 0,21 6,0 7,0 6,0 0,-21 2,0 0,21 6,0 7,0 6,0 0,-21 2,0 0,21 6,0 7,0 6,0 0,-21 2,0 0,21 6,0 7,0 0,-33 -287,0 z"
       id="polyline633"
       inkscape:connector-curvature="0" />
    <path
       style="fill:#ffffff;stroke:#ff0000;stroke-width:4"
       d="m 395.63989,955.0095 0,34 7,0 7,0 6,0 0,-22 2,0 0,22.1426 6,0.8574 7,0 6,0 0,-22 2,0 0,22 6,0 7,0 6,0 0,-22 2,0 0,22 6,0 7,0 6,0 0,-22 2,0 0,22 6,0 7,0 6,1.7148 0,-22.7148 2,0 0,23.7148 6,4.2852 7,-4 6,-1.7148 0,-23.2852 2,0 0,22.7148 6,-1.7148 7,0 6,0 0,-22 2,0 0,22 6,0 7,0 6,-0.8574 0,-21.1426 2,0 0,21 6,0 7,0 6,0 0,-21 2,0 0,21 6,0 7,0 6,0 0,-21 2,0 0,21 6,0 7,0 6,0 0,-21 2,0 0,21 6,0 7,0 6,0 0,-21 2,0 0,21 6,0 7,0 6,0 0,-21 2,0 0,21 6,0 7,0 0,-33 -287,0 z"
       id="polyline635"
       inkscape:connector-curvature="0" />
    <path
       inkscape:connector-curvature="0"
       style="fill:#ffffff;stroke:#ff0000;stroke-width:3.54330707"
       d="m -1451.6667,177.68486 0,-35.00001 -7,0 -7,0 -7,0 -7,0 -7,0 -7,0 -7,0 -7,0 -7,0 -7,0 -7,0 -7,0 -7,0 -7,-1 -7,0 -7,0 -7,0 -7,0 -7,0 -7,0 -7,0 -7,0 -7,0 -7,0 -7,0 -7,0 -7,0 -7,0 -7,0 -7,0 -7,0 -7,0 -7,0 -7,0 -7,0 -7,0 -7,0 -7,0 -7,0 -7,0 -7,0 -7,0 -7,0 -7,0 -7,0 -7,0 -7,0 -7,0 -7,1 -7,0 -7,0 -7,0 -7,0 -7,0 -7,0 -7,0 -7,0 -7,0 -7,1 -7,0 -7,0 -7,0 0,34.00001 8.627,0 4.373,-5.6602 0,-16.33981 2,0 0,16.39841 4.3457,5.6016 10.1153,0 4.539,-5.875 0,-16.12501 2,0 0,16.61331 4.1797,5.3867 10.3457,0 4.4746,-5.791 0,-16.20901 2,0 0,17.06641 3.8282,4.9336 10.5312,0 4.6406,-6.0059 0,-15.99411 2,0 0,17.28121 3.6622,4.7188 10.9414,0 4.3964,-5.6895 0,-17.31051 2,0 0,17.71681 4.1016,5.2832 10.5098,0 4.3886,-5.6797 0,-17.32031 2,0 0,17.82811 4.0137,5.1719 10.4317,0 4.5546,-5.8945 0,-17.10551 2,0 0,18.04301 3.8477,4.957 10.8398,0 4.3125,-5.5801 0,-17.41991 2,0 0,17.47851 4.2852,5.5215 10.1191,0 4.5957,-5.9453 0,-17.05471 2,0 0,17.96681 3.9063,5.0332 10.332,0 4.7617,-6.1602 0,-16.83981 2,0 0,18.18161 3.7403,4.8184 10.7441,0 4.5156,-5.8457 0,-17.15431 2,0 0,17.61911 4.1758,5.3809 10.3184,0 4.5058,-5.832 0,-17.16801 2,0 0,17.73241 4.0879,5.2676 10.2403,0 4.6718,-6.0469 0,-16.95311 2,0 0,17.94731 3.9219,5.0527 10.6485,0 4.4296,-5.7324 0,-17.26761 2,0 0,17.38281 4.3594,5.6172 9.9414,0 4.6992,-6.0781 0,-16.92191 2,0 0,17.78911 4.043,5.2109 10.0938,0 4.8632,-6.293 0,-16.70701 2,0 0,18.00191 3.879,4.9981 10.5019,0 4.6191,-5.9766 0,-16.02341 2,0 0,16.44141 4.3145,5.5586 10.0742,0 4.6113,-5.9688 0,-16.03121 2,0 0,16.55471 4.2266,5.4453 9.998,0 4.7754,-6.1817 0,-15.81831 2,0 0,16.76761 4.0606,5.2324 10.4023,0 4.5371,-5.8711 0,-16.12891 2,0 0,16.20311 4.4981,5.7969 15.5019,0 z"
       id="polyline7" />
    <path
       inkscape:connector-curvature="0"
       style="fill:#ffffff;stroke:#ff0000;stroke-width:3.54330707"
       d="m -1885.2483,203.79183 0,35 7,0 7,0 7,0 7,0 7,0 7,0 7,0 7,0 7,0 7,0 7,0 7,0 7,1 7,0 7,0 7,2 7,4 7,6 7,6 7,0 7,-14 7,-3 7,0 7,0 7,0 7,0 7,0 7,-1 7,0 7,0 7,0 7,0 7,0 7,0 7,0 7,0 7,0 7,0 7,0 7,0 7,0 7,0 7,0 7,0 7,0 7,0 7,0 7,0 7,0 7,-1 7,0 7,0 7,0 7,0 7,0 7,0 7,0 7,0 7,0 7,-1 7,0 7,0 0,-34 -8.6055,0 -4.3945,5.6875 0,16.3125 -2,0 0,-16.76953 -4.0586,-5.23047 -10.3809,0 -4.5605,5.90234 0,16.09766 -2,0 0,-16.98438 -3.8926,-5.01562 -10.6094,0 -4.498,5.82031 0,16.17969 -2,0 0,-17.43555 -3.543,-4.56445 -10.793,0 -4.664,6.03516 0,15.96484 -2,0 0,-17.64844 -3.377,-4.35156 -11.2031,0 -4.4199,5.7207 0,17.2793 -2,0 0,-18.08594 -3.8145,-4.91406 -10.7754,0 -4.4101,5.70898 0,17.29102 -2,0 0,-18.19922 -3.7266,-4.80078 -10.6973,0 -4.5761,5.92383 0,17.07617 -2,0 0,-18.41211 -3.5606,-4.58789 -11.1055,0 -4.3339,5.60742 0,17.39258 -2,0 0,-17.84961 -3.9961,-5.15039 -10.3868,0 -4.6171,5.97461 0,17.02539 -2,0 0,-18.33594 -3.6192,-4.66406 -10.5976,0 -4.7832,6.18945 0,16.81055 -2,0 0,-18.55078 -3.4532,-4.44922 -11.0097,0 -4.5371,5.87305 0,17.12695 -2,0 0,-17.98828 -3.8887,-5.01172 -10.584,0 -4.5273,5.85938 0,17.14062 -2,0 0,-18.10352 -3.8008,-4.89648 -10.5059,0 -4.6933,6.07422 0,16.92578 -2,0 0,-18.31641 -3.6348,-4.68359 -10.9141,0 -4.4511,5.76172 0,19.23828 -2,0 0,-19.75195 -4.0723,-5.24805 -10.207,0 -4.7207,6.10742 0,22.89258 -2,0 0,-24.16016 -3.7559,-4.83984 -10.3594,0 -4.8847,6.32227 0,16.67773 -2,0 0,-18.37305 -3.5918,-4.62695 -10.7656,0 -4.6426,6.00586 0,15.99414 -2,0 0,-16.81055 -4.0274,-5.18945 -10.3398,0 -4.6328,5.99805 0,16.00195 -2,0 0,-16.92578 -3.9375,-5.07422 -10.2656,0 -4.7969,6.20898 0,15.79102 -2,0 0,-17.13672 -3.7735,-4.86328 -10.6679,0 -4.5586,5.89844 0,16.10156 -2,0 0,-16.57422 -4.211,-5.42578 -15.789,0 z"
       id="polyline9" />
    <path
       inkscape:connector-curvature="0"
       style="fill:#ffffff;stroke:#ff0000;stroke-width:3.54330707"
       d="m -1449.5308,349.58657 0,-34 -7,-1 -7,0 -7,0 -7,0 -7,0 -7,0 -7,0 -7,-1 -7,0 -7,0 -7,0 -7,0 -7,-8 -7,-16 -7,-13 -7,-13 -7,-9 -7,-7 -7,1 -7,10 -7,17 -7,16 -7,19 -7,2 -7,0 -7,0 -7,0 -7,0 -7,0 -7,0 -7,0 -7,0 -7,0 -7,0 -7,0 -7,0 -7,0 -7,0 -7,0 -7,0 -7,0 -7,1 -7,0 -7,0 -7,0 -7,0 -7,0 -7,0 -7,0 -7,0 -7,0 -7,0 -7,1 -7,0 -7,0 -7,0 -7,0 -7,0 -7,0 -7,0 -7,0 -7,1 0,34 8.5938,0 4.4062,-5.70312 0,-16.29688 2,0 0,16.54297 4.2344,5.45703 10.1934,0 4.5722,-5.91797 0,-16.08203 2,0 0,16.75781 4.0684,5.24219 10.4238,0 4.5078,-5.83594 0,-16.16406 2,0 0,17.20898 3.7188,4.79102 10.6074,0 4.6738,-6.05078 0,-16.94922 2,0 0,18.42188 3.5528,4.57812 11.0156,0 4.4316,-5.73438 0,-17.26562 2,0 0,17.85938 3.9903,5.14062 10.5879,0 4.4218,-5.72266 0,-17.27734 2,0 0,17.97266 3.9024,5.02734 10.5098,0 4.5878,-5.9375 0,-17.0625 2,0 0,18.18555 3.7364,4.81445 10.9179,0 4.3457,-5.62305 0,-17.37695 2,0 0,17.62305 4.1719,5.37695 10.1992,0 4.6289,-5.99023 0,-17.00977 2,0 0,18.10938 3.795,4.89062 10.4101,0 4.7949,-6.20508 0,-16.79492 2,0 0,18.32227 3.629,4.67773 10.8222,0 4.5488,-5.88867 0,-17.11133 2,0 0,17.76172 4.0665,5.23828 10.3945,0 4.539,-5.87305 0,-17.12695 2,0 0,17.87695 3.9766,5.12305 10.3184,0 4.705,-6.08984 0,-16.91016 2,0 0,18.08984 3.8106,4.91016 10.7266,0 4.4628,-5.77539 0,-36.22461 2,0 0,36.52539 4.2481,5.47461 10.0195,0 4.7324,-6.12109 0,-49.87891 2,0 0,50.93359 3.9317,5.06641 10.1719,0 4.8964,-6.33594 0,-34.66406 2,0 0,36.14648 3.7676,4.85352 10.5781,0 4.6543,-6.02148 0,-16.97852 2,0 0,17.58398 4.2031,5.41602 10.1524,0 4.6445,-6.01172 0,-16.98828 2,0 0,17.69922 4.1152,5.30078 10.0762,0 4.8086,-6.22461 0,-15.77539 2,0 0,16.91016 3.9492,5.08984 10.4805,0 4.5703,-5.91406 0,-16.08594 2,0 0,16.34766 4.3867,5.65234 15.6133,0 z"
       id="polyline11" />
    <path
       inkscape:connector-curvature="0"
       style="fill:#ffffff;stroke:#ff0000;stroke-width:3.54330707"
       d="m -1883.8984,360.39731 0,35 7,0 7,0 7,0 7,0 7,0 7,1 7,0 7,0 7,1 7,2 7,15 7,23 7,20.00001 7,21 7,9 7,2 7,-9 7,-13 7,-18.00001 7,-16 7,-13 7,-11 7,-3 7,6 7,9 7,14 7,9 7,5 7,2 7,-11 7,-9 7,-10 7,-8 7,-7 7,-2 7,-4 7,-3 7,0 7,0 7,0 7,0 7,0 7,0 7,0 7,0 7,0 7,-1 7,0 7,0 7,0 7,0 7,0 7,0 7,0 7,-1 7,0 7,0 7,0 7,0 7,0 7,0 7,-1 0,-34 -8.9239,0 -4.0761,5.27539 0,16.72461 -2,0 0,-16.20312 -4.4981,-5.79688 -10.2598,0 -4.2421,5.49023 0,16.50977 -2,0 0,-16.41797 -4.3321,-5.58203 -10.4902,0 -4.1777,5.4082 0,17.5918 -2,0 0,-17.86914 -3.9825,-5.13086 -10.6738,0 -4.3437,5.62305 0,17.37695 -2,0 0,-18.08203 -3.8165,-4.91797 -11.082,0 -4.1015,5.30859 0,17.69141 -2,0 0,-17.51953 -4.254,-5.48047 -10.6542,0 -4.0918,5.29688 0,17.70312 -2,0 0,-17.63281 -4.1661,-5.36719 -10.5761,0 -4.2578,5.51172 0,17.48828 -2,0 0,-17.8457 -4,-5.1543 -10.9844,0 -4.0156,5.19531 0,17.80469 -2,0 0,-17.2832 -4.4356,-5.7168 -10.2656,0 -4.2988,5.5625 0,19.4375 -2,0 0,-19.76953 -4.0586,-5.23047 -10.4766,0 -4.4648,5.77734 0,25.22266 -2,0 0,-25.98438 -3.8926,-5.01562 -10.8887,0 -4.2187,5.46094 0,39.53906 -2,0 0,-39.42188 -4.3282,-5.57812 -10.4629,0 -4.2089,5.44727 0,41.55273 -2,0 0,-41.53711 -4.2403,-5.46289 -10.3847,0 -4.375,5.66211 0,25.33789 -2,0 0,-25.75 -4.0743,-5.25 -10.7929,0 -4.1328,5.34961 0,29.65039 -2,0 0,-29.18555 -4.5118,-5.81445 -10.0879,0 -4.4003,5.69531 0,52.30469 -2,0 0,-52.59375 -4.1954,-5.40625 -10.2382,0 -4.5664,5.9082 0,62.0918 -2,0 0,-62.80664 -4.0313,-5.19336 -10.6445,0 -4.3242,5.59375 0,37.40625 -2,0 0,-37.24414 -4.4668,-5.75586 -10.2188,0 -4.3144,5.58398 0,17.41602 -2,0 0,-17.35938 -4.377,-5.64062 -10.1445,0 -4.4785,5.79688 0,17.20312 -2,0 0,-17.57031 -4.2129,-5.42969 -10.5469,0 -4.2402,5.48633 0,16.51367 -2,0 0,-16.00781 -4.6504,-5.99219 -15.3496,0 z"
       id="polyline13" />
    <path
       inkscape:connector-curvature="0"
       style="fill:#ffffff;stroke:#ff0000;stroke-width:3.54330707"
       d="m -1409.2981,552.45879 0,-34 -7,0 -7,-1 -7,0 -7,0 -7,-1 -7,-4 -7,-15 -7,-20 -7,-9 -7,-18 -7,-8 -7,-6 -7,-8 -7,-7 -7,1 -7,14 -7,14 -7,5 -7,5 -7,6 -7,3 -7,8 -7,-19 -7,-14 -7,-14 -7,-14 -7,-8 -7,0 -7,-1 -7,3 -7,7 -7,20 -7,16 -7,18 -7,16 -7,-1 -7,1 -7,0 -7,-1 -7,0 -7,4 -7,5 -7,2 -7,3 -7,0 -7,-3 -7,-1 -7,2 -7,0 -7,-1 -7,6 -7,7 -7,5 -7,1 -7,0 -7,0 -7,0 -7,0 -7,1 -7,0 -7,0 -7,1 0,34 8.7305,0 4.2695,-5.5273 0,-16.4727 2,0 0,16.5586 4.2227,5.4414 10.3418,0 4.4355,-5.7422 0,-17.2578 2,0 0,17.7715 4.0567,5.2285 10.5703,0 4.373,-5.6582 0,-17.3418 2,0 0,18.2246 3.7071,4.7754 10.7539,0 4.539,-5.873 0,-23.127 2,0 0,24.4375 3.5411,4.5625 11.164,0 4.2949,-5.5586 0,-26.4414 2,0 0,26.875 3.9786,5.125 10.7363,0 4.2851,-5.5469 0,-25.4531 2,0 0,25.9883 3.8907,5.0117 10.6582,0 4.4511,-5.7617 0,-27.2383 2,0 0,28.2012 3.7247,4.7988 11.0664,0 4.2089,-5.4473 0,-32.5527 2,0 0,32.6387 4.1602,5.3613 10.3477,0 4.4921,-5.8125 0,-32.1875 2,0 0,33.125 3.7832,4.875 10.5586,0 4.6582,-6.0273 0,-47.9727 2,0 0,49.3379 3.6172,4.6621 10.9688,0 4.414,-5.7129 0,-70.2871 2,0 0,70.7754 4.0547,5.2246 10.543,0 4.4023,-5.6973 0,-71.3027 2,0 0,71.8926 3.9649,5.1074 10.4668,0 4.5683,-5.9121 0,-53.0879 2,0 0,54.1055 3.7989,4.8945 10.875,0 4.3261,-5.5996 0,-40.4004 2,0 0,40.541 4.2364,5.459 10.1679,0 4.5957,-5.9453 0,-47.0547 2,0 0,47.9473 3.92,5.0527 10.3203,0 4.7597,-6.1602 0,-63.8398 2,0 0,65.1621 3.7559,4.8379 10.7265,0 4.5176,-5.8457 0,-57.1543 2,0 0,57.5977 4.1914,5.4023 10.2988,0 4.5098,-5.8359 0,-41.1641 2,0 0,41.7129 4.1035,5.2871 10.2227,0 4.6738,-6.0469 0,-18.9531 2,0 0,19.9258 3.9375,5.0742 10.6289,0 4.4336,-5.7383 0,-16.2617 2,0 0,16.3633 4.375,5.6367 15.625,0 z"
       id="polyline15" />
    <path
       inkscape:connector-curvature="0"
       style="fill:#ffffff;stroke:#ff0000;stroke-width:3.54330707"
       d="m -1843.2907,568.2026 0,34 7,1 7,0 7,0 7,1 7,2 7,21 7,19 7,23 7,14 7,7 7,6 7,7 7,6 7,6 7,-5 7,-13 7,-2 7,4 7,-2 7,-8 7,-9 7,-8 7,11 7,13 7,14 7,5 7,2 7,1 7,-3 7,-5 7,-10 7,-8 7,-10 7,-9 7,3 7,10 7,5 7,-2 7,-13 7,-8 7,-6 7,-15 7,5 7,6 7,5 7,4 7,11 7,5 7,-4 7,-9 7,-7 7,-7 7,-12 7,-6 7,-7 7,-2 7,4 7,-5 7,-13 7,-10 7,-2 7,-1 0,-34 -8.8301,0 -4.1699,5.3984 0,17.6016 -2,0 0,-17.7891 -4.045,-5.2109 -10.6191,0 -4.3359,5.6133 0,31.3867 -2,0 0,-32.002 -3.879,-4.998 -10.8496,0 -4.2714,5.5273 0,34.4727 -2,0 0,-35.4551 -3.5274,-4.5449 -11.0351,0 -4.4375,5.7422 0,46.2578 -2,0 0,-47.6699 -3.3614,-4.3301 -11.4453,0 -4.1933,5.4277 0,56.5723 -2,0 0,-57.1055 -3.7989,-4.8945 -11.0156,0 -4.1855,5.418 0,46.582 -2,0 0,-47.2168 -3.711,-4.7832 -10.9375,0 -4.3515,5.6328 0,38.3672 -2,0 0,-39.4316 -3.545,-4.5684 -11.3457,0 -4.1093,5.3184 0,53.6816 -2,0 0,-53.8691 -3.9825,-5.1309 -10.6269,0 -4.3906,5.6816 0,58.3184 -2,0 0,-59.3555 -3.6036,-4.6445 -10.8398,0 -4.5566,5.8965 0,56.1035 -2,0 0,-57.5703 -3.4375,-4.4297 -11.25,0 -4.3125,5.582 0,70.418 -2,0 0,-71.0078 -3.875,-4.9922 -10.8223,0 -4.3027,5.5684 0,73.4316 -2,0 0,-74.1211 -3.7872,-4.8789 -10.7441,0 -4.4687,5.7832 0,63.2168 -2,0 0,-64.3359 -3.6211,-4.6641 -11.1524,0 -4.2265,5.4707 0,55.5293 -2,0 0,-55.7715 -4.0586,-5.2285 -10.4454,0 -4.496,5.8164 0,64.1836 -2,0 0,-65.1777 -3.7403,-4.8223 -10.5996,0 -4.6601,6.0312 0,69.9688 -2,0 0,-71.3906 -3.5762,-4.6094 -11.0078,0 -4.416,5.7148 0,66.2852 -2,0 0,-66.8301 -4.0117,-5.1699 -10.5801,0 -4.4082,5.707 0,56.293 -2,0 0,-56.9434 -3.9238,-5.0566 -10.5039,0 -4.5723,5.918 0,28.082 -2,0 0,-29.1562 -3.7578,-4.8438 -10.9082,0 -4.334,5.6074 0,16.3926 -2,0 0,-16.5938 -4.1973,-5.4062 -15.8027,0 z"
       id="polyline17" />
    <path
       inkscape:connector-curvature="0"
       style="fill:#ffffff;stroke:#ff0000;stroke-width:3.54330707"
       d="m -1435.4372,865.36734 0,-35 -7,0 -7,0 -7,0 -7,-1 -7,-5 -7,-15 -7,-13 -7,-15.00002 -7,-18 -7,-14 -7,-11 -7,-10 -7,-6 -7,-3 -7,-4 -7,-4 -7,-2 -7,4 -7,9 -7,8 -7,8 -7,-4 -7,-8 -7,-9 -7,-4 -7,-2 -7,0 -7,6 -7,3 -7,3 -7,2 -7,1 -7,1 -7,1 -7,3 -7,-3 -7,-1 -7,6 -7,8 -7,9 -7,5 -7,-7 -7,-5 -7,2 -7,-9 -7,-7 -7,-4 -7,2 -7,6 -7,6 -7,3 -7,6 -7,2 -7,4 -7,4 -7,6 -7,14 -7,21.00002 -7,24 -7,6 -7,2 -7,0 0,34 9.5938,0 3.4062,-4.4082 0,-18.5918 2,0 0,17.4766 4.2872,5.5234 11.1406,0 3.5722,-4.623 0,-43.377 2,0 0,42.6914 4.1211,5.3086 11.3711,0 3.5078,-4.5391 0,-55.4609 2,0 0,55.1426 3.7696,4.8574 11.5566,0 3.6738,-4.7539 0,-61.2461 2,0 0,61.3555 3.6036,4.6445 11.9668,0 3.4296,-4.4395 0,-69.5605 2,0 0,68.793 4.0411,5.207 11.5371,0 3.4218,-4.4277 0,-64.5723 2,0 0,63.9062 3.9532,5.0938 11.459,0 3.5878,-4.6426 0,-58.3574 2,0 0,58.1191 3.7872,4.8809 11.8691,0 3.3437,-4.3281 0,-62.6719 2,0 0,61.5566 4.2247,5.4434 11.1484,0 3.6269,-4.6934 0,-68.3066 2,0 0,68.043 3.8477,4.957 11.3594,0 3.7929,-4.9082 0,-69.0918 2,0 0,69.2578 3.6817,4.7422 11.7695,0 3.5488,-4.5918 0,-71.40822 2,0 0,70.69532 4.1172,5.3047 11.3457,0 3.5371,-4.5781 0,-77.42192 2,0 0,76.81052 4.0293,5.1895 11.2676,0 3.7031,-4.793 0,-74.20702 2,0 0,74.02342 3.8633,4.9766 11.6758,0 3.4609,-4.4805 0,-63.5195 2,0 0,62.459 4.2989,5.541 10.9707,0 3.7304,-4.8262 0,-76.17382 2,0 0,75.86722 3.9825,5.1328 11.123,0 3.8945,-5.041 0,-74.95902 2,0 0,75.08012 3.8184,4.9199 11.5293,0 3.6523,-4.7266 0,-68.2734 2,0 0,67.5176 4.2559,5.4824 11.0996,0 3.6445,-4.7168 0,-51.2832 2,0 0,50.6328 4.166,5.3672 11.0254,0 3.8086,-4.9277 0,-28.0723 2,0 0,27.8438 4,5.1562 11.4317,0 3.5683,-4.6191 0,-17.3809 2,0 0,16.2812 4.4375,5.7188 15.5625,0 z"
       id="polyline19" />
    <path
       inkscape:connector-curvature="0"
       style="fill:#ffffff;stroke:#ff0000;stroke-width:3.54330707"
       d="m -1381.3643,572.87593 35,0 0,-7 0,-7 0,-7 2,-7 7,-7 16,-7 11,-7 13,-7 14,-7 13,-7 7,-7 10,-7 9,-7 5,-7 5,-7 5,-7 7,-7 2,-7 -1,-7 3,-7 -2,-7 0,-7 0,-7 1,-7 -3,-7 -4,-7 -7,-7 -1,-7 1,-7 -1,-7 -1,-7 0,-7 1,-7 2,-7 -2,-7 0,-7 -3,-7 -2,-7 -5,-7 0,-7 -1,-7 6,-7 9,-7 3,-7 -1,-7 -2,-7 -3,-7 -6,-7 -7,-7 -6,-7 -5,-7 -9,-7 -9,-7 -10,-7 -21,-7 -19,-7 -16,-7 -6,-7 0,-7 0,-7 0,-7 0,-7 -34,0 0,9.2364 4.8691,3.7636 17.1309,0 0,2 -16.9375,0 -5.0625,3.9297 0,11.1407 5.084,3.9296 19.916,0 0,2 -20.1523,0 -4.8477,3.7637 0,11.3711 5.002,3.8652 47.998,0 0,2 -48.6035,0 -4.3965,3.4122 0,11.5566 5.2168,4.0312 61.7832,0 0,2 -62.8164,0 -4.1836,3.2461 0,11.9668 4.9023,3.7871 71.0977,0 0,2 -71.2539,0 -4.7461,3.6836 0,11.5371 4.8906,3.7793 76.1094,0 0,2 -76.3672,0 -4.6328,3.5957 0,11.459 5.1055,3.9453 70.8945,0 0,2 -71.5801,0 -4.4199,3.4297 0,11.8692 4.7891,3.7011 68.2109,0 0,2 -68.0176,0 -4.9824,3.8672 0,11.1485 5.1562,3.9843 72.8438,0 0,2 -73.5039,0 -4.4961,3.4903 0,11.3594 5.3711,4.1503 72.6289,0 0,2 -73.7168,0 -4.2832,3.3243 0,11.7695 5.0547,3.9062 72.9453,0 0,2 -73.1562,0 -4.8438,3.7598 0,11.3457 5.041,3.8945 73.959,0 0,2 -74.2715,0 -4.7285,3.6719 0,11.2676 5.2559,4.0605 80.7441,0 0,2 -81.4844,0 -4.5156,3.5059 0,11.6758 4.9434,3.8183 80.0566,0 0,2 -79.9199,0 -5.0801,3.9415 0,10.9707 5.2891,4.0878 79.7109,0 0,2 -80.3262,0 -4.6738,3.625 0,11.1231 5.5039,4.2519 72.4961,0 0,2 -73.541,0 -4.459,3.461 0,11.5292 5.1895,4.0098 63.8105,0 0,2 -63.9785,0 -5.0215,3.8985 0,11.0996 5.1797,4.0019 48.8203,0 0,2 -49.0938,0 -4.9062,3.8086 0,11.0254 5.3906,4.166 29.6094,0 0,2 -30.3047,0 -4.6953,3.6426 0,11.4316 5.0801,3.9258 16.9199,0 0,2 -16.7422,0 -5.2578,4.0801 0,15.9199 z"
       id="polyline21" />
    <path
       inkscape:connector-curvature="0"
       style="fill:#ffffff;stroke:#ff0000;stroke-width:3.54330707"
       d="m -1869.5338,877.52322 0,35 7,0 7,0 7,5 7,0 7,3 7,6 7,7 7,10 7,12 7,8 7,12 7,16 7,7 7,10.99998 7,8 7,6 7,6 7,3 7,2 7,2 7,1 7,-2 7,0 7,-1 7,0 7,-1 7,3 7,-1 7,-1 7,-3 7,-2 7,-1 7,0 7,1 7,2 7,3 7,3 7,-2 7,-3 7,1 7,-1 7,-3 7,-3 7,-4 7,-1 7,-3 7,-5 7,-11 7,-9.99998 7,-7 7,-14 7,-17 7,-16 7,-20 7,-7 7,0 7,-1 7,0 7,0 7,0 7,0 7,1 0,-34 -8.961,0 -4.039,5.2266 0,15.7734 -2,0 0,-15.5801 -4.2071,-5.4199 -10.5879,0 -4.205,5.4414 0,15.5586 -2,0 0,-15.7949 -4.0411,-5.2051 -10.8183,0 -4.1406,5.3594 0,19.6406 -2,0 0,-20.2461 -3.6895,-4.7539 -11.0039,0 -4.3066,5.5742 0,46.4258 -2,0 0,-47.459 -3.5235,-4.541 -11.4121,0 -4.0644,5.2598 0,61.7402 -2,0 0,-61.8965 -3.9629,-5.1035 -10.9825,0 -4.0546,5.248 0,71.752 -2,0 0,-72.0098 -3.8731,-4.9902 -10.9062,0 -4.2207,5.4629 0,75.5371 -2,0 0,-76.2227 -3.7071,-4.7773 -11.3164,0 -3.9765,5.1465 0,76.8535 -2,0 0,-76.6602 -4.1446,-5.3398 -10.5957,0 -4.2597,5.5137 0,77.4863 -2,0 0,-78.1465 -3.7676,-4.8535 -10.8067,0 -4.4257,5.7285 0,74.2715 -2,0 0,-75.3594 -3.6016,-4.6406 -11.2168,0 -4.1816,5.4121 0,76.5879 -2,0 0,-76.7988 -4.0372,-5.2012 -10.791,0 -4.1718,5.3984 0,78.6016 -2,0 0,-78.9141 -3.9493,-5.0859 -10.7129,0 -4.3378,5.6133 0,77.3867 -2,0 0,-78.127 -3.7832,-4.873 -11.1211,0 -4.0957,5.3008 0,79.6992 -2,0 0,-79.5625 -4.2188,-5.4375 -10.418,0 -4.3632,5.6465 0,76.3535 -2,0 0,-76.9688 -3.9024,-5.0312 -10.5703,0 -4.5273,5.8613 0,69.1387 -2,0 0,-70.1836 -3.7383,-4.8164 -10.9766,0 -4.2851,5.5449 0,56.4551 -2,0 0,-56.623 -4.1738,-5.377 -10.5489,0 -4.2773,5.5371 0,38.4629 -2,0 0,-38.7363 -4.086,-5.2637 -10.4726,0 -4.4414,5.748 0,23.252 -2,0 0,-23.9473 -3.9199,-5.0527 -10.8789,0 -4.2012,5.4375 0,19.5625 -2,0 0,-19.3848 -4.3574,-5.6152 -15.6426,0 z"
       id="polyline23" />
    <path
       inkscape:connector-curvature="0"
       style="fill:#ffffff;stroke:#ff0000;stroke-width:3.54330707"
       d="m -1378.844,1026.9139 35,0 0,-7 1,-7 0,-7 0,-6.99998 0,-7 0,-6.99999 0,-7 11,-7 10,-7 9,-7 16,-7 20,-7 13,-7 3,-7 9,-7 3,-7 3,-7 1,-7 5,-7 4,-7 3,-7 6,-7 3,-7 4,-7 1,-7 2,-7 -2,-7.00001 -2,-7 -1,-7 -1,-7 0,-7 1,-7 1,-7 1,-7 -1,-7 -1,-7 -1,-7 -4,-7 -2,-7 -9,-7 -4,-7 -5,-7 -3,-7 -4,-7 -5,-7 -6,-7 -15,-7 -20,-7 -13,-7 -13,-7 -18,-7 -1,-7 -1,-7 0,-7 1,-7 3,-7 0,-7 -3,-6.99995 -1,-7 0,-7 0,-7 0,-7 -33,0 0,8.961 5.2266,4.039 15.7734,0 0,2 -15.5801,0 -5.4199,4.2071 0,10.58785 5.4414,4.205 17.5586,0 0,2 -17.7949,0 -5.2051,4.0411 0,10.8183 5.3594,4.1406 15.6406,0 0,2 -16.2461,0 -4.7539,3.6895 0,11.0039 5.5742,4.3066 16.4258,0 0,2 -17.459,0 -4.541,3.5235 0,11.4121 5.2598,4.0644 38.7402,0 0,2 -38.8965,0 -5.1035,3.9629 0,10.9825 5.248,4.0546 59.752,0 0,2 -60.0098,0 -4.9902,3.8731 0,10.9062 5.4629,4.2207 65.5371,0 0,2 -66.2227,0 -4.7773,3.7071 0,11.3164 5.1465,3.9765 74.8535,0 0,2 -74.6602,0 -5.3398,4.1446 0,10.5957 5.5137,4.2597 77.4863,0 0,2 -78.1465,0 -4.8535,3.7676 0,10.8067 5.7285,4.4257 78.2715,0 0,2 -79.3594,0 -4.6406,3.6016 0,11.2168 5.4121,4.1816 77.5879,0 0,2 -77.7988,0 -5.2012,4.0372 0,10.791 5.3984,4.1718 79.6016,0 0,2 -79.9141,0 -5.0859,3.94931 0,10.7129 5.6133,4.3378 78.3867,0 0,2 -79.127,0 -4.873,3.7832 0,11.1211 5.3008,4.0957 72.6992,0 0,2 -72.5625,0 -5.4375,4.2188 0,10.418 5.6465,4.3632 66.3535,0 0,2 -66.9688,0 -5.0312,3.9024 0,10.5703 5.8613,4.5273 62.1387,0 0,2 -63.1836,0 -4.8164,3.7383 0,10.9766 5.5449,4.2851 50.4551,0 0,2 -50.623,0 -5.377,4.1738 0,10.5489 5.5371,4.2773 27.4629,0 0,2 -27.7363,0 -5.2637,4.086 0,10.4726 5.748,4.4414 17.252,0 0,2 -17.9473,0 -5.0527,3.9199 0,10.87887 5.4375,4.2012 17.5625,0 0,2 -17.3848,0 -5.6152,4.3574 0,15.6426 z"
       id="polyline25" />
    <path
       inkscape:connector-curvature="0"
       style="fill:#ffffff;stroke:#ff0000;stroke-width:3.54330707"
       d="m -1311.4983,1655.5569 0,-35 -7,0 -7,0 -7,-1 -7,0 -7,0 -7,0 -7,0 -7,-5 -7,-13 -7,-7 -7,-4 -7,-14 -7,-4 -7,-7 -7,-7 -7,-6 -7,-6 -7,-6 -7,-6 -7,-5 -7,-8 -7,-10 -7,-4 -7,-2 -7,0 -7,0 -7,2 -7,0 -7,0 -7,0 -7,0 -7,0 -7,-1 -7,4 -7,4 -7,6 -7,1 -7,3 -7,6 -7,19 -7,30 -7,18 -7,2 -7,10 -7,2 -7,7 -7,3 -7,0 -7,0 -7,1 -7,0 -7,0 -7,0 -7,0 -7,0 -7,0 -7,0 -7,0 -7,0 -7,0 -7,0 -7,0 0,33 9.3379,0 3.6621,-4.7402 0,-16.2598 2,0 0,15.6328 4.1641,5.3672 11.0078,0 3.8281,-4.9551 0,-16.0449 2,0 0,15.8477 4,5.1523 11.2344,0 3.7656,-4.873 0,-16.127 2,0 0,16.2988 3.6485,4.7012 11.4199,0 3.9316,-5.0879 0,-15.9121 2,0 0,16.5117 3.4825,4.4883 11.83,0 3.6875,-4.7715 0,-17.2285 2,0 0,16.9492 3.92,5.0508 11.4023,0 3.6777,-4.7598 0,-22.2402 2,0 0,22.0625 3.8321,4.9375 11.3242,0 3.8437,-4.9746 0,-29.0254 2,0 0,29.2754 3.6661,4.7246 11.7324,0 3.6015,-4.6602 0,-62.3398 2,0 0,61.7129 4.1036,5.2871 11.0117,0 3.8847,-5.0273 0,-66.9727 2,0 0,67.1992 3.7266,4.8008 11.2227,0 4.0507,-5.2422 0,-73.7578 2,0 0,74.4141 3.5606,4.5859 11.6348,0 3.8046,-4.9258 0,-74.0742 2,0 0,73.8516 3.9961,5.1484 11.209,0 3.7949,-4.9121 0,-74.0879 2,0 0,73.9668 3.9063,5.0332 11.1328,0 3.9609,-5.127 0,-74.873 2,0 0,75.1797 3.7403,4.8203 11.541,0 3.7187,-4.8125 0,-67.1875 2,0 0,66.6152 4.1778,5.3848 10.834,0 3.9882,-5.1582 0,-56.8418 2,0 0,57.0234 3.8614,4.9766 10.9863,0 4.1523,-5.373 0,-47.627 2,0 0,48.2363 3.6973,4.7637 11.3926,0 3.9101,-5.0586 0,-38.9414 2,0 0,38.6738 4.1328,5.3262 10.9649,0 3.9023,-5.0488 0,-26.9512 2,0 0,26.7891 4.0449,5.2109 10.8887,0 4.0664,-5.2617 0,-17.7383 2,0 0,18 3.8789,5 11.2949,0 3.8262,-4.9512 0,-18.0488 2,0 0,17.4375 4.3164,5.5625 15.6836,0 z"
       id="polyline27" />
    <path
       inkscape:connector-curvature="0"
       style="fill:#ffffff;stroke:#ff0000;stroke-width:3.54330707"
       d="m -1745.9836,1670.5203 0,34 7,1 7,0 7,0 7,0 7,0 7,0 7,0 7,1 7,0 7,0 7,0 7,0 7,6 7,16 7,16 7,18 7,11 7,10 7,2 7,6 7,5 7,3 7,5 7,0 7,-1 7,-4 7,-5 7,-6 7,4 7,4 7,6 7,0 7,-4 7,-14 7,-32 7,-31 7,-7 7,-6 7,-3 7,-1 7,0 7,0 7,0 7,-1 7,0 7,0 7,0 7,0 7,0 7,0 7,0 7,0 7,0 7,0 7,0 7,0 7,0 7,0 7,0 7,0 7,0 7,0 0,-33 -8.9961,0 -4.0039,5.1816 0,15.8184 -2,0 0,-15.2539 -4.459,-5.7461 -10.3711,0 -4.1699,5.3965 0,15.6035 -2,0 0,-15.4668 -4.293,-5.5332 -10.6016,0 -4.1054,5.3125 0,15.6875 -2,0 0,-15.918 -3.9434,-5.082 -10.7852,0 -4.2714,5.5273 0,15.4727 -2,0 0,-16.1328 -3.7774,-4.8672 -11.1953,0 -4.0273,5.2129 0,15.7871 -2,0 0,-15.5684 -4.2149,-5.4316 -10.7656,0 -4.0195,5.2012 0,15.7988 -2,0 0,-15.6816 -4.127,-5.3184 -10.6875,0 -4.1855,5.416 0,16.584 -2,0 0,-16.8965 -3.961,-5.1035 -11.0976,0 -3.9414,5.1016 0,16.8984 -2,0 0,-16.334 -4.3985,-5.666 -10.3769,0 -4.2246,5.4668 0,24.5332 -2,0 0,-24.8184 -4.0215,-5.1816 -10.5879,0 -4.3906,5.6816 0,63.3184 -2,0 0,-64.0332 -3.8555,-4.9668 -10.9981,0 -4.1464,5.3672 0,62.6328 -2,0 0,-62.4707 -4.2911,-5.5293 -10.5742,0 -4.1347,5.3516 0,61.6484 -2,0 0,-61.5859 -4.2012,-5.4141 -10.4981,0 -4.3007,5.5664 0,66.4336 -2,0 0,-66.8008 -4.0352,-5.1992 -10.9063,0 -4.0585,5.2539 0,62.7461 -2,0 0,-62.2363 -4.4727,-5.7637 -10.1973,0 -4.33,5.6016 0,55.3984 -2,0 0,-55.6406 -4.1582,-5.3594 -10.3477,0 -4.4941,5.8164 0,36.1836 -2,0 0,-36.8535 -3.9942,-5.1465 -10.7558,0 -4.25,5.5 0,17.5 -2,0 0,-17.293 -4.4277,-5.707 -10.3301,0 -4.2422,5.4902 0,17.5098 -2,0 0,-17.4082 -4.3399,-5.5918 -10.2539,0 -4.4062,5.7012 0,16.2988 -2,0 0,-16.6211 -4.1738,-5.3789 -10.6602,0 -4.166,5.3926 0,16.6074 -2,0 0,-16.0586 -4.6113,-5.9414 -15.3887,0 z"
       id="polyline29" />
    <path
       inkscape:connector-curvature="0"
       style="fill:#ffffff;stroke:#ff0000;stroke-width:3.54330707"
       d="m -1282.0256,1845.4604 0,-34 -7,0 -7,0 -7,0 -7,0 -7,0 -7,-1 -7,0 -7,0 -7,0 -7,0 -7,0 -7,0 -7,-1 -7,-9 -7,-18 -7,-5 -7,-12 -7,-12 -7,-14 -7,-10 -7,-1 -7,7 -7,2 -7,7 -7,13 -7,17 -7,1 -7,8 -7,-14 -7,6 -7,26 -7,8 -7,1 -7,1 -7,0 -7,0 -7,1 -7,0 -7,0 -7,0 -7,0 -7,0 -7,0 -7,0 -7,0 -7,0 -7,0 -7,0 -7,0 -7,0 -7,0 -7,0 -7,0 -7,0 -7,0 -7,0 -7,0 -7,0 -7,0 -7,0 -7,0 -7,0 0,33 9.4317,0 3.5683,-4.6191 0,-16.3809 2,0 0,15.1641 4.5293,5.8359 10.7364,0 3.7343,-4.834 0,-16.166 2,0 0,15.3789 4.3633,5.6211 10.9668,0 3.6699,-4.75 0,-16.25 2,0 0,15.8301 4.0118,5.1699 11.1523,0 3.8359,-4.9648 0,-16.0352 2,0 0,16.0449 3.8457,4.9551 11.5606,0 3.5937,-4.6504 0,-16.3496 2,0 0,15.4805 4.2852,5.5195 11.1309,0 3.5839,-4.6387 0,-16.3613 2,0 0,15.5938 4.1954,5.4062 11.0546,0 3.75,-4.8535 0,-16.1465 2,0 0,15.8086 4.0293,5.1914 11.4629,0 3.5078,-4.5391 0,-16.4609 2,0 0,15.2441 4.4668,5.7559 10.7422,0 3.791,-4.9043 0,-17.0957 2,0 0,16.7305 4.0899,5.2695 10.9531,0 3.957,-5.1191 0,-16.8809 2,0 0,16.9453 3.9239,5.0547 11.3652,0 3.7109,-4.8027 0,-35.1973 2,0 0,34.3848 4.3594,5.6152 10.9395,0 3.7011,-4.7891 0,-35.2109 2,0 0,34.498 4.2715,5.502 10.8614,0 3.8671,-5.0039 0,-49.9961 2,0 0,49.7129 4.1055,5.2871 11.2695,0 3.625,-4.6914 0,-58.3086 2,0 0,57.1484 4.5411,5.8516 10.5664,0 3.8925,-5.0371 0,-45.9629 2,0 0,45.5547 4.2247,5.4453 10.7168,0 4.0585,-5.252 0,-30.748 2,0 0,30.7676 4.0606,5.2324 11.123,0 3.8164,-4.9375 0,-17.0625 2,0 0,16.2051 4.4961,5.7949 10.6973,0 3.8066,-4.9277 0,-17.0723 2,0 0,16.3203 4.4082,5.6797 10.6211,0 3.9707,-5.1406 0,-16.8594 2,0 0,16.5312 4.2422,5.4688 11.0254,0 3.7324,-4.8301 0,-17.1699 2,0 0,15.9688 4.6797,6.0312 15.3203,0 z"
       id="polyline31" />
    <path
       inkscape:connector-curvature="0"
       style="fill:#ffffff;stroke:#ff0000;stroke-width:3.54330707"
       d="m -1715.935,1856.9966 0,34 7,0 7,0 7,0 7,0 7,0 7,0 7,1 7,0 7,0 7,0 7,0 7,0 7,0 7,0 7,0 7,4 7,8 7,5 7,1 7,-3 7,-11 7,-4 7,-1 7,0 7,0 7,0 7,0 7,0 7,0 7,0 7,0 7,0 7,-1 7,0 7,0 7,0 7,0 7,0 7,0 7,0 7,0 7,0 7,0 7,0 7,0 7,0 7,0 7,0 7,0 7,0 7,0 7,0 7,0 7,0 7,0 7,0 7,0 7,0 7,0 7,0 7,0 7,0 0,-33 -9.5528,0 -3.4472,4.4629 0,16.5371 -2,0 0,-15.9531 -3.918,-5.0469 -11.4688,0 -3.6132,4.6777 0,16.3223 -2,0 0,-16.166 -3.752,-4.834 -11.7031,0 -3.5449,4.5879 0,16.4121 -2,0 0,-16.623 -3.3965,-4.377 -11.8926,0 -3.7109,4.8027 0,16.1973 -2,0 0,-16.8379 -3.2305,-4.1621 -12.3027,0 -3.4668,4.4883 0,16.5117 -2,0 0,-16.2734 -3.668,-4.7266 -11.8731,0 -3.4589,4.4766 0,16.5234 -2,0 0,-16.3867 -3.5801,-4.6133 -11.7949,0 -3.625,4.6914 0,16.3086 -2,0 0,-16.6016 -3.4141,-4.3984 -12.2031,0 -3.3828,4.3789 0,16.6211 -2,0 0,-16.0371 -3.8516,-4.9629 -11.4824,0 -3.666,4.7441 0,16.2559 -2,0 0,-16.5215 -3.4747,-4.4785 -11.6933,0 -3.832,4.959 0,16.041 -2,0 0,-16.7363 -3.3086,-4.2637 -12.1016,0 -3.5898,4.6465 0,17.3535 -2,0 0,-17.1719 -3.7481,-4.8281 -11.6719,0 -3.58,4.6328 0,17.3672 -2,0 0,-17.2852 -3.6602,-4.7148 -11.5938,0 -3.746,4.8477 0,17.1523 -2,0 0,-17.5 -3.4942,-4.5 -12.0019,0 -3.5039,4.5352 0,19.4648 -2,0 0,-18.9355 -3.9317,-5.0645 -11.2969,0 -3.7714,4.8809 0,26.1191 -2,0 0,-26.3418 -3.6133,-4.6582 -11.4492,0 -3.9375,5.0957 0,16.9043 -2,0 0,-17.5547 -3.4493,-4.4453 -11.8554,0 -3.6953,4.7812 0,17.2188 -2,0 0,-16.9922 -3.8867,-5.0078 -11.4278,0 -3.6855,4.7715 0,17.2285 -2,0 0,-17.1074 -3.7969,-4.8926 -11.3535,0 -3.8496,4.9824 0,17.0176 -2,0 0,-17.3203 -3.6309,-4.6797 -11.7578,0 -3.6113,4.6719 0,17.3281 -2,0 0,-16.7559 -4.0684,-5.2441 -15.9316,0 z"
       id="polyline33" />
    <path
       style="fill:none;fill-rule:evenodd;stroke:#000000;stroke-width:1px;stroke-linecap:butt;stroke-linejoin:miter;stroke-opacity:1"
       d="m -1869.5903,864.57485 0,13.76333"
       id="path5256"
       inkscape:connector-curvature="0" />
    <path
       style="fill:none;fill-rule:evenodd;stroke:#000000;stroke-width:1px;stroke-linecap:butt;stroke-linejoin:miter;stroke-opacity:1"
       d="m -1435.4773,879.60087 0,-15.65737"
       id="path5258"
       inkscape:connector-curvature="0" />
    <path
       style="fill:none;fill-rule:evenodd;stroke:#000000;stroke-width:1px;stroke-linecap:butt;stroke-linejoin:miter;stroke-opacity:1"
       d="m -1843.3264,571.12553 0,-20.20305"
       id="path5260"
       inkscape:connector-curvature="0" />
    <path
       style="fill:none;fill-rule:evenodd;stroke:#000000;stroke-width:1px;stroke-linecap:butt;stroke-linejoin:miter;stroke-opacity:1"
       d="m -1405.1727,581.98467 -0.2525,-18.94036"
       id="path5262"
       inkscape:connector-curvature="0" />
    <path
       style="fill:none;fill-rule:evenodd;stroke:#000000;stroke-width:1px;stroke-linecap:butt;stroke-linejoin:miter;stroke-opacity:1"
       d="m -1449.8389,362.58487 0.1786,-15.17857"
       id="path5264"
       inkscape:connector-curvature="0" />
    <path
       style="fill:none;fill-rule:evenodd;stroke:#000000;stroke-width:1px;stroke-linecap:butt;stroke-linejoin:miter;stroke-opacity:1"
       d="m -1883.7325,361.51344 0,-13.57143"
       id="path5266"
       inkscape:connector-curvature="0" />
    <path
       style="fill:none;fill-rule:evenodd;stroke:#000000;stroke-width:1px;stroke-linecap:butt;stroke-linejoin:miter;stroke-opacity:1"
       d="m -1885.7528,206.08166 0,-29.67323"
       id="path5268"
       inkscape:connector-curvature="0" />
    <path
       style="fill:none;fill-rule:evenodd;stroke:#000000;stroke-width:1px;stroke-linecap:butt;stroke-linejoin:miter;stroke-opacity:1"
       d="m -1451.3872,205.70285 -0.3788,-30.55711"
       id="path5270"
       inkscape:connector-curvature="0" />
    <path
       style="fill:none;fill-rule:evenodd;stroke:#000000;stroke-width:1px;stroke-linecap:butt;stroke-linejoin:miter;stroke-opacity:1"
       d="m -1377.3935,138.5277 -17.1726,-0.50507 -1.7678,435.12321 19.4455,-0.25254"
       id="path5272"
       inkscape:connector-curvature="0" />
    <path
       style="fill:none;fill-rule:evenodd;stroke:#000000;stroke-width:1px;stroke-linecap:butt;stroke-linejoin:miter;stroke-opacity:1"
       d="m -1374.363,593.09635 -24.4962,0.50508 5.8083,434.36557 17.4252,-1.0102"
       id="path5274"
       inkscape:connector-curvature="0" />
    <flowRoot
       xml:space="preserve"
       id="flowRoot5276"
       style="font-style:normal;font-variant:normal;font-weight:normal;font-stretch:normal;font-size:72px;line-height:125%;font-family:'Helvetica LT';-inkscape-font-specification:'Helvetica LT';letter-spacing:2px;word-spacing:0px;fill:#000000;fill-opacity:1;stroke:none;stroke-width:1px;stroke-linecap:butt;stroke-linejoin:miter;stroke-opacity:1"
       transform="translate(-1912.0167,-8.4852814)"><flowRegion
         id="flowRegion5278"><rect
           id="rect5280"
           width="172.53406"
           height="210.4381"
           x="-223.44574"
           y="95.219345" /></flowRegion><flowPara
         id="flowPara5282">1</flowPara></flowRoot>    <flowRoot
       xml:space="preserve"
       id="flowRoot5284"
       style="font-style:normal;font-variant:normal;font-weight:normal;font-stretch:normal;font-size:72px;line-height:125%;font-family:'Helvetica LT';-inkscape-font-specification:'Helvetica LT';letter-spacing:2px;word-spacing:0px;fill:#000000;fill-opacity:1;stroke:none;stroke-width:1px;stroke-linecap:butt;stroke-linejoin:miter;stroke-opacity:1"
       transform="translate(-1804.5365,-110.30866)"><flowRegion
         id="flowRegion5286"><rect
           id="rect5288"
           width="164.04877"
           height="115.96552"
           x="-280.01428"
           y="206.66249" /></flowRegion><flowPara
         id="flowPara5290">2</flowPara></flowRoot>    <flowRoot
       xml:space="preserve"
       id="flowRoot5292"
       style="font-style:normal;font-variant:normal;font-weight:normal;font-stretch:normal;font-size:72px;line-height:125%;font-family:'Helvetica LT';-inkscape-font-specification:'Helvetica LT';letter-spacing:2px;word-spacing:0px;fill:#000000;fill-opacity:1;stroke:none;stroke-width:1px;stroke-linecap:butt;stroke-linejoin:miter;stroke-opacity:1"
       transform="translate(-1912.0167,-8.4852814)"><flowRegion
         id="flowRegion5294"><rect
           id="rect5296"
           width="203.64676"
           height="172.53406"
           x="-305.47012"
           y="305.65744" /></flowRegion><flowPara
         id="flowPara5298">34</flowPara></flowRoot>    <flowRoot
       xml:space="preserve"
       id="flowRoot5300"
       style="font-style:normal;font-variant:normal;font-weight:normal;font-stretch:normal;font-size:72px;line-height:125%;font-family:'Helvetica LT';-inkscape-font-specification:'Helvetica LT';letter-spacing:2px;word-spacing:0px;fill:#000000;fill-opacity:1;stroke:none;stroke-width:1px;stroke-linecap:butt;stroke-linejoin:miter;stroke-opacity:1"
       transform="translate(-1912.0167,-8.4852814)"><flowRegion
         id="flowRegion5302"><rect
           id="rect5304"
           width="257.38687"
           height="155.56349"
           x="-345.06812"
           y="500.81891" /></flowRegion><flowPara
         id="flowPara5306">56</flowPara></flowRoot>    <flowRoot
       xml:space="preserve"
       id="flowRoot5308"
       style="font-style:normal;font-variant:normal;font-weight:normal;font-stretch:normal;font-size:72px;line-height:125%;font-family:'Helvetica LT';-inkscape-font-specification:'Helvetica LT';letter-spacing:2px;word-spacing:0px;fill:#000000;fill-opacity:1;stroke:none;stroke-width:1px;stroke-linecap:butt;stroke-linejoin:miter;stroke-opacity:1"
       transform="translate(-1912.0167,-8.4852814)"><flowRegion
         id="flowRegion5310"><rect
           id="rect5312"
           width="373.35239"
           height="217.78889"
           x="-359.21024"
           y="755.37738" /></flowRegion><flowPara
         id="flowPara5314">78</flowPara></flowRoot>    <flowRoot
       xml:space="preserve"
       id="flowRoot5316"
       style="font-style:normal;font-variant:normal;font-weight:normal;font-stretch:normal;font-size:72px;line-height:125%;font-family:'Helvetica LT';-inkscape-font-specification:'Helvetica LT';letter-spacing:2px;word-spacing:0px;fill:#000000;fill-opacity:1;stroke:none;stroke-width:1px;stroke-linecap:butt;stroke-linejoin:miter;stroke-opacity:1"
       transform="translate(-1912.0167,-8.4852814)"><flowRegion
         id="flowRegion5318"><rect
           id="rect5320"
           width="217.78889"
           height="195.16147"
           x="834.38599"
           y="308.48587" /></flowRegion><flowPara
         id="flowPara5322">9</flowPara></flowRoot>    <flowRoot
       xml:space="preserve"
       id="flowRoot5324"
       style="font-style:normal;font-variant:normal;font-weight:normal;font-stretch:normal;font-size:72px;line-height:125%;font-family:'Helvetica LT';-inkscape-font-specification:'Helvetica LT';letter-spacing:2px;word-spacing:0px;fill:#000000;fill-opacity:1;stroke:none;stroke-width:1px;stroke-linecap:butt;stroke-linejoin:miter;stroke-opacity:1"
       transform="translate(-1912.0167,-8.4852814)"><flowRegion
         id="flowRegion5326"><rect
           id="rect5328"
           width="195.16147"
           height="155.56349"
           x="879.64081"
           y="599.81384" /></flowRegion><flowPara
         id="flowPara5330">10</flowPara></flowRoot>    <flowRoot
       xml:space="preserve"
       id="flowRoot5332"
       style="font-style:normal;font-variant:normal;font-weight:normal;font-stretch:normal;font-size:72px;line-height:125%;font-family:'Helvetica LT';-inkscape-font-specification:'Helvetica LT';letter-spacing:2px;word-spacing:0px;fill:#000000;fill-opacity:1;stroke:none;stroke-width:1px;stroke-linecap:butt;stroke-linejoin:miter;stroke-opacity:1"
       transform="translate(-1768,1336)"><flowRegion
         id="flowRegion5334"><rect
           id="rect5336"
           width="254"
           height="260"
           x="-284"
           y="148.3622" /></flowRegion><flowPara
         id="flowPara5338">11 12</flowPara></flowRoot>    <flowRoot
       xml:space="preserve"
       id="flowRoot5340"
       style="font-style:normal;font-variant:normal;font-weight:normal;font-stretch:normal;font-size:72px;line-height:125%;font-family:'Helvetica LT';-inkscape-font-specification:'Helvetica LT';letter-spacing:2px;word-spacing:0px;fill:#000000;fill-opacity:1;stroke:none;stroke-width:1px;stroke-linecap:butt;stroke-linejoin:miter;stroke-opacity:1"
       transform="translate(-1768,1336)"><flowRegion
         id="flowRegion5342"><rect
           id="rect5344"
           width="296"
           height="138"
           x="-328"
           y="406.36221" /></flowRegion><flowPara
         id="flowPara5346">13 14</flowPara></flowRoot>    <flowRoot
       xml:space="preserve"
       id="flowRoot5348"
       style="font-style:normal;font-variant:normal;font-weight:normal;font-stretch:normal;font-size:72px;line-height:125%;font-family:'Helvetica LT';-inkscape-font-specification:'Helvetica LT';letter-spacing:2px;word-spacing:0px;fill:#000000;fill-opacity:1;stroke:none;stroke-width:1px;stroke-linecap:butt;stroke-linejoin:miter;stroke-opacity:1"
       transform="translate(-1673,1324)"><flowRegion
         id="flowRegion5350"><rect
           id="rect5352"
           width="192"
           height="174"
           x="-244"
           y="576.36218" /></flowRegion><flowPara
         id="flowPara5354">1 2</flowPara></flowRoot>    <flowRoot
       xml:space="preserve"
       id="flowRoot5356"
       style="font-style:normal;font-variant:normal;font-weight:normal;font-stretch:normal;font-size:72px;line-height:125%;font-family:'Helvetica LT';-inkscape-font-specification:'Helvetica LT';letter-spacing:2px;word-spacing:0px;fill:#000000;fill-opacity:1;stroke:none;stroke-width:1px;stroke-linecap:butt;stroke-linejoin:miter;stroke-opacity:1"
       transform="translate(-1541,1191)"><flowRegion
         id="flowRegion5358"><rect
           id="rect5360"
           width="308"
           height="158"
           x="-362"
           y="852.36218" /></flowRegion><flowPara
         id="flowPara5362">3 4</flowPara></flowRoot>    <flowRoot
       xml:space="preserve"
       id="flowRoot5364"
       style="font-style:normal;font-variant:normal;font-weight:normal;font-stretch:normal;font-size:72px;line-height:125%;font-family:'Helvetica LT';-inkscape-font-specification:'Helvetica LT';letter-spacing:2px;word-spacing:0px;fill:#000000;fill-opacity:1;stroke:none;stroke-width:1px;stroke-linecap:butt;stroke-linejoin:miter;stroke-opacity:1"
       transform="translate(-1790,1428)"><flowRegion
         id="flowRegion5366"><rect
           id="rect5368"
           width="240"
           height="162"
           x="898"
           y="586.36218" /></flowRegion><flowPara
         id="flowPara5370">5</flowPara></flowRoot>    <flowRoot
       xml:space="preserve"
       id="flowRoot5372"
       style="font-style:normal;font-variant:normal;font-weight:normal;font-stretch:normal;font-size:72px;line-height:125%;font-family:'Helvetica LT';-inkscape-font-specification:'Helvetica LT';letter-spacing:2px;word-spacing:0px;fill:#000000;fill-opacity:1;stroke:none;stroke-width:1px;stroke-linecap:butt;stroke-linejoin:miter;stroke-opacity:1"
       transform="translate(-1768,1336)"><flowRegion
         id="flowRegion5374"><rect
           id="rect5376"
           width="312"
           height="138"
           x="816"
           y="752.36218" /></flowRegion><flowPara
         id="flowPara5378">6    7</flowPara></flowRoot>    <flowRoot
       xml:space="preserve"
       id="flowRoot5380"
       style="font-style:normal;font-variant:normal;font-weight:normal;font-stretch:normal;font-size:72px;line-height:125%;font-family:'Helvetica LT';-inkscape-font-specification:'Helvetica LT';letter-spacing:2px;word-spacing:0px;fill:#000000;fill-opacity:1;stroke:none;stroke-width:1px;stroke-linecap:butt;stroke-linejoin:miter;stroke-opacity:1"
       transform="translate(-1708,1216)"><flowRegion
         id="flowRegion5382"><rect
           id="rect5384"
           width="184"
           height="102"
           x="826"
           y="940.36218" /></flowRegion><flowPara
         id="flowPara5386">8</flowPara></flowRoot>    <flowRoot
       xml:space="preserve"
       id="flowRoot5388"
       style="font-style:normal;font-variant:normal;font-weight:normal;font-stretch:normal;font-size:72px;line-height:125%;font-family:'Helvetica LT';-inkscape-font-specification:'Helvetica LT';letter-spacing:2px;word-spacing:0px;fill:#000000;fill-opacity:1;stroke:none;stroke-width:1px;stroke-linecap:butt;stroke-linejoin:miter;stroke-opacity:1"
       transform="translate(-1768,1336)"><flowRegion
         id="flowRegion5390"><rect
           id="rect5392"
           width="150.14214"
           height="116"
           x="-136"
           y="902.36218" /></flowRegion><flowPara
         id="flowPara5394">9</flowPara></flowRoot>    <flowRoot
       xml:space="preserve"
       id="flowRoot5398"
       style="font-style:normal;font-variant:normal;font-weight:normal;font-stretch:normal;font-size:72px;line-height:125%;font-family:'Helvetica LT';-inkscape-font-specification:'Helvetica LT';letter-spacing:2px;word-spacing:0px;fill:#000000;fill-opacity:1;stroke:none;stroke-width:1px;stroke-linecap:butt;stroke-linejoin:miter;stroke-opacity:1"
       transform="translate(-1768,1336)"><flowRegion
         id="flowRegion5400"><rect
           id="rect5402"
           width="325.2691"
           height="152.73506"
           x="791.95959"
           y="226.46149" /></flowRegion><flowPara
         id="flowPara5404">10</flowPara></flowRoot>    <flowRoot
       xml:space="preserve"
       id="flowRoot5406"
       style="font-style:normal;font-variant:normal;font-weight:normal;font-stretch:normal;font-size:72px;line-height:125%;font-family:'Helvetica LT';-inkscape-font-specification:'Helvetica LT';letter-spacing:2px;word-spacing:0px;fill:#000000;fill-opacity:1;stroke:none;stroke-width:1px;stroke-linecap:butt;stroke-linejoin:miter;stroke-opacity:1"
       transform="translate(-1768,1336)"><flowRegion
         id="flowRegion5408"><rect
           id="rect5410"
           width="231.93103"
           height="152.73506"
           x="772.16058"
           y="384.85339" /></flowRegion><flowPara
         id="flowPara5412">11</flowPara></flowRoot>    <path
       style="fill:none;fill-rule:evenodd;stroke:#000000;stroke-width:1px;stroke-linecap:butt;stroke-linejoin:miter;stroke-opacity:1"
       d="m -1746.2565,1654.2086 0.1768,18.208"
       id="path5414"
       inkscape:connector-curvature="0" />
    <path
       style="fill:none;fill-rule:evenodd;stroke:#000000;stroke-width:1px;stroke-linecap:butt;stroke-linejoin:miter;stroke-opacity:1"
       d="m -1311.75,1653.6122 -0.25,19.875"
       id="path5416"
       inkscape:connector-curvature="0" />
    <path
       style="fill:none;fill-rule:evenodd;stroke:#000000;stroke-width:1px;stroke-linecap:butt;stroke-linejoin:miter;stroke-opacity:1"
       d="m -1716.25,1843.6122 0.25,17"
       id="path5418"
       inkscape:connector-curvature="0" />
    <path
       style="fill:none;fill-rule:evenodd;stroke:#000000;stroke-width:1px;stroke-linecap:butt;stroke-linejoin:miter;stroke-opacity:1"
       d="m -1282.3944,1844.4203 0.3535,13.2583"
       id="path5422"
       inkscape:connector-curvature="0" />
    <path
       style="fill:none;fill-rule:evenodd;stroke:#000000;stroke-width:1px;stroke-linecap:butt;stroke-linejoin:miter;stroke-opacity:1"
       d="m -1455.8124,1950.3095 0.7072,19.0919"
       id="path5424"
       inkscape:connector-curvature="0" />
    <path
       style="fill:none;fill-rule:evenodd;stroke:#000000;stroke-width:1px;stroke-linecap:butt;stroke-linejoin:miter;stroke-opacity:1"
       d="m -1742.875,1952.3622 0.5,17"
       id="path5426"
       inkscape:connector-curvature="0" />
    <path
       style="fill:none;fill-rule:evenodd;stroke:#000000;stroke-width:1px;stroke-linecap:butt;stroke-linejoin:miter;stroke-opacity:1"
       d="m -1456.1659,2044.7083 0.7071,114.5513"
       id="path5428"
       inkscape:connector-curvature="0" />
    <path
       style="fill:none;fill-rule:evenodd;stroke:#000000;stroke-width:1px;stroke-linecap:butt;stroke-linejoin:miter;stroke-opacity:1"
       d="m -1743.2513,2046.1225 1.0607,112.43"
       id="path5430"
       inkscape:connector-curvature="0" />
    <path
       style="fill:none;fill-rule:evenodd;stroke:#000000;stroke-width:1px;stroke-linecap:butt;stroke-linejoin:miter;stroke-opacity:1"
       d="m -1392.5263,1986.4604 16.8822,9.3691"
       id="path5434"
       inkscape:connector-curvature="0" />
    <path
       style="fill:none;fill-rule:evenodd;stroke:#000000;stroke-width:1px;stroke-linecap:butt;stroke-linejoin:miter;stroke-opacity:1"
       d="m -1079.1896,2002.0167 -9.9879,-6.6291"
       id="path5436"
       inkscape:connector-curvature="0" />
    <path
       style="fill:none;fill-rule:evenodd;stroke:#000000;stroke-width:1px;stroke-linecap:butt;stroke-linejoin:miter;stroke-opacity:1"
       d="m -1077.5,2287.9872 6.875,30.125"
       id="path5438"
       inkscape:connector-curvature="0" />
    <path
       style="fill:none;fill-rule:evenodd;stroke:#000000;stroke-width:1px;stroke-linecap:butt;stroke-linejoin:miter;stroke-opacity:1"
       d="m -1357,2321.1122 -34.5,-47.75"
       id="path5440"
       inkscape:connector-curvature="0" />
    <flowRoot
       xml:space="preserve"
       id="flowRoot3460"
       style="font-style:normal;font-variant:normal;font-weight:normal;font-stretch:normal;font-size:72px;line-height:125%;font-family:'Helvetica LT';-inkscape-font-specification:'Helvetica LT';letter-spacing:2px;word-spacing:0px;fill:#000000;fill-opacity:1;stroke:none;stroke-width:1px;stroke-linecap:butt;stroke-linejoin:miter;stroke-opacity:1"
       transform="translate(148,370)"><flowRegion
         id="flowRegion3462"><rect
           id="rect3464"
           width="252"
           height="168"
           x="-372"
           y="188.36221" /></flowRegion><flowPara
         id="flowPara3466">12</flowPara></flowRoot>    <flowRoot
       xml:space="preserve"
       id="flowRoot3468"
       style="font-style:normal;font-variant:normal;font-weight:normal;font-stretch:normal;font-size:72px;line-height:125%;font-family:'Helvetica LT';-inkscape-font-specification:'Helvetica LT';letter-spacing:2px;word-spacing:0px;fill:#000000;fill-opacity:1;stroke:none;stroke-width:1px;stroke-linecap:butt;stroke-linejoin:miter;stroke-opacity:1"
       transform="translate(148,370)"><flowRegion
         id="flowRegion3470"><rect
           id="rect3472"
           width="212"
           height="128"
           x="-468"
           y="308.36221" /></flowRegion><flowPara
         id="flowPara3474">13  14</flowPara></flowRoot>    <flowRoot
       xml:space="preserve"
       id="flowRoot3476"
       style="font-style:normal;font-variant:normal;font-weight:normal;font-stretch:normal;font-size:72px;line-height:125%;font-family:'Helvetica LT';-inkscape-font-specification:'Helvetica LT';letter-spacing:2px;word-spacing:0px;fill:#000000;fill-opacity:1;stroke:none;stroke-width:1px;stroke-linecap:butt;stroke-linejoin:miter;stroke-opacity:1"
       transform="translate(148,370)"><flowRegion
         id="flowRegion3478"><rect
           id="rect3480"
           width="224"
           height="124"
           x="-432"
           y="452.36221" /></flowRegion><flowPara
         id="flowPara3482">15</flowPara></flowRoot>    <flowRoot
       xml:space="preserve"
       id="flowRoot3484"
       style="font-style:normal;font-variant:normal;font-weight:normal;font-stretch:normal;font-size:72px;line-height:125%;font-family:'Helvetica LT';-inkscape-font-specification:'Helvetica LT';letter-spacing:2px;word-spacing:0px;fill:#000000;fill-opacity:1;stroke:none;stroke-width:1px;stroke-linecap:butt;stroke-linejoin:miter;stroke-opacity:1"
       transform="translate(1198,6)"><flowRegion
         id="flowRegion3486"><rect
           id="rect3488"
           width="140"
           height="102"
           x="-304"
           y="562.36218" /></flowRegion><flowPara
         id="flowPara3490">16</flowPara></flowRoot>    <flowRoot
       xml:space="preserve"
       id="flowRoot3492"
       style="font-style:normal;font-variant:normal;font-weight:normal;font-stretch:normal;font-size:72px;line-height:125%;font-family:'Helvetica LT';-inkscape-font-specification:'Helvetica LT';letter-spacing:2px;word-spacing:0px;fill:#000000;fill-opacity:1;stroke:none;stroke-width:1px;stroke-linecap:butt;stroke-linejoin:miter;stroke-opacity:1"
       transform="translate(1198,6)"><flowRegion
         id="flowRegion3494"><rect
           id="rect3496"
           width="152"
           height="120"
           x="-400"
           y="666.36218" /></flowRegion><flowPara
         id="flowPara3498">17</flowPara></flowRoot>    <flowRoot
       xml:space="preserve"
       id="flowRoot3500"
       style="font-style:normal;font-variant:normal;font-weight:normal;font-stretch:normal;font-size:72px;line-height:125%;font-family:'Helvetica LT';-inkscape-font-specification:'Helvetica LT';letter-spacing:2px;word-spacing:0px;fill:#000000;fill-opacity:1;stroke:none;stroke-width:1px;stroke-linecap:butt;stroke-linejoin:miter;stroke-opacity:1"
       transform="translate(1198,6)"><flowRegion
         id="flowRegion3502"><rect
           id="rect3504"
           width="132"
           height="110"
           x="-190"
           y="672.36218" /></flowRegion><flowPara
         id="flowPara3506">18</flowPara></flowRoot>    <flowRoot
       xml:space="preserve"
       id="flowRoot3508"
       style="font-style:normal;font-variant:normal;font-weight:normal;font-stretch:normal;font-size:72px;line-height:125%;font-family:'Helvetica LT';-inkscape-font-specification:'Helvetica LT';letter-spacing:2px;word-spacing:0px;fill:#000000;fill-opacity:1;stroke:none;stroke-width:1px;stroke-linecap:butt;stroke-linejoin:miter;stroke-opacity:1"
       transform="translate(1198,6)"><flowRegion
         id="flowRegion3510"><rect
           id="rect3512"
           width="220"
           height="116"
           x="-340"
           y="816.36218" /></flowRegion><flowPara
         id="flowPara3514">19</flowPara></flowRoot>    <flowRoot
       xml:space="preserve"
       id="flowRoot3516"
       style="font-style:normal;font-variant:normal;font-weight:normal;font-stretch:normal;font-size:72px;line-height:125%;font-family:'Helvetica LT';-inkscape-font-specification:'Helvetica LT';letter-spacing:2px;word-spacing:0px;fill:#000000;fill-opacity:1;stroke:none;stroke-width:1px;stroke-linecap:butt;stroke-linejoin:miter;stroke-opacity:1"><flowRegion
         id="flowRegion3518"><rect
           id="rect3520"
           width="230"
           height="104"
           x="796"
           y="982.36218" /></flowRegion><flowPara
         id="flowPara3522">21</flowPara></flowRoot>    <flowRoot
       xml:space="preserve"
       id="flowRoot3524"
       style="font-style:normal;font-variant:normal;font-weight:normal;font-stretch:normal;font-size:72px;line-height:125%;font-family:'Helvetica LT';-inkscape-font-specification:'Helvetica LT';letter-spacing:2px;word-spacing:0px;fill:#000000;fill-opacity:1;stroke:none;stroke-width:1px;stroke-linecap:butt;stroke-linejoin:miter;stroke-opacity:1"><flowRegion
         id="flowRegion3526"><rect
           id="rect3528"
           width="256.14215"
           height="154"
           x="-242"
           y="960.36218" /></flowRegion><flowPara
         id="flowPara3530">20</flowPara></flowRoot>  </g>
</svg>
