<?xml version="1.0" encoding="UTF-8" standalone="no"?>
<!-- Created with Inkscape (http://www.inkscape.org/) -->

<svg
   xmlns:dc="http://purl.org/dc/elements/1.1/"
   xmlns:cc="http://creativecommons.org/ns#"
   xmlns:rdf="http://www.w3.org/1999/02/22-rdf-syntax-ns#"
   xmlns:svg="http://www.w3.org/2000/svg"
   xmlns="http://www.w3.org/2000/svg"
   xmlns:sodipodi="http://sodipodi.sourceforge.net/DTD/sodipodi-0.dtd"
   xmlns:inkscape="http://www.inkscape.org/namespaces/inkscape"
   width="210mm"
   height="297mm"
   viewBox="0 0 744.09448819 1052.3622047"
   id="svg7323"
   version="1.1"
   inkscape:version="0.91 r"
   sodipodi:docname="v2-p3.svg">
  <defs
     id="defs7325" />
  <sodipodi:namedview
     id="base"
     pagecolor="#ffffff"
     bordercolor="#666666"
     borderopacity="1.0"
     inkscape:pageopacity="0.0"
     inkscape:pageshadow="2"
     inkscape:zoom="0.49497475"
     inkscape:cx="421.28368"
     inkscape:cy="507.98217"
     inkscape:document-units="px"
     inkscape:current-layer="layer1"
     showgrid="false"
     inkscape:window-width="1920"
     inkscape:window-height="1031"
     inkscape:window-x="0"
     inkscape:window-y="0"
     inkscape:window-maximized="1" />
  <metadata
     id="metadata7328">
    <rdf:RDF>
      <cc:Work
         rdf:about="">
        <dc:format>image/svg+xml</dc:format>
        <dc:type
           rdf:resource="http://purl.org/dc/dcmitype/StillImage" />
        <dc:title></dc:title>
      </cc:Work>
    </rdf:RDF>
  </metadata>
  <g
     inkscape:label="Layer 1"
     inkscape:groupmode="layer"
     id="layer1">
    <path
       style="display:inline;opacity:0.98999999;fill:#ececec;fill-opacity:0.99215686;stroke:#808080;stroke-width:6;stroke-linecap:butt;stroke-miterlimit:4;stroke-dasharray:none;stroke-dashoffset:0"
       d="m 346.38981,903.68891 c 0,-0.2453 -0.0131,-0.4878 -0.0371,-0.7266 -0.048,-0.4776 -0.14365,-0.9405 -0.28125,-1.3848 -0.4817,-1.5552 -1.48168,-2.8779 -2.80078,-3.76761 -0.3769,-0.2542 -0.78088,-0.4735 -1.20508,-0.6523 -0.4242,-0.1788 -0.86993,-0.318 -1.33203,-0.4121 -0.4622,-0.094 -0.94084,-0.1426 -1.43164,-0.1426 l -9.03512,0 -2.05273,0 -4.0879,4.05671 0,19.8808 -2.00585,0 0,-19.8808 -4.18555,-4.05671 -244.183625,0 -4.08008,4.04691 0,19.8809 -2.00781,0 0,-19.8809 -4.17383,-4.04691 -1.95117,0 -10.48437,0 c -3.92605,0 -7.08595,3.16011 -7.08595,7.08601 l 0,53.0019 0,78.72459 c 0,3.926 3.1599,7.086 7.08595,7.086 l 11.94531,0 4.6875,-6.336 0,-11 2,0 0,11 4.79492,6.336 10.68164,0 c 3.926,0 7.08789,-3.16 7.08789,-7.086 l 0,-71.63869 38.296875,0 0,-13.7636 127.08789,-0.166 0.0644,13.9296 41.12695,0 0,71.63869 c 0,3.926 3.15994,7.086 7.08594,7.086 l 11.42383,0 4.6875,-6.336 0,-11 2,0 0,11 4.79492,6.336 10.48242,0 c 3.926,0 7.08789,-3.16 7.08789,-7.086 l 0,-78.72459 0,-53.0019 z"
       id="rect4256-7-1-4"
       inkscape:connector-curvature="0"
       sodipodi:nodetypes="csccscsccccccccccccccsscssccccccssccccccssccccccssccc" />
    <g
       transform="matrix(0,1,-1,0,1036.7006,-878.00252)"
       style="display:inline"
       id="g7679">
      <path
         inkscape:connector-curvature="0"
         id="rect4285-9-4"
         d="m 1780.9941,366.13477 c -3.926,0 -7.0879,3.16191 -7.0879,7.08789 l 0,10.96679 4.2696,4.31446 20.5508,0 0,2.07812 -20.5508,0 -4.2696,4.41211 0,243.46484 4.3497,4.39454 20.5507,0 0,2.07812 -20.5507,0 -4.3497,4.49609 0,11.12891 c 0,3.92598 3.1619,7.08789 7.0879,7.08789 l 132.1211,0 c 3.926,0 7.086,-3.16191 7.086,-7.08789 l 0,-11.02344 -6.25,-4.625 -11,0 0,-2 11,0 6.25,-4.73047 0,-242.89453 -6.4278,-4.75586 -11,0 0,-2 11,0 6.4278,-4.86718 0,-10.4375 c 0,-3.92598 -3.16,-7.08789 -7.086,-7.08789 l -132.1211,0 z"
         style="display:inline;opacity:0.98999999;fill:#ececec;fill-opacity:0.99215686;stroke:#808080;stroke-width:6;stroke-linecap:butt;stroke-miterlimit:4;stroke-dasharray:none;stroke-dashoffset:0" />
      <rect
         ry="3.5433071"
         rx="3.5433071"
         y="474.00479"
         x="1827.3948"
         height="99.212601"
         width="13.960439"
         id="rect4160"
         style="opacity:0.98999999;fill:#333333;fill-opacity:0.99215686;stroke:#333333;stroke-width:2.78956103;stroke-linecap:butt;stroke-miterlimit:4;stroke-dasharray:none;stroke-dashoffset:0" />
      <circle
         r="18.127846"
         cy="442.61221"
         cx="1855.5"
         id="path4164-9"
         style="display:inline;opacity:0.98999999;fill:#333333;fill-opacity:0.99215686;stroke:#333333;stroke-width:2.75067878;stroke-linecap:butt;stroke-miterlimit:4;stroke-dasharray:none;stroke-dashoffset:0" />
    </g>
  </g>
</svg>
