<?xml version="1.0" encoding="UTF-8" standalone="no"?>
<!-- Created with Inkscape (http://www.inkscape.org/) -->

<svg
   xmlns:dc="http://purl.org/dc/elements/1.1/"
   xmlns:cc="http://creativecommons.org/ns#"
   xmlns:rdf="http://www.w3.org/1999/02/22-rdf-syntax-ns#"
   xmlns:svg="http://www.w3.org/2000/svg"
   xmlns="http://www.w3.org/2000/svg"
   xmlns:sodipodi="http://sodipodi.sourceforge.net/DTD/sodipodi-0.dtd"
   xmlns:inkscape="http://www.inkscape.org/namespaces/inkscape"
   width="210mm"
   height="297mm"
   viewBox="0 0 744.09448819 1052.3622047"
   id="svg7323"
   version="1.1"
   inkscape:version="0.91 r"
   sodipodi:docname="v2-p2.svg">
  <defs
     id="defs7325" />
  <sodipodi:namedview
     id="base"
     pagecolor="#ffffff"
     bordercolor="#666666"
     borderopacity="1.0"
     inkscape:pageopacity="0.0"
     inkscape:pageshadow="2"
     inkscape:zoom="0.49497475"
     inkscape:cx="421.28368"
     inkscape:cy="507.98217"
     inkscape:document-units="px"
     inkscape:current-layer="layer1"
     showgrid="false"
     inkscape:window-width="1920"
     inkscape:window-height="1031"
     inkscape:window-x="0"
     inkscape:window-y="0"
     inkscape:window-maximized="1" />
  <metadata
     id="metadata7328">
    <rdf:RDF>
      <cc:Work
         rdf:about="">
        <dc:format>image/svg+xml</dc:format>
        <dc:type
           rdf:resource="http://purl.org/dc/dcmitype/StillImage" />
        <dc:title></dc:title>
      </cc:Work>
    </rdf:RDF>
  </metadata>
  <g
     inkscape:label="Layer 1"
     inkscape:groupmode="layer"
     id="layer1">
    <path
       inkscape:connector-curvature="0"
       style="display:inline;opacity:0.98999999;fill:#ececec;fill-opacity:0.99215686;stroke:#808080;stroke-width:6;stroke-linecap:butt;stroke-miterlimit:4;stroke-dasharray:none;stroke-dashoffset:0"
       d="m 73.996094,728.76971 c -0.24537,0 -0.48775,0.0131 -0.72656,0.0371 -0.47761,0.048 -0.94044,0.14355 -1.38476,0.28125 -1.55521,0.4817 -2.87788,1.48168 -3.76758,2.80078 -0.25421,0.3769 -0.47352,0.78088 -0.65235,1.20508 -0.17882,0.4242 -0.31802,0.86983 -0.41211,1.33203 -0.0941,0.4622 -0.14257,0.94094 -0.14257,1.43164 l 0,9.29688 0,2.05078 4.05664,4.08984 19.88086,0 0,2.00586 -19.88086,0 -4.05664,4.18555 0,117 4.02734,4.0625 19.88086,0 0,2.00781 -19.88086,0 -4.02734,4.1543 0,116.89459 4.04687,4.0819 19.88086,0 0,2.0059 -19.88086,0 -4.04687,4.1758 0,1.9511 0,9.334 c 0,3.926 3.15995,7.086 7.08593,7.086 l 53.001956,0 79.00586,0 c 3.92598,0 7.08593,-3.16 7.08593,-7.086 l 0,-10.8633 -6.34375,-4.6933 -11,0 0,-2 11,0 6.34375,-4.8007 0,-10.79885 c 0,-3.926 -3.15995,-7.0879 -7.08593,-7.0879 l -71.91993,0 0,-206.57619 71.91993,0 c 3.92598,0 7.08593,-3.15994 7.08593,-7.08594 l 0,-11.20899 -6.5332,-4.83398 -11,0 0,-2 11,0 6.5332,-4.94531 0,-10.40235 c 0,-3.9259 -3.15995,-7.08789 -7.08593,-7.08789 l -79.00586,0 -53.001956,0 z"
       id="rect4256-7-3" />
    <path
       inkscape:connector-curvature="0"
       style="display:inline;opacity:0.98999999;fill:#ececec;fill-opacity:0.99215686;stroke:#808080;stroke-width:6;stroke-linecap:butt;stroke-miterlimit:4;stroke-dasharray:none;stroke-dashoffset:0"
       d="m 241.13896,727.34212 c -0.24537,0 -0.48776,0.0131 -0.72657,0.0371 -0.47761,0.048 -0.94044,0.14355 -1.38476,0.28125 -1.55521,0.4817 -2.87788,1.48168 -3.76758,2.80078 -0.25421,0.3769 -0.47351,0.78088 -0.65234,1.20508 -0.17882,0.4242 -0.31802,0.86983 -0.41211,1.33203 -0.0941,0.4622 -0.14258,0.94094 -0.14258,1.43164 l 0,9.13867 0,2.05078 4.05664,4.08985 19.88086,0 0,2.00586 -19.88086,0 -4.05664,4.18554 0,117.15625 4.02734,4.0625 19.88086,0 0,2.00781 -19.88086,0 -4.02734,4.1543 0,116.89644 4.04687,4.0821 19.88086,0 0,2.0058 -19.88086,0 -4.04687,4.1758 0,1.9512 0,9.332 c 0,3.926 3.15996,7.086 7.08594,7.086 l 53.00195,0 79.00586,0 c 3.92598,0 7.08594,-3.16 7.08594,-7.086 l 0,-10.8613 -6.28711,-4.6504 -11,0 0,-2 11,0 6.28711,-4.7598 0,-10.88469 c 0,-3.926 -3.15996,-7.0879 -7.08594,-7.0879 l -71.91992,0 0,-206.5762 c -0.0811,-2.54723 3.79471,-2.9209 4.20898,-7.08594 l 0,-33.38867 c 0,-3.9259 -3.15996,-7.08789 -7.08594,-7.08789 l -4.20898,0 -53.00195,0 z"
       id="rect4256-7-3-3" />
    <path
       style="display:inline;opacity:0.98999999;fill:#ececec;fill-opacity:0.99215686;stroke:#808080;stroke-width:6;stroke-linecap:butt;stroke-miterlimit:4;stroke-dasharray:none;stroke-dashoffset:0"
       d="m 490.08552,728.77022 c -0.24537,0 -0.48775,0.013 -0.72656,0.037 -0.47761,0.048 -0.94045,0.1435 -1.38477,0.2812 -1.55521,0.4817 -2.87787,1.4817 -3.76757,2.8008 -0.25421,0.3769 -0.47352,0.7809 -0.65235,1.2051 -0.17882,0.4242 -0.31802,0.8698 -0.41211,1.332 -0.0941,0.4622 -0.14258,0.9409 -0.14258,1.4316 l 0,9.30161 0,2.0508 4.05664,4.0898 19.88086,0 0,2.0059 -19.88086,0 -4.05664,4.1855 0,116.99469 4.02735,4.0625 19.88086,0 0,2.0078 -19.88086,0 -4.02735,4.1543 0,116.94728 4.04688,4.0821 19.88086,0 0,2.0058 -19.88086,0 -4.04688,4.1758 0,1.9512 0,9.2813 c 0,3.926 3.15996,7.0859 7.08594,7.0859 l 53.00195,0 18.25558,0 c 3.92598,0 7.08593,-3.1599 7.08593,-7.0859 l 0,-33.15634 c 0,-3.92604 -3.15995,-7.08794 -7.08593,-7.08794 l -11.16964,0 0,-206.5762 c -0.0811,-2.54723 3.7958,-2.92086 4.21007,-7.0859 l 0,-33.39 c 0,-3.9259 -3.15995,-7.0879 -7.08593,-7.0879 l -4.21008,0 z"
       id="rect4256-7-3-3-7"
       inkscape:connector-curvature="0"
       sodipodi:nodetypes="ssccccsccccccccccccccccccccsscsssscccsscs" />
    <path
       style="display:inline;opacity:0.98999999;fill:#ececec;fill-opacity:0.99215686;stroke:#808080;stroke-width:6;stroke-linecap:butt;stroke-miterlimit:4;stroke-dasharray:none;stroke-dashoffset:0"
       d="m 592.94267,727.34164 c -0.24537,0 -0.48775,0.013 -0.72656,0.037 -0.47761,0.048 -0.94045,0.1435 -1.38477,0.2812 -1.55521,0.4817 -2.87787,1.4817 -3.76757,2.8008 -0.25421,0.3769 -0.47352,0.7809 -0.65235,1.2051 -0.17882,0.4242 -0.31802,0.8698 -0.41211,1.332 -0.0941,0.4622 -0.14258,0.9409 -0.14258,1.4316 l 0,9.30161 0,2.0508 4.05664,4.0898 19.88086,0 0,2.0059 -19.88086,0 -4.05664,4.1855 0,116.99469 4.02735,4.0625 19.88086,0 0,2.0078 -19.88086,0 -4.02735,4.1543 0,116.94726 4.04688,4.0821 19.88086,0 0,2.0058 -19.88086,0 -4.04688,4.1758 0,1.9512 0,9.2813 c 0,3.926 3.15996,7.0859 7.08594,7.0859 l 53.00195,0 18.25558,0 c 3.92598,0 7.08593,-3.1599 7.08593,-7.0859 l 0,-33.15631 c 0,-3.92605 -3.15995,-7.08795 -7.08593,-7.08795 l -11.16964,0 0,-206.5762 c -0.0811,-2.54723 3.7958,-2.92086 4.21007,-7.0859 l 0,-33.39 c 0,-3.9259 -3.15995,-7.0879 -7.08593,-7.0879 l -4.21008,0 z"
       id="rect4256-7-3-3-7-0"
       inkscape:connector-curvature="0"
       sodipodi:nodetypes="ssccccsccccccccccccccccccccsscsssscccsscs" />
    <path
       inkscape:connector-curvature="0"
       style="display:inline;opacity:0.98999999;fill:#ececec;fill-opacity:0.99215686;stroke:#808080;stroke-width:6;stroke-linecap:butt;stroke-miterlimit:4;stroke-dasharray:none;stroke-dashoffset:0"
       d="m 457.43247,1028.8115 c 0.2454,0 0.4878,-0.013 0.7266,-0.037 0.4776,-0.048 0.9404,-0.1436 1.3847,-0.2813 1.5552,-0.4817 2.8779,-1.4816 3.7676,-2.8007 0.2542,-0.3769 0.4735,-0.7809 0.6524,-1.2051 0.1788,-0.4242 0.318,-0.8698 0.4121,-1.332 0.094,-0.4622 0.1425,-0.941 0.1425,-1.4317 l 0,-9.2129 0,-2.0508 -4.0566,-4.0898 -19.8809,0 0,-2.0059 19.8809,0 4.0566,-4.1855 0,-117.08396 -4.0273,-4.0625 -19.8809,0 0,-2.0079 19.8809,0 4.0273,-4.1543 0,-116.8944 -4.0468,-4.082 -19.8809,0 0,-2.0059 19.8809,0 4.0468,-4.1758 0,-1.9511 0,-9.334 c 0,-3.926 -3.1599,-7.0859 -7.0859,-7.0859 l -53.002,0 -79.0058,0 c -3.926,0 -7.0859,3.1599 -7.0859,7.0859 l 0,10.8437 6.3476,4.6954 11,0 0,2 -11,0 -6.3476,4.8066 0,10.8104 c 0,3.926 3.1599,7.0879 7.0859,7.0879 l 71.9199,0 0,206.5763 c 0.081,2.5472 -3.7967,2.9209 -4.2109,7.0859 l 0,33.39056 c 0,3.9259 3.1599,7.0879 7.0859,7.0879 l 4.2109,0 53.002,0 z"
       id="rect4256-7-3-3-2" />
    <path
       inkscape:connector-curvature="0"
       style="display:inline;opacity:0.98999999;fill:#ececec;fill-opacity:0.99215686;stroke:#808080;stroke-width:6;stroke-linecap:butt;stroke-miterlimit:4;stroke-dasharray:none;stroke-dashoffset:0"
       d="m 45.424681,411.62687 c -0.24537,0 -0.48775,0.0131 -0.72656,0.0371 -0.47761,0.048 -0.94045,0.14355 -1.38477,0.28125 -1.55521,0.4817 -2.87789,1.48168 -3.76757,2.80078 -0.25421,0.3769 -0.47352,0.78088 -0.65235,1.20508 -0.17882,0.4242 -0.31802,0.86983 -0.41211,1.33203 -0.0941,0.4622 -0.14258,0.94094 -0.14258,1.43164 l 0,9.01562 0,2.05079 4.05664,4.08984 19.88086,0 0,2.00586 -19.88086,0 -4.05664,4.18555 0,117.28125 4.02735,4.0625 19.88086,0 0,2.00781 -19.88086,0 -4.02735,4.1543 0,116.57226 4.04688,4.08203 19.88086,0 0,2.00586 -19.88086,0 -4.04688,4.17578 0,1.95117 0,9.65626 c 0,3.926 3.15996,7.08593 7.08594,7.08593 l 53.00195,0 79.005869,0 c 3.926,0 7.0859,-3.15993 7.0859,-7.08593 l 0,-11.16016 -6.3047,-4.66797 -11,0 0,-2 11,0 6.3047,-4.77148 0,-10.55665 c 0,-3.926 -3.1599,-7.08789 -7.0859,-7.08789 l -71.91993,0 0,-206.57617 71.91993,0 c 3.926,0 7.0859,-3.15994 7.0859,-7.08594 l 0,-11.55078 -6.457,-4.77734 -11,0 0,-2 11,0 6.457,-4.88672 0,-10.17578 c 0,-3.9259 -3.1599,-7.08789 -7.0859,-7.08789 l -79.005869,0 -53.00195,0 z"
       id="rect4256-7-2" />
    <path
       inkscape:connector-curvature="0"
       style="display:inline;opacity:0.98999999;fill:#ececec;fill-opacity:0.99215686;stroke:#808080;stroke-width:6;stroke-linecap:butt;stroke-miterlimit:4;stroke-dasharray:none;stroke-dashoffset:0"
       d="m 257.43244,648.81183 c 0.24537,0 0.48775,-0.0131 0.72656,-0.0371 0.47761,-0.048 0.94045,-0.14355 1.38477,-0.28125 1.55521,-0.4817 2.8779,-1.48169 3.76758,-2.80078 0.2542,-0.37689 0.47352,-0.78089 0.65234,-1.20508 0.17883,-0.4242 0.31803,-0.86984 0.41212,-1.33202 0.0941,-0.4622 0.14258,-0.94095 0.14258,-1.43165 l 0,-9.01562 0,-2.0508 -4.05664,-4.08983 -19.88086,0 0,-2.00585 19.88086,0 4.05664,-4.18555 0,-117.28125 -4.02736,-4.0625 -19.88086,0 0,-2.00781 19.88086,0 4.02735,-4.1543 0,-116.57226 -4.04687,-4.08203 -19.88086,0 0,-2.00586 19.88086,0 4.04687,-4.17578 0,-1.95118 0,-9.65625 c 0,-3.92601 -3.15996,-7.08593 -7.08593,-7.08593 l -53.00196,0 -79.00585,0 c -3.92601,0 -7.08591,3.15993 -7.08591,7.08593 l 0,11.16016 6.30471,4.66796 11,0 0,2 -11,0 -6.30471,4.77148 0,10.55665 c 0,3.92601 3.1599,7.08789 7.08591,7.08789 l 71.91991,0 0,206.57616 -71.91991,0 c -3.92601,0 -7.08591,3.15994 -7.08591,7.08594 l 0,11.55078 6.457,4.77734 11,0 0,2 -11,0 -6.457,4.88672 0,10.17578 c 0,3.9259 3.1599,7.08789 7.08591,7.08789 l 79.00585,0 53.00196,0 z"
       id="rect4256-7-2-9" />
    <path
       inkscape:connector-curvature="0"
       style="display:inline;opacity:0.98999999;fill:#ececec;fill-opacity:0.99215686;stroke:#808080;stroke-width:6;stroke-linecap:butt;stroke-miterlimit:4;stroke-dasharray:none;stroke-dashoffset:0"
       d="m 286.85325,397.34116 c -0.24537,0 -0.48775,0.0131 -0.72656,0.0371 -0.47761,0.048 -0.94045,0.14355 -1.38477,0.28125 -1.55521,0.4817 -2.87789,1.48168 -3.76757,2.80078 -0.25421,0.3769 -0.47352,0.78088 -0.65235,1.20508 -0.17882,0.4242 -0.31802,0.86983 -0.41211,1.33203 -0.0941,0.4622 -0.14258,0.94094 -0.14258,1.43164 l 0,9.01562 0,2.05079 4.05664,4.08984 19.88086,0 0,2.00586 -19.88086,0 -4.05664,4.18555 0,117.28125 4.02735,4.0625 19.88086,0 0,2.00781 -19.88086,0 -4.02735,4.1543 0,116.57226 4.04688,4.08203 19.88086,0 0,2.00586 -19.88086,0 -4.04688,4.17578 0,1.95117 0,9.65626 c 0,3.926 3.15996,7.08593 7.08594,7.08593 l 53.00195,0 79.00587,0 c 3.926,0 7.0859,-3.15993 7.0859,-7.08593 l 0,-11.16016 -6.3047,-4.66797 -11,0 0,-2 11,0 6.3047,-4.77148 0,-10.55665 c 0,-3.926 -3.1599,-7.08789 -7.0859,-7.08789 l -71.91993,0 0,-206.57617 71.91993,0 c 3.926,0 7.0859,-3.15994 7.0859,-7.08594 l 0,-11.55078 -6.457,-4.77734 -11,0 0,-2 11,0 6.457,-4.88672 0,-10.17578 c 0,-3.9259 -3.1599,-7.08789 -7.0859,-7.08789 l -79.00587,0 -53.00195,0 z"
       id="rect4256-7-2-1" />
    <path
       inkscape:connector-curvature="0"
       style="display:inline;opacity:0.98999999;fill:#ececec;fill-opacity:0.99215686;stroke:#808080;stroke-width:6;stroke-linecap:butt;stroke-miterlimit:4;stroke-dasharray:none;stroke-dashoffset:0"
       d="m 500.14895,635.00269 c 0.2453,0 0.4878,-0.0131 0.7266,-0.0371 0.4776,-0.048 0.9404,-0.14365 1.3847,-0.28125 1.5552,-0.4817 2.8779,-1.48168 3.7676,-2.80078 0.2542,-0.3769 0.4736,-0.78088 0.6524,-1.20508 0.1788,-0.4242 0.318,-0.86993 0.4121,-1.33203 0.094,-0.4622 0.1426,-0.94084 0.1426,-1.43164 l 0,-9.26562 0,-2.05078 -4.0567,-4.08985 -19.8808,0 0,-2.00586 19.8808,0 4.0567,-4.18554 0,-117.03125 -4.0274,-4.0625 -19.8809,0 0,-2.00782 19.8809,0 4.0274,-4.15429 0,-116.94727 -4.0469,-4.08203 -19.8809,0 0,-2.00586 19.8809,0 4.0469,-4.17578 0,-1.95117 0,-10.23438 c 0,-3.926 -3.1601,-7.08594 -7.086,-7.08594 l -53.0019,0 -78.7246,0 c -3.926,0 -7.086,3.15994 -7.086,7.08594 l 0,11.72656 6.3633,4.70899 11,0 0,2 -11,0 -6.3633,4.8164 0,10.85743 c 0,3.926 3.16,7.08789 7.086,7.08789 l 71.6386,0 0,38.29687 13.7637,0 0.166,127.08985 -13.9297,0.0644 0,41.125 -71.6386,0 c -3.926,0 -7.086,3.15994 -7.086,7.08594 l 0,11.43945 6.0293,4.46094 11,0 0,2 -11,0 -6.0293,4.56445 0,10.92578 c 0,3.926 3.16,7.08789 7.086,7.08789 l 78.7246,0 53.0019,0 z"
       id="rect4256-7-1" />
    <path
       inkscape:connector-curvature="0"
       style="display:inline;opacity:0.98999999;fill:#ececec;fill-opacity:0.99215686;stroke:#808080;stroke-width:6;stroke-linecap:butt;stroke-miterlimit:4;stroke-dasharray:none;stroke-dashoffset:0"
       d="m 536.99389,402.57887 c -0.2453,0 -0.4878,0.0131 -0.7266,0.0371 -0.4776,0.048 -0.9404,0.14365 -1.3847,0.28125 -1.5552,0.4817 -2.8779,1.48168 -3.7676,2.80078 -0.2542,0.3769 -0.4736,0.78088 -0.6524,1.20508 -0.1788,0.4242 -0.318,0.86993 -0.4121,1.33203 -0.094,0.4622 -0.1426,0.94084 -0.1426,1.43164 l 0,9.26562 0,2.05078 4.0567,4.08985 19.8808,0 0,2.00586 -19.8808,0 -4.0567,4.18554 0,117.03125 4.0274,4.0625 19.8809,0 0,2.00782 -19.8809,0 -4.0274,4.15429 0,116.94727 4.0469,4.08203 19.8809,0 0,2.00586 -19.8809,0 -4.0469,4.17578 0,1.95117 0,10.23438 c 0,3.926 3.1601,7.08594 7.086,7.08594 l 53.0019,0 78.7246,0 c 3.926,0 7.086,-3.15994 7.086,-7.08594 l 0,-11.72656 -6.3633,-4.70899 -11,0 0,-2 11,0 6.3633,-4.8164 0,-10.85743 c 0,-3.926 -3.16,-7.08789 -7.086,-7.08789 l -71.6386,0 0,-38.29687 -13.7637,0 -0.166,-127.08985 13.9297,-0.0644 0,-41.125 71.6386,0 c 3.926,0 7.086,-3.15994 7.086,-7.08594 l 0,-11.43945 -6.0293,-4.46094 -11,0 0,-2 11,0 6.0293,-4.56445 0,-10.92578 c 0,-3.926 -3.16,-7.08789 -7.086,-7.08789 l -78.7246,0 -53.0019,0 z"
       id="rect4256-7-1-6" />
    <path
       inkscape:connector-curvature="0"
       style="display:inline;opacity:0.98999999;fill:#ececec;fill-opacity:0.99215686;stroke:#808080;stroke-width:6;stroke-linecap:butt;stroke-miterlimit:4;stroke-dasharray:none;stroke-dashoffset:0"
       d="m 339.78339,249.3561 c 0,-0.2453 -0.0131,-0.4878 -0.0371,-0.7266 -0.048,-0.4776 -0.14365,-0.9404 -0.28125,-1.3847 -0.4817,-1.5552 -1.48168,-2.8779 -2.80078,-3.7676 -0.3769,-0.2542 -0.78088,-0.4736 -1.20508,-0.6524 -0.4242,-0.1788 -0.86993,-0.318 -1.33203,-0.4121 -0.4622,-0.094 -0.94084,-0.1426 -1.43164,-0.1426 l -9.26562,0 -2.05078,0 -4.08985,4.0567 0,19.8808 -2.00586,0 0,-19.8808 -4.18554,-4.0567 -117.03125,0 -4.0625,4.0274 0,19.8809 -2.00782,0 0,-19.8809 -4.15429,-4.0274 -116.947271,0 -4.08203,4.0469 0,19.8809 -2.00586,0 0,-19.8809 -4.17578,-4.0469 -1.95117,0 -10.23438,0 c -3.926,0 -7.08594,3.1601 -7.08594,7.086 l 0,53.0019 0,78.7246 c 0,3.926 3.15994,7.086 7.08594,7.086 l 11.72656,0 4.70899,-6.3633 0,-11 2,0 0,11 4.8164,6.3633 10.85743,0 c 3.926,0 7.08789,-3.16 7.08789,-7.086 l 0,-71.6386 38.296871,0 0,-13.7637 127.08985,-0.166 0.0644,13.9297 41.125,0 0,71.6386 c 0,3.926 3.15994,7.086 7.08594,7.086 l 11.43945,0 4.46094,-6.0293 0,-11 2,0 0,11 4.56445,6.0293 10.92578,0 c 3.926,0 7.08789,-3.16 7.08789,-7.086 l 0,-78.7246 0,-53.0019 z"
       id="rect4256-7-1-3" />
    <path
       style="display:inline;opacity:0.98999999;fill:#ececec;fill-opacity:0.99215686;stroke:#808080;stroke-width:6;stroke-linecap:butt;stroke-miterlimit:4;stroke-dasharray:none;stroke-dashoffset:0"
       d="m 675.49662,182.2132 c 0,-0.24531 -0.0131,-0.4878 -0.0371,-0.7266 -0.048,-0.4776 -0.14365,-0.9404 -0.28125,-1.3847 -0.4817,-1.5552 -1.48168,-2.8779 -2.80078,-3.7676 -0.3769,-0.2542 -0.78088,-0.4735 -1.20508,-0.6523 -0.4242,-0.1788 -0.86993,-0.3181 -1.33203,-0.4122 -0.4622,-0.094 -0.94084,-0.1425 -1.43164,-0.1425 l -9.14063,0 -2.05078,0 -4.08984,4.0566 0,19.8809 -2.00586,0 0,-19.8809 -4.18555,-4.0566 -117.15625,0 -4.0625,4.0273 0,19.8809 -2.00782,0 0,-19.8809 -4.15429,-4.0273 -116.69726,0 -4.08204,4.0468 0,19.8809 -2.00585,0 0,-19.8809 -4.17579,-4.0468 -1.95117,0 -10.48242,0 c -3.926,0 -7.08594,3.16 -7.08594,7.0859 l 0,53.00199 0,78.7246 c 0,3.92601 3.15994,7.08591 7.08594,7.08591 l 11.9581,0 4.66992,-6.31051 0,-11 2,0 0,11 4.77734,6.31051 10.70206,0 c 3.926,0 7.08789,-3.1599 7.08789,-7.08591 l 0,-71.63869 38.29883,0 0,-13.7637 127.08789,-0.16601 0.0645,13.92971 41.125,0 0,71.63869 c 0,3.92601 3.15994,7.08591 7.08594,7.08591 l 11.50402,0 4.67188,-6.3144 0,-11 2,0 0,11 4.78125,6.3144 10.43348,0 c 3.926,0 7.08789,-3.1599 7.08789,-7.08591 l 0,-78.7246 0,-53.00199 z"
       id="rect4256-7-1-1"
       inkscape:connector-curvature="0"
       sodipodi:nodetypes="csccscsccccccccccccccccccccsscssccccccssccccccssccccccssccc" />
  </g>
</svg>
