<?xml version="1.0" encoding="UTF-8" standalone="no"?>
<!-- Created with Inkscape (http://www.inkscape.org/) -->

<svg
   xmlns:dc="http://purl.org/dc/elements/1.1/"
   xmlns:cc="http://creativecommons.org/ns#"
   xmlns:rdf="http://www.w3.org/1999/02/22-rdf-syntax-ns#"
   xmlns:svg="http://www.w3.org/2000/svg"
   xmlns="http://www.w3.org/2000/svg"
   xmlns:sodipodi="http://sodipodi.sourceforge.net/DTD/sodipodi-0.dtd"
   xmlns:inkscape="http://www.inkscape.org/namespaces/inkscape"
   width="210mm"
   height="297mm"
   viewBox="0 0 744.09448819 1052.3622047"
   id="svg3355"
   version="1.1"
   inkscape:version="0.91 r"
   sodipodi:docname="final-stamp.svg">
  <defs
     id="defs3357" />
  <sodipodi:namedview
     id="base"
     pagecolor="#ffffff"
     bordercolor="#666666"
     borderopacity="1.0"
     inkscape:pageopacity="0.0"
     inkscape:pageshadow="2"
     inkscape:zoom="0.98994949"
     inkscape:cx="533.61876"
     inkscape:cy="164.66539"
     inkscape:document-units="cm"
     inkscape:current-layer="g3438"
     showgrid="false"
     inkscape:window-width="1920"
     inkscape:window-height="1031"
     inkscape:window-x="0"
     inkscape:window-y="0"
     inkscape:window-maximized="1"
     showguides="true"
     inkscape:guide-bbox="true">
    <sodipodi:guide
       position="215.71429,132.85715"
       orientation="1,0"
       id="guide3434" />
    <sodipodi:guide
       position="495.71429,170"
       orientation="1,0"
       id="guide3436" />
  </sodipodi:namedview>
  <metadata
     id="metadata3360">
    <rdf:RDF>
      <cc:Work
         rdf:about="">
        <dc:format>image/svg+xml</dc:format>
        <dc:type
           rdf:resource="http://purl.org/dc/dcmitype/StillImage" />
        <dc:title></dc:title>
      </cc:Work>
    </rdf:RDF>
  </metadata>
  <g
     inkscape:label="Layer 1"
     inkscape:groupmode="layer"
     id="layer1">
    <g
       id="g3438"
       transform="matrix(0,-1,1,0,-867.00502,1214.1479)">
      <g
         id="g3482"
         transform="matrix(1,0,0,-1,0,1986.7236)">
        <rect
           style="opacity:0.98999999;fill:#d35f5f;fill-opacity:1;stroke:none;stroke-width:0.99212599;stroke-linecap:butt;stroke-miterlimit:4;stroke-dasharray:none;stroke-dashoffset:0"
           id="rect3432"
           width="372.85715"
           height="99.285721"
           x="171.51122"
           y="943.71893"
           ry="13.383688"
           rx="16.224617" />
        <g
           transform="matrix(-0.00701735,1.045105,-1.045105,-0.00701735,1418.7726,745.97698)"
           style="font-style:normal;font-variant:normal;font-weight:normal;font-stretch:normal;font-size:87.48849487px;line-height:125%;font-family:'Helvetica LT';-inkscape-font-specification:'Helvetica LT';letter-spacing:2.43023586px;word-spacing:0px;fill:#ffffff;fill-opacity:1;stroke:none;stroke-width:1px;stroke-linecap:butt;stroke-linejoin:miter;stroke-opacity:1"
           id="flowRoot4007-3">
          <path
             inkscape:connector-curvature="0"
             id="path3410"
             d="m 202.91097,1146.8709 c 0.0583,1.8081 0.34844,3.3237 0.87338,4.5485 0.64158,1.5748 1.60387,2.8595 2.88703,3.851 1.22485,0.9332 2.50815,1.5734 3.84963,1.9233 1.28317,0.35 2.5383,0.4099 3.76315,0.1766 1.1665,-0.2333 2.04121,-0.7597 2.62446,-1.5762 -1.57478,0.058 -2.8575,-0.5542 -3.84904,-1.8374 -0.99153,-1.2832 -1.51726,-2.6816 -1.57559,-4.198 -0.11665,-1.5748 0.34915,-3.004 1.39901,-4.2872 0.99154,-1.2832 2.74171,-1.9246 5.2497,-1.9246 1.22485,0 2.68268,0.1443 4.37413,0.4359 1.63311,0.2333 3.38388,0.643 5.2503,1.2262 1.8664,0.5833 3.82085,1.3116 5.86225,2.1865 1.98307,0.8165 3.93587,1.838 5.86067,3.0629 1.34147,4.6077 3.06284,9.0103 5.16257,13.2097 2.0414,4.1995 4.25793,7.8159 6.64927,10.8488 2.39133,2.9746 4.83945,5.1628 7.34745,6.5626 2.44974,1.3998 4.75518,1.6029 6.91317,0.6114 1.34154,-0.5833 2.30288,-1.5742 2.88607,-2.974 0.64161,-1.3998 0.84641,-3.0617 0.61313,-4.9864 -0.23333,-1.9248 -0.90443,-4.0542 -2.01263,-6.3873 -1.10813,-2.333 -2.71208,-4.7242 -4.81182,-7.1739 -2.09974,-2.508 -4.72384,-5.0153 -7.87345,-7.5233 -3.14959,-2.5081 -6.88341,-4.8993 -11.19948,-7.174 -0.23333,-0.1167 -0.43667,-0.2344 -0.61159,-0.351 l -0.69944,-0.3504 c -0.34992,-1.6914 -0.61279,-3.4123 -0.7878,-5.162 -0.23326,-1.7498 -0.35048,-3.4698 -0.35048,-5.1613 3.9078,1.5748 8.0785,3.0336 12.5113,4.3751 4.3744,1.3415 9.06928,2.4486 14.08527,3.3235 1.3998,0.2333 2.3041,0.1747 2.71237,-0.1752 0.40834,-0.35 0.40771,-0.8441 -6.3e-4,-1.4857 -0.40827,-0.6416 -1.1666,-1.3125 -2.2748,-2.0124 -1.10813,-0.7583 -2.47756,-1.3709 -4.11069,-1.8375 -3.4412,-1.0499 -7.02942,-2.334 -10.76228,-3.8504 -3.7912,-1.5748 -7.64004,-3.3534 -11.54784,-5.3365 0.175,-1.5165 0.46639,-3.0916 0.87466,-4.7247 0.28345,-1.1338 0.61138,-2.0565 0.97918,-2.7967 0.22816,0.1479 0.45173,0.3019 0.68325,0.4458 2.39133,1.4581 4.84003,2.6542 7.34804,3.5874 2.50799,0.9915 4.84113,1.6625 6.9992,2.0124 2.09973,0.35 3.93756,0.4075 5.51235,0.1742 1.51647,-0.2333 2.47913,-0.7872 2.8874,-1.6621 0.34993,-0.6999 0.292,-1.5747 -0.1746,-2.6245 -0.4666,-1.1082 -1.16658,-2.2745 -2.09977,-3.4993 -0.9332,-1.2249 -2.04114,-2.5084 -3.32434,-3.8499 -1.34147,-1.3415 -2.71317,-2.6235 -4.11297,-3.8484 2.68293,0.8166 4.95807,1.166 6.82454,1.0494 1.8664,-0.175 2.79966,-0.8169 2.79966,-1.925 0,-1.4582 -0.61263,-3.1499 -1.8375,-5.0747 -1.28313,-1.983 -2.77082,-3.9082 -4.46229,-5.7746 -1.48837,-1.6424 -2.97651,-3.1249 -4.46493,-4.4963 2.03174,0.1715 3.92902,0.032 5.68958,-0.4288 2.39134,-0.5833 4.11296,-2.0134 5.16282,-4.2881 0.81654,-1.6332 1.10745,-3.3244 0.87419,-5.0742 -0.175,-1.7498 -0.6702,-3.4696 -1.48674,-5.1611 -0.87494,-1.6914 -1.95482,-3.3259 -3.23795,-4.9007 -1.34147,-1.5748 -2.7123,-3.0025 -4.11217,-4.2857 -0.45974,-0.4214 -0.91124,-0.7938 -1.36468,-1.1775 0.15937,0.024 0.33394,0.059 0.49017,0.081 2.85794,0.4083 5.10332,0.4669 6.73645,0.1753 1.63307,-0.2916 2.4502,-0.933 2.4502,-1.9245 0,-0.4083 -0.26191,-0.8752 -0.78683,-1.4001 -0.58321,-0.5833 -1.34094,-1.2247 -2.27422,-1.9246 -0.9332,-0.7582 -2.01293,-1.5463 -3.23772,-2.3629 -1.2832,-0.8749 -2.62519,-1.7795 -4.02499,-2.7127 0.9332,-0.1749 1.98336,-0.4079 3.14988,-0.6995 1.1082,-0.2916 2.18679,-0.6708 3.23666,-1.1374 0.99153,-0.525 1.83747,-1.1079 2.53734,-1.7495 0.6416,-0.6999 0.96341,-1.4863 0.96341,-2.3612 0,-1.4581 -0.61263,-3.1498 -1.8375,-5.0746 -1.28313,-1.9831 -2.77082,-3.9082 -4.4623,-5.7746 -1.51912,-1.6763 -3.03791,-3.1914 -4.55709,-4.5854 0.089,0.01 0.18064,0.02 0.26928,0.024 2.27466,0.1167 4.31763,-0.1747 6.12576,-0.8746 1.74974,-0.6999 3.03154,-1.8945 3.84814,-3.586 0.99154,-2.0997 1.39967,-4.1123 1.22466,-6.037 -0.17493,-1.9831 -0.69884,-3.8499 -1.57378,-5.5997 -0.87486,-1.8081 -1.98302,-3.4697 -3.32449,-4.9862 -1.34153,-1.5747 -2.71307,-2.9453 -4.11287,-4.1118 -1.45813,-1.2248 -2.79873,-2.2456 -4.0236,-3.0622 -0.4799,-0.3272 -0.86943,-0.5806 -1.25958,-0.8343 -0.37543,-0.4716 -0.90584,-0.9881 -1.62888,-1.5589 -2.21633,-1.7498 -4.54958,-3.3539 -6.99932,-4.812 -2.44967,-1.4581 -4.63711,-2.68338 -6.56184,-3.67491 0.17533,-0.81656 0.29243,-1.60258 0.35043,-2.36081 0.0586,-0.75824 0.0303,-1.51742 -0.0863,-2.27566 3.79114,3.44122 7.4078,6.15388 10.849,8.13688 3.44127,1.9248 6.47314,3.2365 9.09774,3.9364 2.62467,0.6999 4.72552,0.8167 6.30031,0.3501 1.57481,-0.4666 2.36082,-1.371 2.36081,-2.7125 0,-1.4582 -0.61261,-3.148 -1.83747,-5.07278 -1.28314,-1.98308 -2.76897,-3.90822 -4.46044,-5.77465 -1.69139,-1.86641 -3.38285,-3.55884 -5.07432,-5.07531 -0.77845,-0.69792 -1.45722,-1.27054 -2.07508,-1.7708 -0.36414,-0.58727 -0.97587,-1.22841 -1.86121,-1.92735 -1.57479,-1.28317 -3.14988,-2.59618 -4.72468,-3.93767 -1.5748,-1.3415 -3.12096,-2.68274 -4.63742,-4.02423 1.04986,-0.58325 2.27547,-1.0797 3.67534,-1.48798 1.34147,-0.4666 2.71137,-0.75752 4.11116,-0.87417 1.3998,-0.11666 2.77107,-0.0591 4.1126,0.17421 1.34147,0.23331 2.5359,0.67243 3.58577,1.31401 1.63313,1.04986 2.68286,2.18705 3.14946,3.41189 0.46627,1.22484 0.43699,2.33185 -0.088,3.32338 -0.46659,0.87488 -1.04864,1.37146 -1.74858,1.48812 -0.75819,0.0583 -1.45944,-0.0587 -2.10105,-0.35032 -0.11666,1.28316 0.26298,2.47794 1.13791,3.58613 0.87487,1.10818 1.92451,1.86736 3.14931,2.27564 1.22487,0.46661 2.47945,0.40848 3.76265,-0.17477 1.2248,-0.58327 2.15704,-1.92584 2.79865,-4.02556 0.64159,-1.98307 0.55438,-4.05219 -0.26222,-6.21024 -0.81654,-2.21637 -2.04148,-4.37539 -3.67463,-6.47513 -1.05316,-1.39167 -2.22624,-2.74287 -3.49769,-4.06177 0.0852,0.0403 0.17563,0.0851 0.26062,0.12532 3.1496,1.51647 6.06713,2.82862 8.75013,3.93681 2.74127,1.10819 5.16149,1.98397 7.26123,2.62555 2.09973,0.6999 3.84989,1.07817 5.24969,1.13651 1.28354,0.11665 1.95388,-0.20465 2.01188,-0.96288 0.0583,-0.75824 -0.2344,-1.66154 -0.876,-2.7114 -0.58327,-1.04986 -1.37067,-2.07057 -2.3622,-3.0621 -0.99154,-0.99154 -1.92449,-1.63316 -2.79936,-1.92479 -1.51647,-0.46661 -3.17727,-0.99233 -4.98541,-1.57559 -1.80807,-0.58326 -3.79261,-1.34045 -5.95068,-2.27366 -1.45813,-0.64157 -3.03187,-1.51757 -4.72333,-2.62576 -1.74974,-1.16651 -3.49943,-2.44837 -5.24923,-3.84819 -1.80807,-1.39981 -3.55756,-2.85873 -5.24903,-4.37519 -1.69146,-1.5748 -3.2092,-3.0623 -4.55066,-4.46212 -1.34147,-1.45814 -2.4487,-2.79887 -3.32364,-4.0237 -0.9332,-1.22484 -1.48715,-2.1875 -1.66209,-2.8874 0.69988,-0.11665 2.21593,0.17406 4.549,0.87397 2.27466,0.69991 4.72349,1.8093 7.34815,3.32577 2.0414,1.16651 3.7623,2.3918 5.16209,3.67497 1.3998,1.28316 2.53745,2.39095 3.41239,3.32417 0.87486,0.87488 1.54596,1.51618 2.01256,1.92446 0.40827,0.34995 0.70042,0.20401 0.87542,-0.43758 0.69986,-2.68298 0.5525,-5.36687 -0.43903,-8.04984 -1.04981,-2.68298 -2.41943,-5.16181 -4.1109,-7.43651 -1.2075,-1.62386 -2.44592,-3.07741 -3.71284,-4.37431 0.45582,0.0984 0.90987,0.19224 1.35107,0.26379 2.09973,0.34995 3.93569,0.40934 5.5105,0.17604 1.51646,-0.2333 2.47912,-0.7872 2.88739,-1.66209 0.34993,-0.6999 0.292,-1.57467 -0.17461,-2.62453 -0.4666,-1.10819 -1.16656,-2.27447 -2.09976,-3.49931 -0.9332,-1.22484 -2.04114,-2.50841 -3.32434,-3.84989 -1.34147,-1.3415 -2.71319,-2.62539 -4.11299,-3.85022 2.68294,0.81656 4.95808,1.16597 6.82455,1.04931 1.8664,-0.17497 2.79968,-0.81495 2.79967,-1.92313 1e-5,-1.45814 -0.61262,-3.14988 -1.83749,-5.07463 -1.28314,-1.98307 -2.77083,-3.9082 -4.4623,-5.77462 -1.48877,-1.64282 -2.97799,-3.12649 -4.46681,-4.49819 2.03263,0.17186 3.93208,0.0325 5.69332,-0.42881 2.39133,-0.58326 4.1111,-2.01154 5.16096,-4.28625 0.81654,-1.63312 1.10745,-3.32436 0.87418,-5.07413 -0.17499,-1.74977 -0.67021,-3.4715 -1.48674,-5.16295 -0.87493,-1.69143 -1.95294,-3.32411 -3.23607,-4.8989 -1.34146,-1.5748 -2.71232,-3.00436 -4.11219,-4.28753 -0.66512,-0.6097 -1.32363,-1.17349 -1.97558,-1.70419 1.97668,0.0233 3.77975,-0.25665 5.38755,-0.87901 1.74973,-0.69991 3.03154,-1.89452 3.84813,-3.58596 0.99154,-2.09973 1.40154,-4.11234 1.22654,-6.03709 -0.17494,-1.98307 -0.70071,-3.84988 -1.57565,-5.59965 -0.87486,-1.8081 -1.98302,-3.46968 -3.3245,-4.98615 -1.34153,-1.57479 -2.71306,-2.94533 -4.11287,-4.11184 -1.45813,-1.22483 -2.79873,-2.2456 -4.02359,-3.06217 -1.28314,-0.87488 -2.24501,-1.48828 -2.88661,-1.83823 -0.99153,-0.52494 -1.7504,-0.75882 -2.27533,-0.70049 -0.58327,10e-6 -0.93331,0.20428 -1.04991,0.61255 -0.11667,0.40829 0.0297,0.90514 0.43796,1.4884 0.34993,0.58325 0.96266,1.16671 1.83759,1.74996 0.87487,0.58326 2.01211,1.57488 3.4119,2.9747 1.39981,1.39982 2.68321,2.97308 3.84974,4.72285 1.1082,1.69144 1.95306,3.47075 2.53633,5.33717 0.52493,1.86642 0.37974,3.55848 -0.43687,5.07494 -0.34993,0.69991 -0.90435,1.19591 -1.66261,1.48754 -0.81653,0.2333 -1.72154,0.349 -2.71307,0.349 -0.99153,10e-6 -2.01117,-0.0867 -3.06103,-0.26164 -1.10821,-0.17498 -2.12961,-0.35015 -3.06281,-0.52513 0.11666,-0.64158 0.23435,-1.39997 0.35102,-2.27486 0.11659,-0.9332 0.17438,-1.92461 0.17438,-2.97447 -0.0583,-1.04987 -0.17443,-2.15767 -0.34936,-3.32418 -0.23334,-1.16651 -0.61367,-2.30413 -1.1386,-3.41231 -1.22481,-2.50801 -2.5945,-4.43363 -4.11096,-5.77513 -1.51647,-1.39981 -3.03307,-2.27323 -4.54954,-2.62318 -1.5748,-0.40828 -3.0341,-0.35165 -4.37564,0.17328 -1.3998,0.52492 -2.5368,1.40134 -3.41166,2.62618 -1.22454,1.69144 -1.80692,3.46962 -1.74892,5.33604 0.0583,1.86643 0.58225,3.73325 1.57378,5.59967 0.99154,1.80809 2.39275,3.55792 4.20088,5.24937 1.74973,1.69144 3.70264,3.17763 5.86071,4.46079 2.27466,1.3415 4.69584,2.4496 7.26217,3.32448 0.24686,0.0804 0.48756,0.14201 0.73216,0.21561 0.2037,0.17495 0.4222,0.35236 0.66701,0.53188 1.6914,1.22484 3.23751,2.65274 4.63731,4.28586 1.34153,1.63312 2.47855,3.26647 3.41175,4.89959 0.93319,1.63312 1.57374,3.15096 1.92368,4.55077 0.35027,1.3415 0.3223,2.36182 -0.086,3.06173 -0.75827,1.45814 -1.92542,2.39044 -3.50023,2.79871 -1.57479,0.40829 -3.29413,0.46644 -5.16053,0.17481 -1.8664,-0.29162 -3.73309,-0.87411 -5.59955,-1.749 -1.92473,-0.93321 -3.61692,-2.01154 -5.07505,-3.23638 -1.51647,-1.22484 -2.6545,-2.53731 -3.41276,-3.93713 -0.81653,-1.39981 -1.01896,-2.77145 -0.61069,-4.11294 0.23333,-0.75823 0.75686,-1.13747 1.5734,-1.13747 0.81659,-0.0583 1.69229,0.11792 2.6255,0.5262 0.9332,0.34995 1.83616,0.87413 2.71103,1.57404 0.8166,0.64158 1.34258,1.31159 1.57585,2.0115 0.81653,-1.34149 1.10702,-2.68237 0.87375,-4.02386 -0.23333,-1.39981 -0.78748,-2.65382 -1.66235,-3.76201 -0.9332,-1.16651 -2.06985,-2.12863 -3.41131,-2.88686 -1.34154,-0.75823 -2.68348,-1.19627 -4.02494,-1.31293 -1.34146,-0.11665 -2.59387,0.14615 -3.76041,0.78773 -1.16653,0.64158 -2.04323,1.80783 -2.6265,3.49927 -0.87487,2.68298 -0.7281,5.33737 0.43844,7.96202 1.16647,2.62465 2.91664,5.0443 5.2497,7.26066 2.27467,2.21638 4.95674,4.11223 8.04801,5.68702 1.63214,0.84746 3.25594,1.53932 4.87119,2.09963 0.27465,0.28975 0.59954,0.59036 0.99094,0.90346 0.87486,0.69992 1.77927,1.57446 2.71247,2.62432 0.87487,0.99153 1.66227,2.01223 2.36221,3.06211 0.69986,0.99152 1.22494,1.89574 1.57495,2.71231 0.29159,0.81656 0.29154,1.36976 -6e-5,1.66139 -0.29167,0.2333 -0.87623,0.23385 -1.7511,5.4e-4 -0.93319,-0.23329 -1.98201,-0.58309 -3.14855,-1.0497 -1.2248,-0.52493 -2.50879,-1.10796 -3.85033,-1.74953 -1.34146,-0.69991 -2.56635,-1.37078 -3.67455,-2.01236 -0.11666,-0.0583 -0.23309,0.11548 -0.34969,0.52375 -0.17466,0.40828 -0.29203,0.90483 -0.35069,1.48808 -0.058,0.52493 -0.0568,1.05049 0.001,1.57541 0.0583,0.46662 0.17533,0.787 0.35032,0.96198 0.46661,0.40828 0.93331,0.78623 1.39991,1.13618 l 1.39933,1.05023 c 1.3998,1.1082 2.79868,2.27533 4.19847,3.50017 1.34154,1.22484 2.508,2.39106 3.49953,3.49925 0.99153,1.10818 1.74944,2.12948 2.27437,3.06269 0.52493,0.87489 0.67165,1.57456 0.43832,2.0995 -0.23326,0.4666 -0.75914,0.72967 -1.57573,0.78801 -0.81653,0 -1.80786,-0.14626 -2.97439,-0.43789 -1.16653,-0.29163 -2.39046,-0.73016 -3.6736,-1.31342 -1.34146,-0.58326 -2.62407,-1.28245 -3.84893,-2.09902 -1.28313,-0.87488 -2.48007,-1.80818 -3.58827,-2.79971 -1.16653,-1.04986 -2.12787,-2.10029 -2.88607,-3.15016 -0.8166,-1.10818 -1.40046,-2.18641 -1.7504,-3.23627 -0.40826,-1.04986 -0.4661,-2.01316 -0.1745,-2.88804 0.23333,-0.69991 0.66965,-1.10689 1.31118,-1.22355 0.64159,-0.11665 1.3718,-0.1164 2.18841,2.6e-4 0.40826,-1.45815 0.23273,-2.68466 -0.52554,-3.6762 -0.7582,-1.04986 -1.71995,-1.74805 -2.88647,-2.098 -1.16654,-0.34996 -2.36348,-0.2635 -3.58828,0.26143 -1.2832,0.52492 -2.18614,1.57557 -2.71108,3.15036 -0.58293,1.74978 -0.61313,3.58703 -0.0882,5.51178 0.52493,1.92474 1.42927,3.81904 2.71248,5.68546 1.22479,1.86642 2.77043,3.64657 4.6369,5.33802 1.86639,1.69144 3.8789,3.20782 6.03696,4.54931 1.74262,1.06258 3.51775,1.98182 5.32232,2.76564 0.27231,0.29717 0.59225,0.5988 0.97789,0.9073 0.69986,0.58326 1.57477,1.45839 2.62464,2.6249 0.99154,1.10819 1.95393,2.30242 2.88712,3.58559 0.9332,1.22483 1.74862,2.44966 2.44855,3.6745 0.69994,1.22485 1.10936,2.2457 1.22596,3.06226 -0.17494,-0.40828 -0.61321,-0.9325 -1.31314,-1.57408 -0.69987,-0.64159 -1.57499,-1.34153 -2.62486,-2.09977 -1.04987,-0.81655 -2.18724,-1.63299 -3.41212,-2.44955 -1.28313,-0.81656 -2.59454,-1.5742 -3.93607,-2.2741 -2.62467,-1.39982 -5.1628,-2.36362 -7.61246,-2.88856 -2.44967,-0.52494 -4.51924,-0.55385 -6.21072,-0.0873 -1.51646,0.40829 -2.62444,1.16795 -3.32431,2.27613 -0.69993,1.04986 -0.64233,2.18648 0.17428,3.41132 0.2916,0.40828 1.10761,1.19606 2.44908,2.36258 1.2832,1.10818 2.82877,2.41992 4.63684,3.93639 1.80813,1.51647 3.73325,3.09176 5.77464,4.72489 1.98307,1.63311 3.82043,3.14928 5.51183,4.54909 1.69147,1.34149 3.09096,2.44961 4.19916,3.32449 1.04987,0.87489 1.51716,1.28237 1.4005,1.22403 -0.23327,0 -0.69961,-0.17514 -1.39954,-0.52509 -0.69994,-0.34995 -1.45858,-0.75715 -2.27511,-1.22376 -0.81653,-0.46661 -1.604,-0.93411 -2.36227,-1.40071 -0.75819,-0.52493 -1.36984,-0.96085 -1.83651,-1.3108 -0.52494,-0.40828 -1.34234,-1.07989 -2.45048,-2.0131 -1.16653,-0.99153 -2.39221,-1.98326 -3.67541,-2.97479 -1.34147,-1.04987 -2.62323,-1.98328 -3.84803,-2.79984 -1.22487,-0.81657 -2.15797,-1.283 -2.79956,-1.39965 -0.64154,-0.17498 -1.19719,-0.20453 -1.66385,-0.0879 -0.46693,0.0583 -0.7291,0.32173 -0.7871,0.78833 -0.1166,0.40827 6.6e-4,1.02002 0.35059,1.83658 0.2916,0.75823 0.90322,1.75109 1.83649,2.97593 0.87487,1.10819 1.92594,2.21586 3.15075,3.32405 1.22486,1.10819 2.56605,2.15846 4.02418,3.14999 1.3998,0.99155 2.85728,1.95281 4.37375,2.88602 1.16616,0.67278 2.31001,1.2764 3.44171,1.84571 0.28009,0.31166 0.61594,0.62956 1.02117,0.95373 1.16647,0.87487 2.15822,1.69238 2.97482,2.45062 l 2.45036,2.27473 c -3.03293,-0.99154 -6.35915,-1.42887 -9.97529,-1.31222 -3.6162,0.11665 -7.17305,0.87333 -10.67258,2.27314 -2.15807,-1.45813 -4.05335,-2.27424 -5.68649,-2.44922 -1.63311,-0.17498 -2.65397,0.23442 -3.06225,1.22595 -0.40828,1.04986 -0.2333,2.24501 0.52493,3.5865 0.6999,1.34149 1.72005,2.56593 3.06152,3.67412 1.34153,1.04987 2.85824,1.83663 4.54964,2.36156 1.63313,0.52492 3.20736,0.49734 4.72383,-0.0859 1.63313,1.45814 3.41201,3.00313 5.33674,4.63624 1.28639,1.1256 2.61098,2.251 3.95283,3.37661 0.0254,0.0503 0.0435,0.0949 0.072,0.14715 0.2916,0.58326 0.87413,1.22445 1.74906,1.92436 0.87487,0.69991 1.77929,1.57632 2.71249,2.62618 0.87487,0.99154 1.66228,2.01225 2.36221,3.06211 0.69987,0.99154 1.22493,1.89388 1.57494,2.71045 0.2916,0.81656 0.29155,1.37163 -5e-5,1.66325 -0.35,0.34996 -1.02131,0.43706 -2.01284,0.26208 -0.99154,-0.17498 -2.15842,-0.52428 -3.49989,-1.04922 -1.34147,-0.52493 -2.77048,-1.16777 -4.28695,-1.92601 -1.5748,-0.75824 -3.11972,-1.57393 -4.63619,-2.4488 -1.51647,-0.93322 -2.91617,-1.86615 -4.19937,-2.79935 -1.34147,-0.93321 -2.42109,-1.80797 -3.23763,-2.62453 -0.17499,-0.17497 -0.40728,-0.17589 -0.69895,-9.2e-4 -0.34993,0.17499 -0.67116,0.43769 -0.96276,0.78764 -0.29166,0.29163 -0.52502,0.61346 -0.69995,0.96341 -0.17467,0.34995 -0.234,0.61112 -0.176,0.78609 0.175,0.34996 0.37977,0.818 0.61304,1.40125 0.23333,0.58326 0.4078,1.1957 0.5244,1.83727 0.058,0.58327 0.0585,1.16597 5.3e-4,1.74923 -0.0583,0.52493 -0.29114,0.96292 -0.69947,1.31288 -0.7582,-0.40828 -1.54519,-0.75962 -2.36178,-1.05125 -0.81654,-0.29163 -1.57553,-0.43697 -2.27544,-0.43698 -0.75823,0 -1.42969,0.17562 -2.01294,0.52558 -0.58326,0.34996 -1.01918,0.96164 -1.3108,1.83652 -0.46661,1.22484 -0.26282,2.47842 0.61207,3.76157 0.81656,1.2248 1.92364,2.1875 3.32348,2.8874 1.34147,0.6416 2.7716,0.8751 4.28806,0.7001 1.51647,-0.175 2.71191,-1.0784 3.58677,-2.7115 1.80814,0.8749 3.9077,2.041 6.29903,3.4992 1.65314,0.9919 3.33682,2.1524 5.04856,3.4664 0.0754,0.1598 0.16628,0.325 0.2893,0.5008 0.34994,0.5832 0.9608,1.1667 1.83573,1.7499 0.87487,0.5833 2.01397,1.5749 3.41377,2.9747 1.3998,1.3998 2.68133,2.9731 3.84787,4.7229 1.1082,1.6914 1.95493,3.4707 2.53819,5.3371 0.52494,1.8665 0.37974,3.5585 -0.43686,5.075 -0.34993,0.6999 -0.90436,1.1959 -1.66262,1.4875 -0.81653,0.2333 -1.72153,0.349 -2.71307,0.349 -0.99153,0 -2.01116,-0.087 -3.06103,-0.2616 -1.1082,-0.175 -2.12961,-0.3502 -3.0628,-0.5251 0.11666,-0.6416 0.23248,-1.4 0.34915,-2.2749 0.11659,-0.9332 0.17625,-1.9246 0.17625,-2.9745 -0.0583,-1.0498 -0.1763,-2.1576 -0.35124,-3.3241 -0.23333,-1.1666 -0.61179,-2.3042 -1.13673,-3.4124 -1.2248,-2.508 -2.59449,-4.4336 -4.11096,-5.7751 -1.51647,-1.3998 -3.03306,-2.2732 -4.54953,-2.6232 -1.5748,-0.4083 -3.0341,-0.3498 -4.37562,0.1752 -1.39981,0.5249 -2.53683,1.3994 -3.41169,2.6243 -1.22453,1.6914 -1.80691,3.4696 -1.74891,5.336 0.0583,1.8665 0.58225,3.7333 1.57378,5.5997 0.99153,1.8081 2.39087,3.5579 4.19901,5.2494 1.74972,1.6914 3.7045,3.1776 5.86257,4.4608 2.27466,1.3415 4.69584,2.4496 7.26218,3.3244 0.20345,0.066 0.40103,0.1156 0.60294,0.1773 0.23424,0.2299 0.49005,0.4643 0.79528,0.7085 0.87486,0.6999 1.83887,1.6047 2.88874,2.7129 1.04987,1.1081 2.01168,2.2747 2.88654,3.4996 0.87488,1.2248 1.60306,2.42 2.18633,3.5865 0.58327,1.1666 0.81691,2.1596 0.70024,2.9761 0,0.175 -0.17366,0.4366 -0.5236,0.7866 -0.40827,0.2916 -0.87583,0.6125 -1.40077,0.9625 -0.52493,0.2916 -1.07845,0.5534 -1.66172,0.7867 -0.58326,0.2333 -1.10833,0.3507 -1.57494,0.3507 -1.34146,-2.508 -2.71183,-4.8411 -4.1117,-6.9992 -1.16647,-1.8664 -2.42134,-3.6745 -3.76286,-5.4242 -1.3998,-1.8081 -2.68296,-3.0919 -3.84949,-3.8501 -2.09973,-1.2832 -3.93677,-2.0415 -5.51151,-2.2748 -1.57479,-0.2333 -2.74109,10e-5 -3.49936,0.7 -0.81653,0.6999 -1.13689,1.8386 -0.96195,3.4134 0.175,1.5164 0.99143,3.4401 2.44956,5.7732 0.52493,0.8749 1.34183,1.895 2.45003,3.0615 1.04987,1.1665 2.2452,2.3912 3.58667,3.6743 1.2832,1.2249 2.62476,2.4798 4.02456,3.763 1.34147,1.2832 2.59463,2.4495 3.76116,3.4993 1.1082,0.9916 2.04153,1.8379 2.79974,2.5378 0.69993,0.6999 1.04916,1.1079 1.04916,1.2245 0,0.1167 -0.14582,0.2044 -0.43742,0.2627 -0.29166,0 -0.64074,-0.03 -1.049,-0.088 -0.46661,-0.058 -0.90483,-0.116 -1.31309,-0.1744 -0.40834,-0.1166 -0.7573,-0.2332 -1.0489,-0.3499 -2.7996,-2.683 -5.57049,-5.3368 -8.31182,-7.9614 -2.7996,-2.683 -5.4822,-5.1616 -8.04853,-7.4363 -2.62468,-2.333 -5.13257,-4.3743 -7.52392,-6.1241 -2.39136,-1.8081 -4.57985,-3.179 -6.56292,-4.1122 -2.0414,-0.9915 -3.8191,-1.4578 -5.33557,-1.3994 -1.57479,0.058 -2.8296,0.7581 -3.7628,2.0996 -1.16652,1.6332 -1.16641,3.586 10e-5,5.8607 1.16652,2.2164 3.0619,4.5206 5.68654,6.912 2.56633,2.3913 5.68674,4.7247 9.36126,6.9994 3.61617,2.2747 7.35049,4.229 11.20002,5.8621 4.54941,1.9248 8.77719,3.469 12.68498,4.6355 0.6592,0.187 1.28223,0.349 1.91154,0.5161 0.19174,0.1626 0.39854,0.3263 0.62563,0.4929 1.69141,1.2248 3.23753,2.6546 4.63733,4.2877 1.34154,1.6331 2.47855,3.2665 3.41175,4.8996 0.9332,1.6331 1.57374,3.1491 1.92366,4.5489 0.35028,1.3415 0.32231,2.3618 -0.0859,3.0617 -0.75827,1.4582 -1.92541,2.3923 -3.50021,2.8006 -1.5748,0.4083 -3.296,0.4665 -5.16241,0.1748 -1.8664,-0.2916 -3.73309,-0.876 -5.59956,-1.7508 -1.92474,-0.9333 -3.61505,-2.0116 -5.07318,-3.2364 -1.51646,-1.2249 -2.65449,-2.5374 -3.41277,-3.9372 -0.81653,-1.3998 -1.02081,-2.7695 -0.61254,-4.111 0.23333,-0.7583 0.75873,-1.1375 1.57526,-1.1375 0.81661,-0.058 1.69229,0.116 2.6255,0.5243 0.93319,0.35 1.83616,0.8742 2.71102,1.5741 0.8166,0.6416 1.3426,1.3134 1.57587,2.0133 0.81653,-1.3415 1.10701,-2.6842 0.87374,-4.0257 -0.23333,-1.3998 -0.78748,-2.6538 -1.66236,-3.762 -0.93319,-1.1665 -2.06984,-2.1286 -3.41131,-2.8869 -1.34153,-0.7582 -2.68345,-1.1944 -4.02491,-1.311 -1.34148,-0.1167 -2.59576,0.1443 -3.76229,0.7858 -1.16654,0.6416 -2.04137,1.8097 -2.62463,3.5012 -0.87487,2.683 -0.72811,5.3355 0.43842,7.9601 1.16647,2.6247 2.91666,5.0462 5.24973,7.2626 2.27466,2.2163 4.95673,4.1122 8.04799,5.687 1.63217,0.8474 3.25593,1.5393 4.8712,2.0996 0.27466,0.2898 0.59953,0.5885 0.99092,0.9016 0.87487,0.6999 1.77741,1.5745 2.71061,2.6243 0.87486,0.9916 1.66227,2.0123 2.36221,3.0621 0.69987,0.9916 1.22495,1.8958 1.57494,2.7123 0.29161,0.8166 0.29156,1.3717 -4e-5,1.6633 -0.29166,0.2333 -0.87437,0.232 -1.74923,0 -0.9332,-0.2333 -1.98389,-0.5831 -3.15043,-1.0497 -1.2248,-0.5249 -2.50692,-1.108 -3.84845,-1.7496 -1.34147,-0.6999 -2.56636,-1.3707 -3.67455,-2.0123 -0.11667,-0.058 -0.23309,0.1173 -0.34968,0.5256 -0.17467,0.4083 -0.29204,0.903 -0.35072,1.4862 -0.058,0.5249 -0.0568,1.0505 0.001,1.5754 0.0583,0.4666 0.17345,0.787 0.34846,0.962 0.4666,0.4083 0.93332,0.7881 1.39992,1.1381 l 1.4012,1.0502 c 1.3998,1.1082 2.79866,2.2734 4.19846,3.4983 1.34153,1.2248 2.50798,2.391 3.49952,3.4992 0.99153,1.1082 1.74944,2.1295 2.27437,3.0627 0.52493,0.8749 0.67166,1.5746 0.43832,2.0995 -0.23326,0.4666 -0.75913,0.7297 -1.57573,0.788 -0.81654,0 -1.80786,-0.1462 -2.97439,-0.4379 -1.16654,-0.2916 -2.39045,-0.7283 -3.67358,-1.3115 -1.34147,-0.5833 -2.62595,-1.2843 -3.85082,-2.1009 -1.28314,-0.8749 -2.47819,-1.8082 -3.5864,-2.7997 -1.16653,-1.0499 -2.12785,-2.0984 -2.88605,-3.1483 -0.81661,-1.1082 -1.40048,-2.1883 -1.75041,-3.2382 -0.40828,-1.0498 -0.46609,-2.0112 -0.1745,-2.8861 0.23334,-0.6999 0.66964,-1.1088 1.31116,-1.2254 0.64161,-0.1167 1.37181,-0.1164 2.18841,2e-4 0.40827,-1.4581 0.23275,-2.6828 -0.52551,-3.6743 -0.75821,-1.0499 -1.71996,-1.7499 -2.8865,-2.0999 -1.16653,-0.3499 -2.36347,-0.2635 -3.58827,0.2615 -1.2832,0.5249 -2.18615,1.5755 -2.71108,3.1503 -0.58293,1.7498 -0.61313,3.587 -0.0882,5.5118 0.52494,1.9247 1.42928,3.8209 2.71248,5.6873 1.2248,1.8664 2.77043,3.6447 4.6369,5.3362 0.72963,0.6612 1.48858,1.287 2.26279,1.8947 -0.55227,0.9667 -0.98662,2.0505 -1.29939,3.2568 -0.46661,1.5164 -0.81766,3.0613 -1.05093,4.6361 -4.43273,-2.333 -8.77864,-4.8117 -13.03643,-7.4364 -4.31611,-2.6829 -8.39857,-5.4527 -12.24806,-8.3106 -1.69145,-1.2249 -3.00357,-1.9254 -3.93678,-2.1003 -0.99155,-0.175 -1.66113,6e-4 -2.01108,0.5255 -0.34995,0.525 -0.40994,1.3117 -0.17663,2.3616 0.17498,0.9915 0.55416,2.0701 1.13742,3.2366 0.58326,1.1665 1.34164,2.304 2.27486,3.4122 0.9332,1.1082 1.95433,2.0117 3.06253,2.7116 2.91628,1.7498 6.41631,3.7917 10.49911,6.1247 4.02448,2.333 8.66135,4.6086 13.91068,6.825 0,1.6915 0.0589,3.3536 0.17552,4.9868 0.11666,1.6331 0.29105,3.2653 0.52439,4.8984 -1.86646,-0.8749 -3.82076,-1.6917 -5.86215,-2.4499 -2.0414,-0.8166 -4.0543,-1.5161 -6.03735,-2.0993 -2.04139,-0.6416 -4.02438,-1.137 -5.94913,-1.4869 -1.92474,-0.4083 -3.67443,-0.6704 -5.24922,-0.787 -3.14959,-0.175 -5.56891,0.2917 -7.26035,1.3999 -1.74978,1.1082 -2.97592,2.5082 -3.67583,4.1996 -0.75823,1.6331 -1.0775,3.3821 -0.96084,5.2485 z m 11.98546,-103.9987 c 1.69144,-0.058 3.61541,0.4364 5.77345,1.4862 2.15804,0.9916 4.46212,2.3344 6.91181,4.0258 2.44965,1.6914 4.9866,3.616 7.61127,5.774 2.62467,2.0998 5.19089,4.1989 7.69889,6.2986 -1.16653,-0.3499 -2.33273,-0.7582 -3.49919,-1.2248 -1.22487,-0.4666 -2.47819,-0.9913 -3.76133,-1.5745 -2.74133,-1.2248 -5.30733,-2.4794 -7.69868,-3.7626 -2.44968,-1.3415 -4.57983,-2.6527 -6.38792,-3.9358 -1.86643,-1.2832 -3.38262,-2.5089 -4.54913,-3.6754 -1.16651,-1.2248 -1.86588,-2.3616 -2.09917,-3.4115 z m 21.68113,-23.8143 c -0.0328,-0.7546 0.14658,-1.3942 0.54028,-1.9192 0.34994,-0.4666 0.84514,-0.7862 1.48674,-0.9612 0.64154,-0.2333 1.34161,-0.1753 2.09987,0.1747 0.7582,0.2916 1.51664,0.874 2.27491,1.7489 0.75819,0.8748 1.45806,2.1297 2.09966,3.7628 0.6416,1.6914 0.96319,3.1197 0.9632,4.2862 0,1.1082 -0.0296,1.9552 -0.0876,2.5385 -1.63314,-0.525 -3.11977,-1.2847 -4.46123,-2.2762 -1.34147,-1.0499 -2.4214,-2.1275 -3.23799,-3.2356 -0.81654,-1.1666 -1.342,-2.2755 -1.57533,-3.3253 -0.0583,-0.2771 -0.0916,-0.5421 -0.1025,-0.7936 z m -3.8e-4,-160.93067 c -0.0328,-0.75459 0.14658,-1.39424 0.54028,-1.91917 0.34993,-0.4666 0.84514,-0.78624 1.48674,-0.96123 0.64153,-0.2333 1.3416,-0.1753 2.09987,0.17466 0.7582,0.29162 1.51663,0.87401 2.2749,1.7489 0.7582,0.87488 1.45807,2.12969 2.09967,3.76281 0.6416,1.69145 0.96319,3.11973 0.96319,4.28623 1e-5,1.1082 -0.0296,1.95521 -0.0876,2.53847 -1.63314,-0.52493 -3.11977,-1.28464 -4.46124,-2.27619 -1.34146,-1.04986 -2.42139,-2.12744 -3.23799,-3.23563 -0.81653,-1.16651 -1.34012,-2.27543 -1.57345,-3.32529 -0.0583,-0.27706 -0.0934,-0.54203 -0.10437,-0.79356 z m 3.0788,184.65727 c 0.69993,-0.35 1.54544,-0.116 2.53698,0.7006 0.99152,0.7582 2.04008,1.8364 3.14827,3.2362 1.1082,1.3415 2.21658,2.8279 3.32471,4.461 1.04986,1.5748 1.98425,3.0333 2.80085,4.3748 -2.9746,-2.0997 -5.60041,-4.2272 -7.87514,-6.3852 -2.33301,-2.2164 -3.644,-4.346 -3.93567,-6.3874 z m 4.54811,110.124 c 3.38293,2.158 6.5334,4.5185 9.44966,7.0848 2.91627,2.508 5.33584,4.9291 7.26058,7.2621 1.86646,2.333 3.09204,4.433 3.67531,6.2995 0.58319,1.8081 0.23253,3.0911 -1.0506,3.8493 -0.9332,0.525 -2.18743,0.2327 -3.76224,-0.8755 -1.63313,-1.1665 -3.35278,-2.886 -5.16085,-5.1607 -1.86647,-2.333 -3.70472,-5.1031 -5.51279,-8.311 -1.86641,-3.208 -3.49921,-6.5907 -4.89907,-10.1485 z"
             style="font-style:normal;font-variant:normal;font-weight:normal;font-stretch:normal;font-family:'Dollie Script Personal Use';-inkscape-font-specification:'Dollie Script Personal Use';letter-spacing:0.47841004px;fill:#ffffff" />
        </g>
      </g>
    </g>
  </g>
</svg>
