<?xml version="1.0" encoding="UTF-8" standalone="no"?>
<!-- Created with Inkscape (http://www.inkscape.org/) -->

<svg
   xmlns:dc="http://purl.org/dc/elements/1.1/"
   xmlns:cc="http://creativecommons.org/ns#"
   xmlns:rdf="http://www.w3.org/1999/02/22-rdf-syntax-ns#"
   xmlns:svg="http://www.w3.org/2000/svg"
   xmlns="http://www.w3.org/2000/svg"
   xmlns:sodipodi="http://sodipodi.sourceforge.net/DTD/sodipodi-0.dtd"
   xmlns:inkscape="http://www.inkscape.org/namespaces/inkscape"
   width="210mm"
   height="297mm"
   viewBox="0 0 744.09448819 1052.3622047"
   id="svg2"
   version="1.1"
   inkscape:version="0.91 r"
   sodipodi:docname="dahala-khagabari.svg">
  <defs
     id="defs4" />
  <sodipodi:namedview
     id="base"
     pagecolor="#ffffff"
     bordercolor="#666666"
     borderopacity="1.0"
     inkscape:pageopacity="0.0"
     inkscape:pageshadow="2"
     inkscape:zoom="0.5"
     inkscape:cx="624.65143"
     inkscape:cy="708.05708"
     inkscape:document-units="cm"
     inkscape:current-layer="layer1"
     showgrid="false"
     inkscape:window-width="1920"
     inkscape:window-height="1031"
     inkscape:window-x="0"
     inkscape:window-y="0"
     inkscape:window-maximized="1"
     showguides="true"
     inkscape:guide-bbox="true" />
  <metadata
     id="metadata7">
    <rdf:RDF>
      <cc:Work
         rdf:about="">
        <dc:format>image/svg+xml</dc:format>
        <dc:type
           rdf:resource="http://purl.org/dc/dcmitype/StillImage" />
        <dc:title></dc:title>
      </cc:Work>
    </rdf:RDF>
  </metadata>
  <g
     inkscape:label="Layer 1"
     inkscape:groupmode="layer"
     id="layer1">
    <rect
       style="opacity:0.98999999;fill:#ffffff;fill-opacity:0.99215686;stroke:#cccccc;stroke-width:3.50535798;stroke-linecap:butt;stroke-miterlimit:4;stroke-dasharray:none;stroke-dashoffset:0"
       id="rect3384"
       width="524.32367"
       height="464.82309"
       x="109.26674"
       y="156.77144"
       rx="17.716536"
       ry="17.716536" />
    <path
       style="opacity:0.98999999;fill:#d40000;fill-opacity:0.99215686;stroke:none;stroke-width:3.37588954;stroke-linecap:butt;stroke-miterlimit:4;stroke-dasharray:none;stroke-dashoffset:0"
       d="M 132.56055 165.18555 C 124.70858 165.18555 118.38867 171.50741 118.38867 179.35938 L 118.38867 598.29883 C 118.38867 606.1508 124.70858 612.47266 132.56055 612.47266 L 609.58984 612.47266 C 617.44181 612.47266 623.76172 606.1508 623.76172 598.29883 L 623.76172 179.35938 C 623.76172 171.50741 617.44181 165.18555 609.58984 165.18555 L 132.56055 165.18555 z M 200.85547 250.85156 L 217.62891 287.25977 L 200.49414 276.69141 L 183.43164 287.03711 L 200.85547 250.85156 z M 174.73633 294.11523 C 177.14978 294.11523 179.03021 294.71905 180.37891 295.92578 C 181.75126 297.10885 182.4375 298.9433 182.4375 301.42773 C 182.4375 302.25587 182.36658 303.01304 182.22461 303.69922 C 182.1063 304.36173 181.90503 305.00004 181.62109 305.61523 C 181.33716 306.20677 180.98254 306.78564 180.55664 307.35352 C 180.1544 307.89772 179.66944 308.46706 179.10156 309.05859 L 176.79492 311.29297 L 175.87305 312.2168 C 175.51813 312.57172 175.16156 312.97427 174.80664 313.42383 C 174.45172 313.84973 174.12205 314.28677 173.81445 314.73633 C 173.53052 315.16223 173.35223 315.56478 173.28125 315.94336 L 182.47461 315.94336 L 182.47461 320.73438 L 166.53711 320.73438 L 166.53711 319.84766 C 166.53711 318.75924 166.6924 317.70689 167 316.68945 C 167.33125 315.64835 167.74529 314.65348 168.24219 313.70703 C 168.76273 312.76058 169.35311 311.86157 170.01562 311.00977 C 170.70181 310.1343 171.39954 309.30621 172.10938 308.52539 L 174.80664 305.68555 C 175.44549 304.97571 175.88448 304.28947 176.12109 303.62695 C 176.38137 302.96443 176.51172 302.14785 176.51172 301.17773 C 176.51172 300.84648 176.46379 300.51681 176.36914 300.18555 C 176.29816 299.85429 176.16781 299.56864 175.97852 299.33203 C 175.81289 299.07176 175.58863 298.87244 175.30469 298.73047 C 175.02075 298.5885 174.67763 298.52907 174.27539 298.55273 C 173.80216 298.5764 173.42261 298.72974 173.13867 299.01367 C 172.8784 299.29761 172.67712 299.64073 172.53516 300.04297 C 172.39318 300.44522 172.29927 300.87075 172.25195 301.32031 C 172.22829 301.74622 172.2168 302.12578 172.2168 302.45703 L 172.2168 303.73438 L 166.57422 303.73438 L 166.57422 302.34961 C 166.57422 299.69954 167.26046 297.66577 168.63281 296.24609 C 170.00517 294.82641 172.03895 294.11523 174.73633 294.11523 z M 233.75 294.18945 C 234.66454 294.27485 235.46775 294.43467 236.13672 294.68359 C 237.17781 295.06218 237.9944 295.64105 238.58594 296.42188 C 239.17747 297.17903 239.57806 298.12598 239.79102 299.26172 C 240.00396 300.3738 240.09983 301.67536 240.07617 303.16602 L 240.07617 312.74805 C 240.07617 314.21504 239.94582 315.49361 239.68555 316.58203 C 239.42527 317.64679 238.98824 318.5343 238.37305 319.24414 C 237.78151 319.95397 236.97642 320.48688 235.95898 320.8418 C 235.32336 321.06353 234.57933 321.20619 233.75 321.28906 L 233.75 316.02148 C 233.82719 315.88468 233.89434 315.74241 233.93555 315.58789 C 234.05385 315.23297 234.11328 314.87836 234.11328 314.52344 C 234.13695 314.14486 234.14844 313.83818 234.14844 313.60156 L 234.14844 301.64062 L 234.14844 301.00195 C 234.14844 300.6707 234.08901 300.32758 233.9707 299.97266 C 233.92236 299.77929 233.84735 299.59846 233.75 299.42969 L 233.75 294.18945 z M 252.94727 294.18945 C 253.86346 294.27474 254.66796 294.43432 255.33789 294.68359 C 256.37898 295.06218 257.19362 295.64105 257.78516 296.42188 C 258.37669 297.17903 258.77923 298.12598 258.99219 299.26172 C 259.20513 300.3738 259.301 301.67536 259.27734 303.16602 L 259.27734 312.74805 C 259.27734 314.21504 259.14699 315.49361 258.88672 316.58203 C 258.62645 317.64679 258.18746 318.5343 257.57227 319.24414 C 256.98073 319.95397 256.17759 320.48688 255.16016 320.8418 C 254.52374 321.0638 253.77844 321.20821 252.94727 321.29102 L 252.94727 316.03125 C 253.02699 315.8918 253.09459 315.74586 253.13672 315.58789 C 253.25503 315.23297 253.31445 314.87836 253.31445 314.52344 C 253.33812 314.14486 253.34961 313.83818 253.34961 313.60156 L 253.34961 301.64062 L 253.34961 301.00195 C 253.34961 300.6707 253.29018 300.32758 253.17188 299.97266 C 253.12297 299.77702 253.04685 299.59429 252.94727 299.42383 L 252.94727 294.18945 z M 195.35742 294.19141 C 196.26773 294.27709 197.06782 294.43558 197.73438 294.68359 C 198.77547 295.06218 199.59206 295.64105 200.18359 296.42188 C 200.77513 297.17903 201.17767 298.12598 201.39062 299.26172 C 201.60357 300.3738 201.69749 301.67536 201.67383 303.16602 L 201.67383 312.74805 C 201.67383 314.21504 201.54348 315.49361 201.2832 316.58203 C 201.02293 317.64679 200.5859 318.5343 199.9707 319.24414 C 199.37917 319.95397 198.57407 320.48688 197.55664 320.8418 C 196.92349 321.06266 196.18277 321.20597 195.35742 321.28906 L 195.35742 316.00391 C 195.43006 315.87198 195.49563 315.73611 195.53516 315.58789 C 195.65346 315.23297 195.71094 314.87836 195.71094 314.52344 C 195.7346 314.14486 195.74805 313.83818 195.74805 313.60156 L 195.74805 301.64062 L 195.74805 301.00195 C 195.74805 300.6707 195.68862 300.32758 195.57031 299.97266 C 195.52299 299.78337 195.45219 299.60517 195.35742 299.43945 L 195.35742 294.19141 z M 214.55273 294.19141 C 215.46553 294.27692 216.26757 294.43505 216.93555 294.68359 C 217.97665 295.06218 218.79323 295.64105 219.38477 296.42188 C 219.97629 297.17903 220.37884 298.12598 220.5918 299.26172 C 220.80475 300.3738 220.89866 301.67536 220.875 303.16602 L 220.875 312.74805 C 220.875 314.21504 220.74465 315.49361 220.48438 316.58203 C 220.2241 317.64679 219.78707 318.5343 219.17188 319.24414 C 218.58035 319.95397 217.77525 320.48688 216.75781 320.8418 C 216.12318 321.06318 215.38047 321.2061 214.55273 321.28906 L 214.55273 316.01367 C 214.62744 315.87907 214.69393 315.73956 214.73438 315.58789 C 214.85268 315.23297 214.91211 314.87836 214.91211 314.52344 C 214.93578 314.14486 214.94727 313.83818 214.94727 313.60156 L 214.94727 301.64062 L 214.94727 301.00195 C 214.94727 300.6707 214.88979 300.32758 214.77148 299.97266 C 214.72337 299.78019 214.6499 299.59974 214.55273 299.43164 L 214.55273 294.19141 z M 192.14258 294.21484 L 192.14258 299.4668 C 192.12749 299.49565 192.10574 299.51666 192.0918 299.54688 C 191.97349 299.8308 191.90257 300.16048 191.87891 300.53906 C 191.85524 300.89398 191.84375 301.26205 191.84375 301.64062 L 191.84375 313.60156 C 191.84375 314.0038 191.85524 314.40439 191.87891 314.80664 C 191.90257 315.18522 191.97349 315.54179 192.0918 315.87305 C 192.10482 315.90692 192.12782 315.93411 192.14258 315.9668 L 192.14258 321.2793 C 190.40331 321.07606 189.00024 320.53094 187.93945 319.63477 C 186.59076 318.47536 185.91602 316.60642 185.91602 314.02734 L 185.91602 301.64062 C 185.91602 298.9669 186.59076 297.05003 187.93945 295.89062 C 188.99171 294.98352 190.39509 294.42665 192.14258 294.21484 z M 211.33984 294.21484 L 211.33984 299.47266 C 211.32596 299.49946 211.30588 299.51891 211.29297 299.54688 C 211.17466 299.8308 211.10374 300.16048 211.08008 300.53906 C 211.05641 300.89398 211.04297 301.26205 211.04297 301.64062 L 211.04297 313.60156 C 211.04297 314.0038 211.05641 314.40439 211.08008 314.80664 C 211.10374 315.18522 211.17467 315.54179 211.29297 315.87305 C 211.30493 315.90414 211.32646 315.92888 211.33984 315.95898 L 211.33984 321.2793 C 209.60233 321.0757 208.20064 320.53029 207.14062 319.63477 C 205.79193 318.47536 205.11719 316.60642 205.11719 314.02734 L 205.11719 301.64062 C 205.11719 298.9669 205.79193 297.05003 207.14062 295.89062 C 208.19212 294.98417 209.59412 294.427 211.33984 294.21484 z M 230.53516 294.2168 L 230.53516 299.47852 C 230.52246 299.50326 230.50406 299.52114 230.49219 299.54688 C 230.37388 299.8308 230.30296 300.16048 230.2793 300.53906 C 230.25563 300.89398 230.24414 301.26205 230.24414 301.64062 L 230.24414 313.60156 C 230.24414 314.0038 230.25563 314.40439 230.2793 314.80664 C 230.30296 315.18522 230.37389 315.54179 230.49219 315.87305 C 230.50329 315.90192 230.5228 315.92512 230.53516 315.95312 L 230.53516 321.27734 C 228.79983 321.0732 227.39867 320.52928 226.33984 319.63477 C 224.99116 318.47536 224.31836 316.60642 224.31836 314.02734 L 224.31836 301.64062 C 224.31836 298.9669 224.99116 297.05003 226.33984 295.89062 C 227.3905 294.9849 228.79085 294.42934 230.53516 294.2168 z M 249.73242 294.2168 L 249.73242 299.48438 C 249.72089 299.50704 249.7042 299.52339 249.69336 299.54688 C 249.57505 299.8308 249.50414 300.16048 249.48047 300.53906 C 249.4568 300.89398 249.44531 301.26205 249.44531 301.64062 L 249.44531 313.60156 C 249.44531 314.0038 249.4568 314.40439 249.48047 314.80664 C 249.50414 315.18522 249.57505 315.54179 249.69336 315.87305 C 249.7034 315.89914 249.72136 315.91992 249.73242 315.94531 L 249.73242 321.27734 C 247.99851 321.07302 246.59945 320.52896 245.54102 319.63477 C 244.19232 318.47536 243.51758 316.60642 243.51758 314.02734 L 243.51758 301.64062 C 243.51758 298.9669 244.19232 297.05003 245.54102 295.89062 C 246.5909 294.98555 247.98987 294.42968 249.73242 294.2168 z M 143.59961 294.68359 L 147.60938 294.68359 L 147.60938 320.73438 L 141.9668 320.73438 L 141.9668 302.77539 L 136.53516 302.77539 L 136.53516 298.69336 C 137.24499 298.69336 137.97916 298.63588 138.73633 298.51758 C 139.51715 298.39927 140.23788 298.18455 140.90039 297.87695 C 141.56291 297.56935 142.13225 297.15531 142.60547 296.63477 C 143.10236 296.11422 143.43398 295.46442 143.59961 294.68359 z M 156.375 301.03711 L 162.37305 301.03711 L 162.37305 307.10547 L 156.375 307.10547 L 156.375 301.03711 z M 156.375 314.66602 L 162.37305 314.66602 L 162.37305 320.73438 L 156.375 320.73438 L 156.375 314.66602 z M 479.35742 514.85938 L 595.52344 514.85938 L 595.52344 592.7168 L 479.35742 592.7168 L 479.35742 514.85938 z M 145.89258 514.86133 L 273.21484 514.86133 L 273.21484 592.71875 L 145.89258 592.71875 L 145.89258 514.86133 z "
       id="rect3384-8" />
    <path
       style="opacity:0.98999999;fill:#ffb380;fill-opacity:0.99215686;stroke:none;stroke-width:3.37588954;stroke-linecap:butt;stroke-miterlimit:4;stroke-dasharray:none;stroke-dashoffset:0"
       d="M 490.38086 165.10547 L 487.89844 172.9082 L 476.21875 185.31836 L 462.34961 208.16602 L 462.68555 220.59375 L 464.43945 235.04688 L 469.64844 255.39453 L 487.9707 286.19922 L 493.22656 298.75586 L 492.78906 306.34766 L 488.70117 308.75586 L 477.38672 311.23828 L 456.07227 313.5 L 430.08398 318.39258 L 419.57422 314.96094 L 417.00391 297.24414 L 413.49414 297.24414 L 409.51953 278.14648 L 394.91211 280.26367 L 395.16992 283.61719 L 373.07812 288.4707 L 356.25195 294.14844 L 345.04297 319.7793 L 331.9043 331.67773 L 320.29688 340.65625 L 312.26758 350.29102 L 306.86523 367.08008 L 301.75586 379.63672 L 297.52148 384.30859 L 278.68945 364.30664 L 266.86328 347.08008 L 259.70898 342.8457 L 247.00781 345.47266 L 223.35742 352.77344 L 219.56055 363.43164 L 215.03516 370 L 199.41406 371.16797 L 174.30273 370.73047 L 156.65039 369.61133 L 149.16406 371.26367 L 138.89258 386.2832 L 127.58984 409.97656 L 132.85352 414.62109 L 187.36914 424.82227 L 207.51562 424.82227 L 220.72852 422.84961 L 236.27734 425.04102 L 241.5332 439.78516 L 226.56836 440.80859 L 226.49609 456.64844 L 233.28516 464.89648 L 240.87695 467.52539 L 265.91406 471.24805 L 267.8125 481.75977 L 273.28711 493.94922 L 279.85742 496.57812 L 315.16406 498.44727 L 354.70312 497.93164 L 375.55664 496.2793 L 379.99609 501.44141 L 381.75 510.83594 L 379.89258 519.81641 L 377.31055 527.76562 L 368.74219 543.35352 L 368.22656 554.91602 L 389.38867 563.48438 L 389.69922 579.69141 L 390.73242 600.85547 L 386.91211 604.4668 L 385.9043 612.39258 L 609.5625 612.39258 C 617.41446 612.39258 623.73633 606.07071 623.73633 598.21875 L 623.73633 179.27734 C 623.73633 171.42537 617.41446 165.10547 609.5625 165.10547 L 490.38086 165.10547 z M 479.35742 514.86133 L 595.52539 514.86133 L 595.52539 592.71875 L 479.35742 592.71875 L 479.35742 514.86133 z "
       id="rect3384-8-4" />
    <path
       style="overflow:hidden;fill:#ffb380;fill-rule:evenodd;stroke:none;stroke-width:2.20174479px;stroke-linecap:butt;stroke-linejoin:miter;stroke-opacity:1;text-rendering:optimizeLegibility"
       d="M 206.38672 165.03516 L 208.29492 169.21484 L 199.67969 181.18555 L 201.28711 190.38281 L 205.375 201.1875 L 209.60742 212.86719 L 226.68945 208.63281 L 245.81445 206.88086 L 247.85938 217.97656 L 249.75586 224.40039 L 254.13672 229.65625 L 263.04102 231.8457 L 269.75781 232.13672 L 278.37109 231.26172 L 283.62695 238.41602 L 284.21094 247.75977 L 282.89648 254.91211 L 282.60547 260.46094 L 298.37305 261.04492 L 301.73047 268.63672 L 310.49023 271.84766 L 320.70898 271.11719 L 324.06836 267.90625 L 341.44141 266.44531 L 341.58594 261.91992 L 346.69727 260.89844 L 346.62305 240.75195 L 331.80469 238.19531 L 330.12695 234.47266 L 311.2207 232.42969 L 309.32227 218.26758 L 303.48242 217.53711 L 305.52539 196.66016 L 341.29492 194.68945 L 342.75391 172.79102 L 348.52148 170.52734 L 349.52734 165.03516 L 206.38672 165.03516 z "
       id="path4257-0" />
    <rect
       style="opacity:0.98999999;fill:#00aa00;fill-opacity:0.99215686;stroke:none;stroke-width:3.62701154;stroke-linecap:butt;stroke-miterlimit:4;stroke-dasharray:none;stroke-dashoffset:0"
       id="rect4368"
       width="120.89917"
       height="70.682358"
       x="149.19113"
       y="518.63965" />
    <circle
       style="opacity:0.98999999;fill:#ff0000;fill-opacity:0.99215686;stroke:none;stroke-width:4.34865093;stroke-linecap:butt;stroke-miterlimit:4;stroke-dasharray:none;stroke-dashoffset:0"
       id="path4366"
       cx="203.34686"
       cy="553.9101"
       r="24.963415" />
    <ellipse
       style="opacity:0.98999999;fill:#000080;fill-opacity:0.99215686;stroke:none;stroke-width:3.54330707;stroke-linecap:butt;stroke-miterlimit:4;stroke-dasharray:none;stroke-dashoffset:0"
       id="path4955"
       cx="536.3764"
       cy="553.84277"
       rx="10.159302"
       ry="9.9670172" />
    <rect
       style="opacity:0.98999999;fill:#ffb380;fill-opacity:0.99215686;stroke:none;stroke-width:3.54330707;stroke-linecap:butt;stroke-miterlimit:4;stroke-dasharray:none;stroke-dashoffset:0"
       id="rect3699"
       width="109.77675"
       height="21.844549"
       x="482.32532"
       y="518.62286" />
    <rect
       style="opacity:0.98999999;fill:#008000;fill-opacity:0.99215686;stroke:none;stroke-width:3.54330707;stroke-linecap:butt;stroke-miterlimit:4;stroke-dasharray:none;stroke-dashoffset:0"
       id="rect3716"
       width="109.77675"
       height="21.718279"
       x="482.32532"
       y="567.48901" />
    <g
       id="g4246"
       transform="translate(-499.21739,458.20519)">
      <path
         id="rect4109"
         d="m 789.16992,200.29883 c -9.81496,0 -17.7168,7.90183 -17.7168,17.71679 l 0,52.24805 c 0,9.81496 7.90184,17.7168 17.7168,17.7168 l 73.14453,0 0,36.39844 c -0.94039,2.29931 -1.8721,4.62199 -2.80468,6.93164 l 6.29687,2.27343 9.32617,-2.1914 9.19531,3.46875 6.25391,-4.46875 c 0.63931,-1.94189 1.33755,-4.01561 1.91211,-5.90039 l 0,-36.51172 82.21289,0 c 9.81496,0 17.7168,-7.90184 17.7168,-17.7168 l 0,-52.24805 c 0,-9.81496 -7.90184,-17.71679 -17.7168,-17.71679 l -185.53711,0 z m 45.22852,7.47265 c 0.42984,0.17194 0.88978,0.40094 1.37695,0.6875 0.40119,0.25792 0.83055,0.58904 1.28906,0.99024 0.45851,0.40119 0.88787,0.93074 1.28907,1.58984 0.45851,0.83106 0.77337,1.68977 0.94531,2.57813 0.2006,0.8597 0.31705,1.89211 0.3457,3.0957 l 2.57422,0 0.60547,0 23.12305,0 3.67968,0 c 0,-1.00299 -0.0286,-1.96384 -0.0859,-2.88086 -0.0573,-0.77373 -0.14321,-1.54657 -0.25782,-2.32031 -0.11463,-0.77373 -0.27206,-1.38914 -0.47265,-1.84766 -0.11463,-0.22925 -0.22913,-0.41726 -0.34375,-0.56054 -0.086,-0.14328 -0.17184,-0.2721 -0.25782,-0.38672 -0.11462,-0.11463 -0.20049,-0.22912 -0.25781,-0.34375 l 0.30078,-0.60157 c 0.42986,0.17194 0.88784,0.40094 1.375,0.6875 0.4012,0.25792 0.83251,0.58904 1.29102,0.99024 0.45851,0.40119 0.88787,0.93074 1.28906,1.58984 0.45851,0.83106 0.77337,1.68977 0.94531,2.57813 0.2006,0.8597 0.31509,1.89211 0.34375,3.0957 l 16.11914,0 22.29883,0 2.15039,3.7832 -9.41406,0 0,1.50391 c 0.68777,0.20059 1.34611,0.47252 1.97656,0.81641 0.63046,0.31522 1.17626,0.68733 1.63477,1.11718 0.48717,0.4012 0.85927,0.84682 1.11719,1.33399 0.28656,0.48716 0.42968,0.97377 0.42968,1.46094 l 0,12.67968 -3.43945,-2.66406 c -0.51583,0.51582 -1.18848,0.98812 -2.01953,1.41797 -0.5221,0.27005 -1.08319,0.49324 -1.66211,0.69531 l 0,-2.83984 c 0.47412,-0.17143 0.93166,-0.35563 1.36133,-0.5625 0.80239,-0.37254 1.43211,-0.76092 1.89062,-1.16211 l 0,-1.58985 c -1.03469,-0.7959 -2.11919,-1.38623 -3.25195,-1.78906 l 0,-2.92383 c 1.10218,0.48187 2.18725,1.1858 3.25195,2.13477 l 0,-3.35352 c 0,-0.83105 -0.45798,-1.46077 -1.375,-1.89062 -0.88836,-0.45851 -1.97804,-0.573 -3.26757,-0.34375 -0.91703,0.14329 -1.64693,0.27209 -2.19141,0.38672 -0.54448,0.11462 -1.05971,0.25775 -1.54688,0.42969 -0.48716,0.14328 -1.01865,0.32934 -1.59179,0.55859 -0.57314,0.22925 -1.34598,0.5298 -2.32032,0.90234 l -0.94531,-2.14843 c 0.97434,-0.4012 1.93323,-0.78957 2.87891,-1.16211 0.83104,-0.31523 1.70603,-0.6301 2.62304,-0.94532 0.9457,-0.31522 1.8044,-0.55853 2.57813,-0.73047 0.0573,-0.0287 0.1146,-0.043 0.17187,-0.043 0.086,0 0.15754,-0.0143 0.21485,-0.043 l 0,-1.2461 -9.40235,0 -18.26953,0 0,5.58789 c 0.14328,-0.11462 0.48677,-0.40086 1.03125,-0.85937 0.57314,-0.45851 1.24775,-0.93276 2.02149,-1.41992 0.77373,-0.51582 1.61813,-0.95949 2.53515,-1.33203 0.91702,-0.4012 1.82062,-0.60157 2.70899,-0.60157 0.68777,0 1.37474,0.12881 2.0625,0.38672 0.71643,0.22926 1.37672,0.57274 1.97851,1.03125 0.6018,0.45851 1.11703,1.00431 1.54688,1.63477 0.45851,0.60179 0.77337,1.27445 0.94531,2.01953 0.2006,0.94567 0.25785,1.79203 0.17188,2.53711 -0.0573,0.71642 -0.25771,1.50357 -0.60157,2.36328 -0.34388,0.85971 -0.83049,1.8778 -1.46093,3.05273 -0.63046,1.17494 -1.40525,2.66337 -2.32227,4.46875 -0.65911,-0.0573 -1.17433,-0.24338 -1.54687,-0.55859 -0.31522,-0.28657 -0.52991,-0.71592 -0.64453,-1.28906 -0.086,-0.57314 0.14301,-1.37461 0.6875,-2.40625 0.5158,-1.003 0.93087,-1.97816 1.24609,-2.92383 0.34389,-0.94568 0.54425,-1.8187 0.60156,-2.62109 0.0573,-0.8024 -0.0285,-1.50563 -0.25781,-2.10743 -0.2006,-0.63045 -0.58702,-1.10274 -1.16016,-1.41796 -0.4012,-0.22926 -0.80192,-0.401 -1.20312,-0.51563 -0.37254,-0.11463 -0.80385,-0.12893 -1.29102,-0.043 -0.48716,0.0573 -1.04533,0.24339 -1.67578,0.5586 -0.60179,0.28656 -1.31739,0.74454 -2.14844,1.375 l -3.22461,2.4082 0,9.54101 -3.86914,-3.73828 0,-15.13086 -1.53125,0 -9.41406,0 0,1.50391 c 0.68777,0.20059 1.34807,0.47252 1.97852,0.81641 0.63045,0.31522 1.1743,0.68733 1.63281,1.11718 0.48717,0.4012 0.85927,0.84682 1.11719,1.33399 0.28657,0.48716 0.42968,0.97377 0.42968,1.46094 l 0,12.67968 -3.4375,-2.66406 c -0.51583,0.51582 -1.19043,0.98812 -2.02148,1.41797 -0.49502,0.25604 -1.0228,0.47109 -1.56836,0.66601 l 0,-2.83984 c 0.44144,-0.1628 0.86472,-0.33924 1.26758,-0.5332 0.80238,-0.37254 1.43406,-0.76092 1.89258,-1.16211 l 0,-1.58985 c -1.00605,-0.77387 -2.06114,-1.35167 -3.16016,-1.7539 l 0,-2.92188 c 1.07062,0.48113 2.12498,1.17501 3.16016,2.09766 l 0,-3.35352 c 0,-0.83105 -0.45994,-1.46077 -1.37696,-1.89062 -0.88836,-0.45851 -1.97606,-0.573 -3.26562,-0.34375 -0.91702,0.14329 -1.64888,0.27209 -2.19336,0.38672 -0.54449,0.11462 -1.05971,0.25775 -1.54688,0.42969 -0.11607,0.0341 -0.258,0.0938 -0.3789,0.13281 l -0.0234,0 0,0.008 c -0.38002,0.12323 -0.75932,0.2467 -1.1875,0.41797 -0.57313,0.22925 -1.34793,0.5298 -2.32227,0.90234 l -0.94531,-2.14843 c 0.97434,-0.4012 1.93518,-0.78957 2.88086,-1.16211 0.83105,-0.31523 1.70408,-0.6301 2.6211,-0.94532 0.94568,-0.31522 1.80634,-0.55852 2.58007,-0.73047 0.0573,-0.0287 0.11458,-0.043 0.17188,-0.043 0.086,0 0.15753,-0.0143 0.21484,-0.043 l 0,-1.2461 -10.18359,0 -0.64844,0 -4.72461,0 0,15.13086 c -0.68776,0.77374 -1.51981,1.50364 -2.49414,2.19141 -0.94569,0.68777 -1.96378,1.2173 -3.05273,1.58984 -0.44188,0.1628 -0.89189,0.28069 -1.34766,0.37305 l 0,-2.65625 c 1.07493,-0.42904 2.0842,-1.44132 3.02539,-3.04688 l 0,-4.2539 c -1.17368,-0.8854 -2.1475,-1.5598 -3.02539,-2.13477 l 0,-3.86718 c 0.76121,0.48072 1.41352,0.94958 1.95117,1.40234 l 1.07422,0.85937 0,-5.58789 -17.49609,0 -2.14844,-3.7832 19.64453,0 c 0,-1.00299 -0.0286,-1.96384 -0.0859,-2.88086 -0.0573,-0.77374 -0.1432,-1.54658 -0.25781,-2.32031 -0.11463,-0.77373 -0.27206,-1.38914 -0.47266,-1.84766 -0.11462,-0.22925 -0.22912,-0.41726 -0.34375,-0.56054 -0.086,-0.14328 -0.17378,-0.2721 -0.25976,-0.38672 -0.11462,-0.11464 -0.2005,-0.22913 -0.25781,-0.34375 l 0.30078,-0.60157 z m 79.82226,0 c 0.42986,0.17194 0.88784,0.40094 1.375,0.6875 0.4012,0.25792 0.83056,0.58904 1.28907,0.99024 0.45851,0.40119 0.88786,0.93074 1.28906,1.58984 0.45851,0.83106 0.77532,1.68977 0.94726,2.57813 0.2006,0.8597 0.3151,1.89211 0.34375,3.0957 l 0,22.65234 -3.86914,-3.73828 0,-18.91406 c 0,-1.00299 -0.0286,-1.96384 -0.0859,-2.88086 -0.0573,-0.77374 -0.14321,-1.54658 -0.25782,-2.32031 -0.11462,-0.77373 -0.27205,-1.38914 -0.47265,-1.84766 -0.11462,-0.22925 -0.22912,-0.41726 -0.34375,-0.56054 -0.086,-0.14328 -0.17184,-0.2721 -0.25782,-0.38672 -0.11462,-0.11464 -0.20049,-0.22913 -0.25781,-0.34375 l 0.30078,-0.60157 z m 6.92188,8.94141 23.72656,0 2.15039,3.7832 -9.41406,0 0,1.50391 c 0.68777,0.20059 1.34611,0.47252 1.97656,0.81641 0.63045,0.31522 1.17626,0.68733 1.63477,1.11718 0.48716,0.4012 0.85927,0.84682 1.11718,1.33399 0.28657,0.48716 0.42969,0.97377 0.42969,1.46094 l 0,12.67968 -3.43945,-2.66406 c -0.51583,0.51582 -1.18848,0.98812 -2.01953,1.41797 -0.5457,0.28226 -1.13443,0.5127 -1.74219,0.7207 l 0,-2.83789 c 0.50264,-0.17878 0.9882,-0.37163 1.44141,-0.58984 0.80239,-0.37254 1.43211,-0.76092 1.89062,-1.16211 l 0,-1.58985 c -1.05855,-0.81427 -2.17058,-1.41548 -3.33203,-1.81835 l 0,-2.92579 c 1.12963,0.48193 2.24171,1.19421 3.33203,2.16602 l 0,-3.35352 c 0,-0.83105 -0.45798,-1.46077 -1.375,-1.89062 -0.88836,-0.45851 -1.97802,-0.573 -3.26758,-0.34375 -0.91702,0.14329 -1.64692,0.27209 -2.1914,0.38672 -0.54448,0.11462 -1.06166,0.25775 -1.54883,0.42969 -0.48717,0.14328 -1.01672,0.32934 -1.58984,0.55859 -0.57315,0.22925 -1.34598,0.5298 -2.32032,0.90234 l -0.94726,-2.14843 c 0.97434,-0.4012 1.93518,-0.78957 2.88086,-1.16211 0.83104,-0.31523 1.70602,-0.6301 2.62304,-0.94532 0.94568,-0.31522 1.80439,-0.55852 2.57813,-0.73047 0.0573,-0.0287 0.11459,-0.043 0.17187,-0.043 0.086,0 0.15754,-0.0143 0.21485,-0.043 l 0,-1.2461 -10.83203,0 -2.14844,-3.7832 z m -94.01758,5.19141 0,3.76562 c -0.30422,0.0908 -0.60313,0.20569 -0.89258,0.3711 -0.91702,0.51582 -1.46087,1.31729 -1.63281,2.40625 -0.17194,1.0603 -0.0718,2.16427 0.30078,3.31054 0.4012,1.14628 1.0023,2.23593 1.80469,3.26758 0.13648,0.16472 0.27885,0.30976 0.41992,0.45899 l 0,3.31054 c -0.096,-0.0464 -0.17497,-0.0816 -0.46289,-0.24609 -0.37255,-0.22926 -0.83053,-0.54411 -1.375,-0.94531 -0.54448,-0.42985 -1.13322,-0.9737 -1.76367,-1.63282 -0.6018,-0.6591 -1.13134,-1.41959 -1.58985,-2.27929 -0.45851,-0.88836 -0.80199,-1.8902 -1.03125,-3.00782 -0.2006,-1.11762 -0.18629,-2.3647 0.043,-3.74023 0.11463,-0.74508 0.38656,-1.41774 0.81641,-2.01953 0.45851,-0.63046 0.98806,-1.17626 1.58984,-1.63477 0.63046,-0.45851 1.30507,-0.80199 2.02149,-1.03125 0.59475,-0.21411 1.17714,-0.31719 1.75195,-0.35351 z m 24.0625,5.24804 0,3.39454 c -0.32733,0.11772 -0.64184,0.25626 -0.92969,0.4375 -0.77373,0.4585 -1.26034,1.14548 -1.46093,2.0625 -0.22926,1.00299 -0.17201,1.7921 0.17187,2.36523 0.34388,0.57314 0.84479,0.97387 1.50391,1.20312 0.22613,0.0754 0.46716,0.12945 0.71484,0.17383 l 0,2.73438 c -0.52229,-0.0568 -1.03257,-0.1511 -1.53125,-0.28711 -0.94567,-0.25792 -1.80634,-0.67296 -2.58008,-1.2461 -0.77373,-0.57313 -1.37483,-1.33166 -1.80469,-2.27734 -0.48716,-1.00299 -0.64459,-2.00677 -0.47265,-3.00977 0.2006,-1.00299 0.61564,-1.90463 1.24609,-2.70703 0.65911,-0.83104 1.50351,-1.50566 2.53516,-2.02148 0.81747,-0.41979 1.68757,-0.69216 2.60742,-0.82227 z m 45.875,0.0117 0,3.41602 c -0.29364,0.1121 -0.57697,0.24001 -0.83789,0.4043 -0.77374,0.4585 -1.26034,1.14547 -1.46094,2.0625 -0.22925,1.00299 -0.172,1.7921 0.17188,2.36523 0.34388,0.57314 0.8448,0.97387 1.5039,1.20312 0.19833,0.0661 0.40792,0.11594 0.62305,0.15821 l 0,2.74218 c -0.49041,-0.0579 -0.9704,-0.15136 -1.43945,-0.27929 -0.94568,-0.25792 -1.80439,-0.67296 -2.57813,-1.2461 -0.77374,-0.57313 -1.37679,-1.33166 -1.80664,-2.27734 -0.48717,-1.00299 -0.64458,-2.00677 -0.47266,-3.00977 0.20061,-1.00299 0.6176,-1.90463 1.24805,-2.70703 0.6591,-0.83104 1.5035,-1.50566 2.53516,-2.02148 0.78989,-0.40563 1.62817,-0.6754 2.51367,-0.81055 z m 32.875,0.0156 0,3.42773 c -0.26471,0.10632 -0.52024,0.22737 -0.75781,0.37696 -0.77374,0.4585 -1.26034,1.14547 -1.46094,2.0625 -0.22925,1.00299 -0.17201,1.7921 0.17187,2.36523 0.34389,0.57314 0.8448,0.97387 1.50391,1.20312 0.17432,0.0581 0.35566,0.1068 0.54297,0.14649 l 0,2.74219 c -0.46241,-0.0584 -0.91605,-0.14667 -1.35938,-0.26758 -0.94567,-0.25792 -1.80439,-0.67296 -2.57812,-1.2461 -0.77373,-0.57313 -1.37679,-1.33166 -1.80664,-2.27734 -0.48717,-1.00299 -0.6446,-2.00677 -0.47266,-3.00977 0.2006,-1.00299 0.61565,-1.90463 1.2461,-2.70703 0.6591,-0.83104 1.50545,-1.50566 2.53711,-2.02148 0.76573,-0.39322 1.57799,-0.65589 2.43359,-0.79492 z m -150.85352,16.26953 c 0.42986,0.17194 0.88784,0.40093 1.375,0.6875 0.4012,0.25791 0.83056,0.58903 1.28907,0.99023 0.45851,0.4012 0.88983,0.93074 1.29101,1.58985 0.45852,0.83105 0.77335,1.68976 0.94532,2.57812 0.2006,0.85971 0.31508,1.89212 0.34374,3.0957 l 14.4004,0 3.375,0 c 0,-1.00298 -0.0286,-1.96383 -0.0859,-2.88085 -0.0573,-0.77374 -0.14321,-1.54658 -0.25781,-2.32032 -0.11463,-0.77373 -0.27206,-1.38914 -0.47266,-1.84765 -0.11463,-0.22926 -0.22912,-0.41531 -0.34375,-0.5586 -0.086,-0.14328 -0.17379,-0.27404 -0.25977,-0.38867 -0.11462,-0.11463 -0.2005,-0.22912 -0.25781,-0.34375 l 0.30078,-0.60156 c 0.42986,0.17194 0.88979,0.40093 1.37696,0.6875 0.40119,0.25791 0.83054,0.58903 1.28906,0.99023 0.4585,0.4012 0.88786,0.93074 1.28906,1.58985 0.45851,0.83105 0.77337,1.68976 0.94531,2.57812 0.2006,0.85971 0.31705,1.89212 0.34571,3.0957 l 16.11914,0 22.29882,0 23.28126,0 18.63867,0 23.12695,0 3.72461,0 c 0,-1.00298 -0.0286,-1.96383 -0.0859,-2.88085 -0.0573,-0.77374 -0.1432,-1.54658 -0.25781,-2.32032 -0.11463,-0.77373 -0.27206,-1.38914 -0.47266,-1.84765 -0.11462,-0.22926 -0.22912,-0.41531 -0.34375,-0.5586 -0.086,-0.14328 -0.17183,-0.27404 -0.25781,-0.38867 -0.11462,-0.11463 -0.20245,-0.22912 -0.25976,-0.34375 l 0.30273,-0.60156 c 0.42985,0.17194 0.88783,0.40093 1.375,0.6875 0.4012,0.25791 0.83056,0.58903 1.28906,0.99023 0.45852,0.4012 0.88787,0.93074 1.28906,1.58985 0.45852,0.83105 0.77338,1.68976 0.94532,2.57812 0.2006,0.85971 0.31705,1.89212 0.3457,3.0957 l 16.11914,0 23.43164,0 18.72461,0 11.09375,0 2.19141,3.78321 -5.33008,0 0,18.87109 -3.86914,-3.74023 0,-15.13086 -1.93555,0 -14.31445,0 0,5.58789 0,1.80469 4.25586,-3.69532 c 0.22926,-0.2006 0.51549,-0.46016 0.85937,-0.77539 0.34388,-0.31522 0.70167,-0.60146 1.07422,-0.85937 0.40119,-0.25791 0.78762,-0.45828 1.16016,-0.60156 0.37254,-0.17194 0.6874,-0.20055 0.94531,-0.0859 0.34388,0.14328 0.68932,0.4009 1.0332,0.77344 0.37254,0.34388 0.73034,0.74461 1.07422,1.20312 0.37255,0.45851 0.70172,0.93276 0.98828,1.41992 0.31523,0.48717 0.58716,0.93084 0.81641,1.33203 l -2.83594,3.05274 c -0.17194,-0.28657 -0.38857,-0.60338 -0.64648,-0.94727 -0.25792,-0.37254 -0.52984,-0.70171 -0.81641,-0.98828 -0.28657,-0.28657 -0.58711,-0.51556 -0.90234,-0.6875 -0.28657,-0.17194 -0.5585,-0.22919 -0.81641,-0.17187 -0.25791,0.086 -0.64435,0.25771 -1.16015,0.51562 -0.51586,0.22925 -1.07595,0.51549 -1.67774,0.85938 -0.6018,0.31522 -1.2029,0.66066 -1.80469,1.0332 -0.6018,0.34389 -1.11702,0.65875 -1.54687,0.94531 l 0,2.75 0,6.40625 -3.86914,-3.74023 0,-15.13086 -0.54297,0 -9.41406,0 0,1.5039 c 0.68776,0.2006 1.34807,0.47252 1.97851,0.81641 0.63046,0.31523 1.1743,0.68734 1.63281,1.11719 0.48716,0.4012 0.85928,0.84682 1.11719,1.33398 0.28658,0.48717 0.42969,0.97377 0.42969,1.46094 l 0,12.68164 -3.4375,-2.66601 c -0.51583,0.5158 -1.19043,0.98811 -2.02149,1.41796 -0.57172,0.29573 -1.18887,0.53578 -1.82812,0.75 l 0,-2.83984 c 0.5334,-0.18654 1.04853,-0.38665 1.52734,-0.61719 0.80239,-0.37254 1.43407,-0.75896 1.89258,-1.16015 l 0,-1.5918 c -1.08543,-0.83496 -2.22632,-1.44913 -3.41992,-1.85156 l 0,-2.92774 c 1.15991,0.48136 2.30137,1.2042 3.41992,2.20117 l 0,-3.35351 c 0,-0.83105 -0.45993,-1.46077 -1.37695,-1.89063 -0.88836,-0.4585 -1.97607,-0.573 -3.26563,-0.34375 -0.91702,0.14329 -1.64888,0.2721 -2.19336,0.38672 -0.54448,0.11463 -1.0597,0.25775 -1.54687,0.42969 -0.48717,0.14329 -1.01671,0.32934 -1.58984,0.55859 -0.57314,0.22926 -1.34794,0.52981 -2.32227,0.90235 l -0.94531,-2.14844 c 0.97433,-0.40119 1.93322,-0.78957 2.8789,-1.16211 0.83105,-0.31523 1.70603,-0.63009 2.62305,-0.94531 0.94568,-0.31522 1.80634,-0.55852 2.58008,-0.73047 0.0573,-0.0287 0.11459,-0.043 0.17187,-0.043 0.086,0 0.15753,-0.0143 0.21485,-0.043 l 0,-1.24609 -10.53711,0 -18.26758,0 0,5.58789 c 0.14328,-0.11463 0.48676,-0.40086 1.03125,-0.85938 0.56789,-0.4543 1.23517,-0.92376 2,-1.40625 l 0,3.86524 c -0.87915,0.57579 -1.85387,1.25243 -3.03125,2.14062 l 0,4.25391 c 0.95563,1.63019 1.96539,2.6511 3.03125,3.06836 l 0,2.63867 c -0.45851,-0.0921 -0.91138,-0.21138 -1.35547,-0.375 -1.08896,-0.37254 -2.12137,-0.90403 -3.0957,-1.5918 -0.94568,-0.68776 -1.76145,-1.41767 -2.44922,-2.1914 l 0,-15.13086 -1.57422,0 -9.41406,0 0,1.5039 c 0.68776,0.2006 1.34611,0.47252 1.97656,0.81641 0.63045,0.31523 1.17626,0.68734 1.63477,1.11719 0.48716,0.4012 0.85927,0.84682 1.11718,1.33398 0.28657,0.48717 0.42969,0.97377 0.42969,1.46094 l 0,12.68164 -3.43945,-2.66601 c -0.51582,0.51582 -1.18848,0.98811 -2.01953,1.41796 -0.67658,0.34996 -1.41378,0.62739 -2.18555,0.86328 l 0,-2.83789 c 0.66436,-0.21546 1.30197,-0.45181 1.88477,-0.73242 0.80239,-0.37254 1.43211,-0.75896 1.89062,-1.16015 l 0,-1.5918 c -1.11762,-0.85971 -2.2912,-1.48943 -3.52344,-1.89063 -0.0855,-0.0298 -0.16725,-0.0505 -0.25195,-0.0781 l 0,-2.95313 c 1.28293,0.47234 2.54262,1.24498 3.77539,2.34375 l 0,-3.35351 c 0,-0.83105 -0.45798,-1.46077 -1.375,-1.89063 -0.88836,-0.4585 -1.97802,-0.573 -3.26758,-0.34375 -0.91702,0.14329 -1.64692,0.2721 -2.1914,0.38672 -0.54448,0.11463 -1.05971,0.25775 -1.54688,0.42969 -0.48717,0.14329 -1.01866,0.32934 -1.5918,0.55859 -0.57313,0.22926 -1.34597,0.52981 -2.32031,0.90235 l -0.94531,-2.14844 c 0.97433,-0.40119 1.93323,-0.78957 2.87891,-1.16211 0.83105,-0.31523 1.70602,-0.63009 2.62304,-0.94531 0.94568,-0.31522 1.80439,-0.55852 2.57813,-0.73047 0.0573,-0.0287 0.11457,-0.043 0.17187,-0.043 0.086,0 0.15753,-0.0143 0.21485,-0.043 l 0,-1.24609 -10.23243,0 -14.31445,0 0,5.58789 0,1.80469 4.25586,-3.69532 c 0.22925,-0.2006 0.5155,-0.46016 0.85938,-0.77539 0.34388,-0.31522 0.70168,-0.60146 1.07421,-0.85937 0.4012,-0.25791 0.78957,-0.45828 1.16211,-0.60156 0.37254,-0.17194 0.6874,-0.20055 0.94532,-0.0859 0.34388,0.14328 0.68736,0.4009 1.03125,0.77344 0.37253,0.34388 0.73033,0.74461 1.07422,1.20312 0.37252,0.45851 0.7017,0.93276 0.98828,1.41992 0.31522,0.48717 0.5891,0.93084 0.81836,1.33203 l -2.8379,3.05274 c -0.17194,-0.28657 -0.38661,-0.60338 -0.64453,-0.94727 -0.25791,-0.37254 -0.52984,-0.70171 -0.8164,-0.98828 -0.28658,-0.28657 -0.58908,-0.51556 -0.9043,-0.6875 -0.28657,-0.17194 -0.55849,-0.22919 -0.81641,-0.17187 -0.2579,0.086 -0.64433,0.25771 -1.16015,0.51562 -0.51582,0.22925 -1.07398,0.51549 -1.67578,0.85938 -0.60179,0.31522 -1.20484,0.66066 -1.80664,1.0332 -0.6018,0.34389 -1.11703,0.65875 -1.54688,0.94531 l 0,2.75 0,6.40625 -3.86914,-3.74023 0,-15.13086 -0.45312,0 -8.98438,0 0,2.40625 c 0.80239,0.22925 1.51798,0.64626 2.14844,1.24804 0.6591,0.57315 1.21923,1.26011 1.67773,2.0625 0.45852,0.77374 0.802,1.60383 1.03125,2.49219 0.25792,0.88837 0.38672,1.74903 0.38672,2.58008 l 0,10.05859 c 0,0.74508 -0.10018,1.41774 -0.30078,2.01954 -0.2006,0.63044 -0.47253,1.19056 -0.81641,1.67773 -0.34388,0.51583 -0.74657,0.94518 -1.20507,1.28906 -0.42985,0.37254 -0.87352,0.67309 -1.33204,0.90235 -1.00299,0.51582 -1.9762,0.85931 -2.92187,1.03125 -0.94568,0.17194 -1.86359,0.22918 -2.75195,0.17187 -0.85972,-0.0287 -1.6898,-0.17179 -2.49219,-0.42969 -0.77373,-0.22925 -1.50559,-0.50118 -2.19336,-0.8164 -1.57613,-0.74508 -3.05219,-1.77749 -4.42774,-3.09571 l 2.10743,-2.36328 c 0.77373,0.97434 1.60382,1.80442 2.49218,2.49219 0.88837,0.68777 1.77766,1.20495 2.66602,1.54883 0.91702,0.37254 1.81866,0.55859 2.70703,0.55859 0.88835,0 1.73471,-0.20037 2.53711,-0.60156 0.57313,-0.31523 1.04543,-0.70164 1.41797,-1.16016 0.4012,-0.42985 0.61588,-0.9041 0.64453,-1.41992 l 0,-6.36133 c -0.45851,0.74508 -1.13116,1.33187 -2.01953,1.76172 -0.85971,0.4012 -1.82056,0.65881 -2.88086,0.77344 -0.12413,0.0134 -0.25007,0.0167 -0.375,0.0254 l 0,-1.97656 c 0.69245,-0.15709 1.33567,-0.43148 1.92188,-0.8418 0.85969,-0.60179 1.56294,-1.3909 2.10742,-2.36523 0.57314,-1.003 0.93094,-2.03345 1.07422,-3.09375 0.17194,-1.08897 0.11469,-2.13569 -0.17188,-3.13867 -0.28657,-1.03166 -0.85904,-1.86174 -1.71875,-2.49219 -1.02801,-0.77102 -2.09951,-1.12841 -3.21289,-1.07422 l 0,-2.47266 c 0.13916,0.006 0.27822,0.01 0.41797,0.0215 l 0,-1.41797 -10.81641,0 -9.41406,0 0,1.5039 c 0.68777,0.2006 1.34806,0.47252 1.97852,0.81641 0.63044,0.31523 1.17429,0.68734 1.63281,1.11719 0.48716,0.4012 0.85927,0.84682 1.11719,1.33398 0.28656,0.48717 0.42968,0.97377 0.42968,1.46094 l 0,12.68164 -3.4375,-2.66601 c -0.51582,0.51582 -1.19043,0.98811 -2.02148,1.41796 -0.47836,0.24743 -0.98619,0.4581 -1.51172,0.64844 l 0,-2.83984 c 0.42182,-0.15735 0.8246,-0.32961 1.21094,-0.51563 0.8024,-0.37254 1.43407,-0.75896 1.89258,-1.16015 l 0,-1.5918 c -0.98871,-0.76055 -2.025,-1.33084 -3.10352,-1.73242 l 0,-2.91992 c 1.05111,0.4803 2.08662,1.16786 3.10352,2.07421 l 0,-3.35351 c 0,-0.83105 -0.45994,-1.46077 -1.37696,-1.89063 -0.88836,-0.4585 -1.97606,-0.573 -3.26562,-0.34375 -0.91702,0.14329 -1.64888,0.2721 -2.19336,0.38672 -0.54448,0.11463 -1.0597,0.25775 -1.54688,0.42969 -0.48716,0.14329 -1.01671,0.32934 -1.58984,0.55859 -0.57314,0.22926 -1.34793,0.52981 -2.32227,0.90235 l -0.94531,-2.14844 c 0.97434,-0.40119 1.93519,-0.78957 2.88086,-1.16211 0.83105,-0.31523 1.70407,-0.63009 2.62109,-0.94531 0.94568,-0.31522 1.80634,-0.55852 2.58008,-0.73047 0.0573,-0.0287 0.11458,-0.043 0.17188,-0.043 0.086,0 0.15753,-0.0143 0.21484,-0.043 l 0,-1.24609 -9.4043,0 -18.26757,0 0,5.58789 c 0.14328,-0.11463 0.48676,-0.40087 1.03125,-0.85938 0.57313,-0.45851 1.24579,-0.93275 2.01953,-1.41992 0.77373,-0.51582 1.62009,-0.9595 2.53711,-1.33203 0.91702,-0.4012 1.81867,-0.60156 2.70703,-0.60156 0.68776,0 1.37668,0.1288 2.06445,0.38672 0.71642,0.22925 1.37476,0.57273 1.97656,1.03125 0.60179,0.4585 1.11703,1.00431 1.54688,1.63476 0.45851,0.6018 0.77337,1.27445 0.94531,2.01953 0.2006,0.94568 0.25785,1.79203 0.17188,2.53711 -0.0573,0.71642 -0.25771,1.50358 -0.60157,2.36328 -0.34388,0.85971 -0.83048,1.87781 -1.46093,3.05274 -0.63045,1.17493 -1.4033,2.66532 -2.32032,4.4707 -0.6591,-0.0573 -1.17628,-0.24534 -1.54882,-0.56054 -0.31523,-0.28657 -0.52991,-0.71593 -0.64454,-1.28907 -0.086,-0.57313 0.14302,-1.3746 0.6875,-2.40625 0.51583,-1.00299 0.93282,-1.97815 1.24805,-2.92383 0.34388,-0.94567 0.54424,-1.8187 0.60156,-2.62109 0.0573,-0.80239 -0.0285,-1.50563 -0.25781,-2.10742 -0.2006,-0.63045 -0.58897,-1.10274 -1.16211,-1.41797 -0.40119,-0.22925 -0.80192,-0.401 -1.20312,-0.51563 -0.37254,-0.11462 -0.8019,-0.12892 -1.28907,-0.043 -0.48716,0.0573 -1.04532,0.24338 -1.67578,0.55859 -0.60179,0.28657 -1.31934,0.74455 -2.15039,1.375 l -3.22265,2.4082 0,9.54102 -3.86914,-3.73828 0,-15.13086 -1.22657,0 -16.54883,0 0,5.58789 0,1.80469 c 0.7451,-0.65911 1.51792,-1.33177 2.32032,-2.01953 0.80238,-0.71644 1.44838,-1.27459 1.93554,-1.67579 0.22926,-0.2006 0.51549,-0.46016 0.85938,-0.77539 0.34388,-0.31522 0.70168,-0.60146 1.07422,-0.85937 0.4012,-0.25791 0.78762,-0.45828 1.16015,-0.60156 0.37254,-0.17194 0.68936,-0.20055 0.94727,-0.0859 0.34389,0.14328 0.68737,0.4009 1.03125,0.77344 0.37254,0.34388 0.73034,0.74461 1.07422,1.20312 0.37254,0.45851 0.70171,0.93276 0.98828,1.41992 0.31523,0.48717 0.58715,0.93084 0.81641,1.33203 l -2.83594,3.05274 c -0.17193,-0.28657 -0.38661,-0.60338 -0.64453,-0.94727 -0.25792,-0.37254 -0.52984,-0.70171 -0.81641,-0.98828 -0.28657,-0.28657 -0.58907,-0.51556 -0.9043,-0.6875 -0.28656,-0.17194 -0.55849,-0.22919 -0.8164,-0.17187 -0.51582,0.14328 -1.2028,0.45814 -2.0625,0.94531 -0.83106,0.45851 -1.67741,0.97569 -2.53711,1.54883 l 11.08984,10.01562 -2.57812,2.87891 -10.10157,-9.28516 0,6.40625 -3.86914,-3.74023 0,-15.13086 -1.58984,0 -2.15039,-3.78321 3.74023,0 c 0,-1.00298 -0.0286,-1.96383 -0.0859,-2.88085 -0.0573,-0.77374 -0.14321,-1.54658 -0.25782,-2.32032 -0.11463,-0.77373 -0.27206,-1.38914 -0.47265,-1.84765 -0.11463,-0.22926 -0.22913,-0.41531 -0.34375,-0.5586 -0.086,-0.14328 -0.17185,-0.27404 -0.25781,-0.38867 -0.11464,-0.11463 -0.2005,-0.22912 -0.25782,-0.34375 l 0.30078,-0.60156 z m 202.33008,0 2.75,2.70898 -2.75,2.75 -2.70898,-2.75 2.70898,-2.70898 z m -55.72656,14.13281 c 0.573,0.0369 1.15377,0.14027 1.74609,0.35352 0.71642,0.22925 1.37477,0.57273 1.97657,1.03125 0.63044,0.4585 1.15998,1.00431 1.58984,1.63476 0.42985,0.6018 0.71609,1.27445 0.85938,2.01953 0.22924,1.37553 0.22924,2.62262 0,3.74024 -0.20061,1.11762 -0.52977,2.11945 -0.98829,3.00781 -0.4585,0.85971 -1.00236,1.62019 -1.63281,2.2793 -0.6018,0.6591 -1.17428,1.20296 -1.71875,1.63281 -0.54448,0.4012 -1.01872,0.71606 -1.41992,0.94531 -0.25544,0.1572 -0.31841,0.18696 -0.41211,0.23633 l 0,-3.3457 c 0.1238,-0.13593 0.25032,-0.26554 0.36914,-0.41407 0.83105,-1.03165 1.4341,-2.1213 1.80664,-3.26757 0.40119,-1.14628 0.51569,-2.25024 0.34375,-3.31055 -0.17194,-1.0603 -0.71774,-1.86176 -1.63476,-2.40625 -0.28701,-0.164 -0.58324,-0.27852 -0.88477,-0.36914 l 0,-3.76758 z m -74.375,1.29297 0,4.56641 c -0.62155,0.92319 -1.04797,1.89533 -1.26367,2.91992 -0.22926,1.0603 -0.17201,2.11939 0.17187,3.17969 0.22382,0.61979 0.59929,1.17006 1.0918,1.66601 l 0,2.58985 c -0.0768,-0.0439 -0.15707,-0.0827 -0.23242,-0.12891 -1.06031,-0.65911 -1.92097,-1.43195 -2.58008,-2.32031 -0.65911,-0.91702 -1.1314,-1.87787 -1.41797,-2.88086 -0.25791,-1.03165 -0.32947,-2.06211 -0.21484,-3.09375 0.11463,-1.06031 0.41517,-2.04978 0.90234,-2.9668 0.42985,-0.77373 0.97566,-1.47502 1.63477,-2.10547 0.58351,-0.5592 1.22173,-1.03131 1.9082,-1.42578 z m -21.625,3.94922 0,3.38086 c -0.34852,0.12063 -0.68195,0.26539 -0.98633,0.45703 -0.77374,0.45851 -1.26034,1.14548 -1.46094,2.0625 -0.22925,1.00299 -0.17201,1.7921 0.17188,2.36523 0.34388,0.57314 0.8448,0.97388 1.50391,1.20313 0.24314,0.081 0.50341,0.13642 0.77148,0.18164 l 0,2.73242 c -0.54192,-0.0559 -1.07132,-0.15208 -1.58789,-0.29297 -0.94567,-0.25791 -1.80634,-0.67295 -2.58008,-1.24609 -0.77373,-0.57313 -1.37483,-1.33167 -1.80469,-2.27735 -0.48716,-1.00299 -0.6446,-2.00677 -0.47265,-3.00976 0.20059,-1.00299 0.61564,-1.90464 1.24609,-2.70703 0.65911,-0.83105 1.50351,-1.50566 2.53516,-2.02149 0.83401,-0.42827 1.7235,-0.70135 2.66406,-0.82812 z m 111.875,0.0508 0,3.44336 c -0.233,0.0989 -0.45826,0.21048 -0.66992,0.34375 -0.77374,0.45851 -1.26229,1.14548 -1.46289,2.0625 -0.22926,1.00299 -0.17201,1.7921 0.17187,2.36523 0.34388,0.57314 0.84675,0.97388 1.50586,1.20313 0.14623,0.0487 0.29985,0.0873 0.45508,0.12305 l 0,2.75195 c -0.43243,-0.0584 -0.85779,-0.14055 -1.27344,-0.25391 -0.94568,-0.25791 -1.80439,-0.67295 -2.57812,-1.24609 -0.77374,-0.57313 -1.37484,-1.33167 -1.80469,-2.27735 -0.48717,-1.00299 -0.64459,-2.00677 -0.47266,-3.00976 0.2006,-1.00299 0.61564,-1.90464 1.2461,-2.70703 0.6591,-0.83105 1.50351,-1.50566 2.53515,-2.02149 0.73977,-0.37987 1.52401,-0.6347 2.34766,-0.77734 z m -47.5,0.0742 0,3.54687 c -0.10485,0.0553 -0.21442,0.10304 -0.31445,0.16602 -0.77374,0.45851 -1.26035,1.14548 -1.46094,2.0625 -0.22925,1.00299 -0.17201,1.7921 0.17187,2.36523 0.34389,0.57314 0.84481,0.97388 1.50391,1.20313 0.032,0.0107 0.0671,0.0173 0.0996,0.0273 l 0,2.79102 c -0.30935,-0.0533 -0.61546,-0.1153 -0.91602,-0.19727 -0.94568,-0.25791 -1.80439,-0.67295 -2.57812,-1.24609 -0.77374,-0.57313 -1.37679,-1.33167 -1.80664,-2.27735 -0.48717,-1.00299 -0.6446,-2.00677 -0.47266,-3.00976 0.2006,-1.00299 0.61564,-1.90464 1.2461,-2.70703 0.6591,-0.83105 1.50546,-1.50566 2.53711,-2.02149 0.63166,-0.32437 1.29736,-0.55175 1.99023,-0.70312 z"
         style="opacity:0.98999999;fill:#ffb380;fill-opacity:0.99215686;stroke:none;stroke-width:3.54330707;stroke-linecap:butt;stroke-miterlimit:4;stroke-dasharray:none;stroke-dashoffset:0"
         inkscape:connector-curvature="0" />
      <path
         inkscape:connector-curvature="0"
         id="path4117"
         d="m 862.02946,324.39577 3.64602,0"
         style="fill:none;fill-rule:evenodd;stroke:#000000;stroke-width:1.04188585px;stroke-linecap:butt;stroke-linejoin:miter;stroke-opacity:1" />
      <path
         inkscape:connector-curvature="0"
         id="path4117-3"
         d="m 888.97685,324.41787 3.64602,0"
         style="fill:none;fill-rule:evenodd;stroke:#000000;stroke-width:1.04188585px;stroke-linecap:butt;stroke-linejoin:miter;stroke-opacity:1" />
    </g>
    <path
       style="overflow:hidden;fill:#aa0000;fill-rule:evenodd;stroke:none;stroke-width:2.20174479px;stroke-linecap:butt;stroke-linejoin:miter;stroke-opacity:1;text-rendering:optimizeLegibility"
       d="m 524.06202,343.52959 2.6279,33.4327 -29.7828,-1.022 -30.3668,2.7739 -26.7169,-1.168 -43.5063,15.6214 -0.1461,5.6938 4.9638,2.9199 -0.7299,7.1537 -6.2778,2.3359 -0.5839,40.7324 -27.885,-0.292 -11.6795,26.571 -28.2499,0.3649 -11.4605,2.8469 -10.8036,1.752 -4.8178,0 -2.8469,-4.7448 -2.1899,-6.3508 0.584,-13.5775 4.7448,-21.3151 11.5335,-12.9205 12.1905,-9.7086 -2.7543,-8.9377 -11.046,-20.9564 5.6779,-14.4527 15.072,-20.7499 8.7749,0.9291 13.9365,7.949 5.9876,1.2388 9.4975,-0.6194 1.6517,-10.3234 18.0658,-4.852 24.0534,-1.1355 32.7251,-3.6132 5.6778,5.5746 7.1231,3.8196 19.5112,0.5162 z"
       id="path4269"
       inkscape:connector-curvature="0" />
    <path
       style="overflow:hidden;fill:#ffb380;fill-rule:evenodd;stroke:none;stroke-width:2.20174479px;stroke-linecap:butt;stroke-linejoin:miter;stroke-opacity:1;text-rendering:optimizeLegibility"
       d="m 452.66692,248.25999 7.2264,1.1356 -1.6518,13.9365 -7.536,-0.6194 z"
       id="path4259"
       inkscape:connector-curvature="0" />
    <path
       style="overflow:hidden;fill:#d40000;fill-rule:evenodd;stroke:none;stroke-width:2.20174479px;stroke-linecap:butt;stroke-linejoin:miter;stroke-opacity:1;text-rendering:optimizeLegibility"
       d="m 403.94072,326.40779 -0.5162,8.8781 12.4913,-1.0324 -1.4453,-9.3942 z"
       id="path4261"
       inkscape:connector-curvature="0" />
    <path
       style="overflow:hidden;fill:#ffb380;fill-rule:evenodd;stroke:none;stroke-width:2.20174479px;stroke-linecap:butt;stroke-linejoin:miter;stroke-opacity:1;text-rendering:optimizeLegibility"
       d="m 350.77552,377.50839 2.2711,5.781 -1.9614,7.4328 -9.2911,3.2003 -5.781,7.6393 -6.2973,2.2711 -2.2711,-7.1231 z"
       id="path4263"
       inkscape:connector-curvature="0" />
    <path
       style="overflow:hidden;fill:#ffb380;fill-rule:evenodd;stroke:none;stroke-width:2.20174479px;stroke-linecap:butt;stroke-linejoin:miter;stroke-opacity:1;text-rendering:optimizeLegibility"
       d="m 354.12472,515.86149 9.2707,3.2849 1.0949,6.1318 -5.4018,-1.095 -6.1317,-2.7009 1.095,-5.3288 z"
       id="path4265"
       inkscape:connector-curvature="0" />
    <path
       style="overflow:hidden;fill:#aa0000;fill-rule:evenodd;stroke:none;stroke-width:2.20174479px;stroke-linecap:butt;stroke-linejoin:miter;stroke-opacity:1;text-rendering:optimizeLegibility"
       d="m 537.00872,400.32299 2.3744,15.1753 -47.3842,9.4975 -0.1032,4.7487 18.2724,-1.2388 20.6467,1.0323 -0.3097,6.9167 -24.4664,2.9938 -11.7686,-2.7873 -25.1889,5.3681 2.8905,18.1691 39.4352,-6.2972 0.5162,2.0646 14.3494,1.2388 5.9875,39.5385 -27.3568,8.2587 -6.7102,-17.5497 -22.1952,1.342 -4.7488,27.873 -5.781,0.3097 -1.5485,-10.9427 -6.5037,-3.51 -1.8582,-3.7164 -26.8408,-2.4776 -0.2064,-3.8196 -11.3557,0.6194 1.6517,-40.5708 5.5746,-12.1815 3.51,-9.0846 4.439,-4.7487 2.0647,-8.5684 -1.2388,-4.7487 1.9614,-9.8072 4.7488,-5.9876 19.924,1.5485 1.3421,6.5037 17.0335,-2.2711 1.342,-6.2972 16.6206,1.0323 0.7226,4.2326 z"
       id="path4267"
       inkscape:connector-curvature="0" />
  </g>
</svg>
