<?xml version="1.0" encoding="UTF-8" standalone="no"?>
<!-- Created with Inkscape (http://www.inkscape.org/) -->

<svg
   xmlns:dc="http://purl.org/dc/elements/1.1/"
   xmlns:cc="http://creativecommons.org/ns#"
   xmlns:rdf="http://www.w3.org/1999/02/22-rdf-syntax-ns#"
   xmlns:svg="http://www.w3.org/2000/svg"
   xmlns="http://www.w3.org/2000/svg"
   xmlns:sodipodi="http://sodipodi.sourceforge.net/DTD/sodipodi-0.dtd"
   xmlns:inkscape="http://www.inkscape.org/namespaces/inkscape"
   width="130mm"
   height="130mm"
   viewBox="0 0 460.62992 460.62991"
   id="svg2"
   version="1.1"
   inkscape:version="0.91 r"
   sodipodi:docname="rip.svg">
  <defs
     id="defs4" />
  <sodipodi:namedview
     id="base"
     pagecolor="#ffffff"
     bordercolor="#666666"
     borderopacity="1.0"
     inkscape:pageopacity="0.0"
     inkscape:pageshadow="2"
     inkscape:zoom="0.7"
     inkscape:cx="346.62987"
     inkscape:cy="386.34651"
     inkscape:document-units="cm"
     inkscape:current-layer="layer1"
     showgrid="false"
     inkscape:window-width="1920"
     inkscape:window-height="1031"
     inkscape:window-x="0"
     inkscape:window-y="0"
     inkscape:window-maximized="1"
     showguides="true"
     inkscape:guide-bbox="true" />
  <metadata
     id="metadata7">
    <rdf:RDF>
      <cc:Work
         rdf:about="">
        <dc:format>image/svg+xml</dc:format>
        <dc:type
           rdf:resource="http://purl.org/dc/dcmitype/StillImage" />
        <dc:title></dc:title>
      </cc:Work>
    </rdf:RDF>
  </metadata>
  <g
     inkscape:label="Layer 1"
     inkscape:groupmode="layer"
     id="layer1"
     transform="translate(0,-591.73229)">
    <rect
       ry="17.716536"
       rx="17.716536"
       y="598.3963"
       x="20.356031"
       height="451.27408"
       width="421.50397"
       id="rect4111"
       style="opacity:1;fill:#00ff00;fill-opacity:0.99215686;stroke:#000000;stroke-width:2.69777107;stroke-linecap:butt;stroke-miterlimit:4;stroke-dasharray:none;stroke-dashoffset:0" />
    <path
       inkscape:connector-curvature="0"
       style="opacity:1;fill:#008000;fill-rule:evenodd;stroke:#000000;stroke-width:3.09197736;stroke-linecap:butt;stroke-linejoin:miter;stroke-opacity:1"
       d="m 407.7195,795.70777 0,69.55824 0,-69.55824 z m -12.3465,-33.59164 0,120.6239 0,-120.6239 z m -12.24642,-18.56877 0,161.75652 0,-161.75652 z m -12.1447,-19.60234 0,198.49324 0,-198.49324 z m -12.14462,-12.90738 0,224.56974 0,-224.56974 z m -12.24641,-11.99636 0,244.72319 0,-244.72319 z m -12.65029,-10.07764 0,263.19915 0,-263.19915 z m -12.44839,-9.11646 0,278.79348 0,-278.79348 z m -12.2448,-9.83832 0,293.18912 0,-293.18912 z m -12.14471,-9.597 0,307.58467 0,-307.58467 z m -12.24641,-6.23665 0,316.94055 0,-316.94055 z m -12.34659,-8.15899 0,327.2594 0,-327.2594 z m -12.24641,-6.23656 0,336.13455 0,-336.13455 z m -12.04291,-4.31981 0,342.13369 0,-342.13369 z m -12.34652,-3.59797 0,348.37214 0,-348.37214 z m -12.44839,-1.92053 0,350.53209 0,-350.53209 z m -12.34812,-0.95937 0,350.53209 0,-350.53209 z m -12.1431,0.23941 0,347.41287 0,-347.41287 z m -12.24641,0.96118 0,342.85363 0,-342.85363 z m -12.1447,1.67931 0,336.37587 0,-336.37587 z m -12.0429,2.87802 0,325.8194 0,-325.8194 z m -11.94273,3.11922 0,313.58371 0,-313.58371 z m -12.34663,4.55913 0,300.86749 0,-300.86749 z m -12.34812,6.71719 0,286.87637 0,-286.87637 z m -12.2448,5.93045 0,270.42671 0,-270.42671 z m -12.23704,2.96893 0,252.86737 0,-252.86737 z m -12.451508,2.85758 0,229.36828 0,-229.36828 z m -12.30901,5.54074 0,206.29784 0,-206.29784 z m -12.237031,7.80272 0,171.34991 0,-171.34991 z m -12.37946,11.87571 0,110.9544 0,-110.9544 z"
       id="path3609-4" />
    <g
       style="opacity:1;fill:#ffffff;stroke:#000000"
       id="g3446"
       transform="matrix(1.0715526,0,0,1.0715526,-43.528987,88.399225)">
      <path
         inkscape:connector-curvature="0"
         id="path4141"
         d="m 160.03822,835.03984 c -1.06249,0 -2.31875,0.76962 -3.7727,2.30745 l -6.75486,7.17127 2.727,0 7.92736,-3.94177 c 1.67765,-0.83882 2.51723,-1.81678 2.51723,-2.9352 0,-0.72697 -0.26556,-1.34393 -0.79681,-1.84721 -0.50329,-0.50329 -1.12024,-0.75454 -1.84722,-0.75454 z"
         style="font-style:normal;font-variant:normal;font-weight:normal;font-stretch:normal;font-size:medium;line-height:125%;font-family:FetteEgyptienne;-inkscape-font-specification:FetteEgyptienne;letter-spacing:2px;word-spacing:0px;fill:#ffffff;fill-opacity:1;stroke:#000000;stroke-width:1px;stroke-linecap:butt;stroke-linejoin:miter;stroke-opacity:1" />
      <path
         inkscape:connector-curvature="0"
         id="path4139"
         d="m 99.41514,835.54391 5.57765,8.97465 4.4881,0 5.53538,-8.97465 -2.43268,0 -5.32561,4.15154 -5.36789,-4.15154 -2.47495,0 z"
         style="font-style:normal;font-variant:normal;font-weight:normal;font-stretch:normal;font-size:medium;line-height:125%;font-family:FetteEgyptienne;-inkscape-font-specification:FetteEgyptienne;letter-spacing:2px;word-spacing:0px;fill:#ffffff;fill-opacity:1;stroke:#000000;stroke-width:1px;stroke-linecap:butt;stroke-linejoin:miter;stroke-opacity:1" />
      <path
         inkscape:connector-curvature="0"
         id="path4137"
         d="m 86.129284,847.32851 0,5.45399 c 1.006576,0 1.803247,0.27829 2.39042,0.8375 0.699015,0.67105 1.048839,1.41208 1.048839,2.22292 l 0,13.37822 c 0,0.89472 -0.321218,1.63575 -0.964304,2.22292 -0.643095,0.58717 -1.425466,0.8829 -2.348157,0.8829 l 0,5.15656 20.339708,0 0,-5.49312 c -1.14637,-0.0839 -1.80311,-0.16814 -1.97088,-0.25204 -1.03453,-0.53124 -1.54978,-1.32792 -1.54978,-2.39042 l 0,-3.85723 c 0,-0.47533 0.37687,-0.71384 1.13181,-0.71384 l 1.09111,0 0,-5.95649 -1.38541,0 c -0.67105,0 -1.00658,-0.30689 -1.00658,-0.92204 l 0,-4.0263 c 0,-0.67105 0.36415,-1.00658 1.09111,-1.00658 l 1.30088,0 0,-5.53695 -19.168766,0 z"
         style="font-style:normal;font-variant:normal;font-weight:normal;font-stretch:normal;font-size:medium;line-height:125%;font-family:FetteEgyptienne;-inkscape-font-specification:FetteEgyptienne;letter-spacing:2px;word-spacing:0px;fill:#ffffff;fill-opacity:1;stroke:#000000;stroke-width:1px;stroke-linecap:butt;stroke-linejoin:miter;stroke-opacity:1" />
      <path
         inkscape:connector-curvature="0"
         id="path4135"
         d="m 110.03193,847.32851 0,5.53695 0.6747,0 c 0.67104,0 1.23077,0.29418 1.67815,0.88134 0.44737,0.55921 0.67157,1.21597 0.67157,1.97089 0,2.06908 -0.72671,3.10269 -2.18065,3.10269 l -0.84377,0 0,6.55448 c 1.59251,0.84602 2.39355,2.58621 2.39355,5.23169 0,4.92104 3.4252,7.38103 10.27552,7.38103 1.7056,0 3.24328,-0.2783 4.61334,-0.83751 2.6842,-1.0625 4.02787,-2.79733 4.02787,-5.20194 l 0,-2.55792 -3.18723,0 c -0.0279,0.64308 -0.0693,1.03426 -0.12523,1.17407 -0.1398,0.39146 -0.44827,0.58705 -0.92361,0.58705 -0.47531,0 -0.7695,-0.30849 -0.88134,-0.92362 0,-2.0411 -0.27986,-3.61859 -0.83908,-4.737 -0.30755,-0.58717 -0.90707,-1.23117 -1.80181,-1.93019 -0.86678,-0.69901 -1.66346,-1.1872 -2.39042,-1.46681 -0.0839,-0.0559 -0.1554,-0.0845 -0.21134,-0.0845 -0.25165,-0.16777 -0.37727,-0.322 -0.37727,-0.4618 0,-0.25165 0.28144,-0.46153 0.84065,-0.6293 1.31414,-0.36348 2.44634,-0.76896 3.39699,-1.21635 2.125,-0.95063 3.18723,-2.59966 3.18723,-4.94834 0,-2.32072 -1.24508,-4.19395 -3.73357,-5.61992 -2.09705,-1.20231 -4.40434,-1.80495 -6.92079,-1.80495 l -7.34346,0 z"
         style="font-style:normal;font-variant:normal;font-weight:normal;font-stretch:normal;font-size:medium;line-height:125%;font-family:FetteEgyptienne;-inkscape-font-specification:FetteEgyptienne;letter-spacing:2px;word-spacing:0px;fill:#ffffff;fill-opacity:1;stroke:#000000;stroke-width:1px;stroke-linecap:butt;stroke-linejoin:miter;stroke-opacity:1" />
      <path
         inkscape:connector-curvature="0"
         id="path4133"
         d="m 135.62994,847.32851 0,5.20195 c 0.9227,0 1.72093,0.3069 2.39199,0.92204 0.67106,0.58717 1.005,1.29957 1.005,2.13838 l 0.0422,14.76363 c 0,0.50329 -0.0986,0.86587 -0.2943,1.08955 -0.9227,0.92271 -1.942,1.38541 -3.06043,1.38541 l 0,4.65405 20.17221,0 0,-4.78085 c -0.81086,0 -1.59321,-0.20832 -2.34815,-0.62774 -0.92271,-0.50328 -1.38385,-1.12024 -1.38385,-1.84722 l 0,-14.59455 c 0,-0.9227 0.3069,-1.6637 0.92205,-2.22293 0.64308,-0.58716 1.43977,-0.87977 2.39041,-0.87977 l 0,-5.20195 -19.8372,0 z"
         style="font-style:normal;font-variant:normal;font-weight:normal;font-stretch:normal;font-size:medium;line-height:125%;font-family:FetteEgyptienne;-inkscape-font-specification:FetteEgyptienne;letter-spacing:2px;word-spacing:0px;fill:#ffffff;fill-opacity:1;stroke:#000000;stroke-width:1px;stroke-linecap:butt;stroke-linejoin:miter;stroke-opacity:1" />
      <path
         inkscape:connector-curvature="0"
         id="path4131"
         d="m 160.31061,847.32851 0,5.45399 c 0.95066,0 1.76165,0.27829 2.43269,0.8375 0.67107,0.5592 1.00657,1.30023 1.00657,2.22292 l 0,13.37822 c 0,0.89472 -0.32122,1.63575 -0.96431,2.22292 -0.64309,0.58717 -1.42546,0.8829 -2.34815,0.8829 l 0,5.15656 21.01285,0 0,-5.49312 c -1.81743,-0.056 -2.89397,-0.25311 -3.22949,-0.5886 -0.64309,-0.67108 -0.96431,-1.35486 -0.96431,-2.05386 l 0,-4.10927 c 0,-0.44738 0.37688,-0.67314 1.13181,-0.67314 l 0.67783,0 0,-6.12242 -1.3494,0 c -0.61514,0 -0.92205,-0.27829 -0.92205,-0.83751 l 0,-3.56606 c 0,-0.58716 0.33551,-0.88134 1.00658,-0.88134 l 1.26487,0 0,-5.82969 -18.75549,0 z"
         style="font-style:normal;font-variant:normal;font-weight:normal;font-stretch:normal;font-size:medium;line-height:125%;font-family:FetteEgyptienne;-inkscape-font-specification:FetteEgyptienne;letter-spacing:2px;word-spacing:0px;fill:#ffffff;fill-opacity:1;stroke:#000000;stroke-width:1px;stroke-linecap:butt;stroke-linejoin:miter;stroke-opacity:1" />
      <path
         inkscape:connector-curvature="0"
         id="path4129"
         d="m 183.79841,847.32851 0,5.82969 0.25204,0 c 0.58717,0 1.08967,0.26713 1.50908,0.79837 0.41941,0.5033 0.6293,1.09007 0.6293,1.76112 0,1.81744 -0.65829,2.72542 -1.97245,2.72542 l -0.41797,0 0,6.12242 8.34691,0 c 2.51645,0 4.61231,-0.86508 6.28992,-2.59862 1.7056,-1.73356 2.55949,-3.87388 2.55949,-6.41829 0,-2.43255 -0.97952,-4.44413 -2.93675,-6.03788 -1.81744,-1.45396 -3.98482,-2.18223 -6.50126,-2.18223 l -7.75831,0 z"
         style="font-style:normal;font-variant:normal;font-weight:normal;font-stretch:normal;font-size:medium;line-height:125%;font-family:FetteEgyptienne;-inkscape-font-specification:FetteEgyptienne;letter-spacing:2px;word-spacing:0px;fill:#ffffff;fill-opacity:1;stroke:#000000;stroke-width:1px;stroke-linecap:butt;stroke-linejoin:miter;stroke-opacity:1" />
      <path
         inkscape:connector-curvature="0"
         id="path4127"
         d="m 278.0095,847.58524 -2.05385,2.04446 0,7.47966 c 0.29427,0.0623 0.45084,0.27231 0.45084,0.64809 l 0,6.20382 -0.45084,0 0,5.73733 c 0.0515,0.0426 0.0979,0.0713 0.15498,0.12836 0.25321,0.19696 0.3804,0.36652 0.3804,0.5072 l 0,0.0422 c 0.0563,0.0563 0.0845,0.13949 0.0845,0.25203 0,0.16882 -0.0707,0.4373 -0.21134,0.80307 -0.33762,0.84408 -0.70346,1.42031 -1.09737,1.72981 -0.3939,0.30951 -1.01252,0.45082 -1.8566,0.42267 l 0,4.43019 17.64089,0 0,-4.6838 c -0.25321,0.0844 -0.53427,0.12681 -0.84376,0.12681 -1.82884,0 -2.74421,-0.91538 -2.74421,-2.74421 0,-0.87222 0.24022,-1.30714 0.71853,-1.30714 l 4.64152,0 0,-5.52912 -5.02192,0 c -0.0844,0 -0.23984,-0.12718 -0.46493,-0.38041 -0.0563,-0.39389 -0.0987,-0.61843 -0.12681,-0.67469 l 0,-15.2364 -9.20006,0 z"
         style="font-style:normal;font-variant:normal;font-weight:normal;font-stretch:normal;font-size:medium;line-height:125%;font-family:FetteEgyptienne;-inkscape-font-specification:FetteEgyptienne;letter-spacing:2px;word-spacing:0px;fill:#ffffff;fill-opacity:1;stroke:#000000;stroke-width:1px;stroke-linecap:butt;stroke-linejoin:miter;stroke-opacity:1" />
      <path
         sodipodi:nodetypes="ccccscscscccscscscccscccsccsccscsccccssccc"
         inkscape:connector-curvature="0"
         id="path4125"
         d="m 300.06336,847.58524 0.0759,15.97946 6.73594,-0.17711 c 0.97626,-0.12431 1.89554,-0.0325 2.1769,-0.22938 0.61899,-0.3095 1.35066,-0.46338 2.19474,-0.46338 1.82883,0 3.32045,0.50559 4.47402,1.51847 1.18171,1.0129 1.77207,2.41973 1.77207,4.22042 0,1.4068 -0.42236,2.68801 -1.26644,3.84159 -0.90034,1.29425 -2.02455,1.94113 -3.37508,1.94113 -0.36577,0 -0.78813,-0.0989 -1.26644,-0.29586 -0.56272,-0.22509 -0.84377,-0.49201 -0.84377,-0.80151 l 0.5479,-0.71697 c 0.36577,-0.4783 0.54947,-0.94306 0.54947,-1.39323 0,-1.43493 -0.92951,-2.64549 -2.78647,-3.63025 -1.54748,-0.81594 -3.10817,-1.22261 -4.68378,-1.22261 -1.85698,0 -3.43337,0.43493 -4.72762,1.30714 -1.46307,0.98476 -2.19474,2.36332 -2.19474,4.13589 0,1.66002 0.88711,3.05271 2.65967,4.17815 1.4912,0.95662 3.12255,1.54855 4.89512,1.77364 l 3.63025,0.46337 c 2.19459,0.28136 3.99552,0.42266 5.40232,0.42266 2.78545,0 5.07783,-0.22452 6.87852,-0.6747 2.27901,-0.59085 4.3186,-1.64598 6.1193,-3.16532 1.32238,-1.09729 2.23775,-2.09745 2.74421,-2.9978 0.50643,-0.92849 0.75923,-2.20814 0.75923,-3.84002 0,-1.63188 -0.30932,-3.01044 -0.9283,-4.13588 -0.56272,-0.98476 -1.52049,-2.03987 -2.87101,-3.16531 -2.08206,-1.71629 -5.41542,-2.57514 -10.00158,-2.57514 -2.53223,0 -5.45892,0.325 -8.77896,0.97213 l -0.59017,-0.1268 0,-2.78648 c 0,-0.45017 0.37997,-0.6747 1.13963,-0.6747 2.1102,0.45018 3.71329,0.6747 4.81059,0.6747 4.05157,0 7.79473,-1.08338 11.22731,-3.24985 2.08206,-1.29424 3.29105,-2.61629 3.62868,-3.9668 l 0.29587,-1.13965 -7.72387,0 -0.84376,0.84378 c -0.81594,0.81594 -2.74405,1.22417 -5.78272,1.22417 -2.75732,0 -4.78278,-0.43493 -6.07703,-1.30714 l -1.13964,-0.76081 z"
         style="font-style:normal;font-variant:normal;font-weight:normal;font-stretch:normal;font-size:medium;line-height:125%;font-family:FetteEgyptienne;-inkscape-font-specification:FetteEgyptienne;letter-spacing:2px;word-spacing:0px;fill:#ffffff;fill-opacity:1;stroke:#000000;stroke-width:1px;stroke-linecap:butt;stroke-linejoin:miter;stroke-opacity:1" />
      <path
         inkscape:connector-curvature="0"
         id="path4123"
         d="m 348.8768,847.80441 c -3.25969,0.18955 -6.1256,0.95837 -8.59425,2.31371 -3.54512,1.94137 -5.31778,4.72676 -5.31778,8.3563 0,2.61664 1.0975,4.67035 3.29211,6.16156 1.91324,1.32239 4.23388,1.98341 6.96306,1.98341 1.14042,0 2.36475,-0.0836 3.65686,-0.23482 l 0,-5.20508 c -0.18686,-0.15 -0.36622,-0.31791 -0.53382,-0.51033 -0.73153,-0.90035 -1.09737,-1.95547 -1.09737,-3.16531 0,-1.32239 0.30932,-2.47642 0.9283,-3.46118 0.21201,-0.33432 0.44819,-0.61423 0.70289,-0.8516 l 0,-5.38666 z"
         style="font-style:normal;font-variant:normal;font-weight:normal;font-stretch:normal;font-size:medium;line-height:125%;font-family:FetteEgyptienne;-inkscape-font-specification:FetteEgyptienne;letter-spacing:2px;word-spacing:0px;fill:#ffffff;fill-opacity:1;stroke:#000000;stroke-width:1px;stroke-linecap:butt;stroke-linejoin:miter;stroke-opacity:1" />
      <path
         inkscape:connector-curvature="0"
         id="path4121"
         d="m 353.60911,847.94999 0,5.65592 c 0.10744,0.14834 0.21,0.30506 0.30526,0.47903 0.53458,0.98475 0.8015,2.13879 0.8015,3.46118 0,1.23798 -0.26692,2.2507 -0.8015,3.03851 -0.0945,0.1417 -0.19771,0.26969 -0.30526,0.38979 l 0,4.65091 c 0.0203,-0.005 0.35775,-0.0611 0.34753,-0.0611 0.81594,0 1.22417,0.12719 1.22417,0.38041 l 0,4.85285 c 0,1.06917 -0.42236,2.06776 -1.26644,2.99624 -0.81594,0.92849 -1.74388,1.39324 -2.78491,1.39324 -0.28136,0 -0.8309,-0.26692 -1.64684,-0.8015 0.22508,-1.29425 0.33813,-1.9694 0.33813,-2.02567 0,-1.26612 -0.66102,-2.26471 -1.98341,-2.99625 -1.09729,-0.61899 -2.32198,-0.92987 -3.67251,-0.92987 -1.57561,0 -3.09391,0.26849 -4.55699,0.80307 -1.94136,0.7034 -3.01062,1.67373 -3.20757,2.91171 l -0.0845,0.50564 c 0,1.60375 0.54798,2.85669 1.64528,3.75705 1.15357,0.64711 2.35,1.22335 3.58798,1.7298 1.66002,0.67526 4.16435,1.01284 7.51253,1.01284 5.57091,0 9.97352,-1.23726 13.20914,-3.71321 3.62954,-2.75732 5.44459,-6.83805 5.44459,-12.24015 0,-1.51933 -0.22452,-3.03765 -0.67469,-4.55698 -1.04103,-3.54513 -2.79958,-6.19078 -5.27552,-7.9352 -2.05026,-1.43517 -4.77493,-2.35032 -8.15593,-2.7583 z"
         style="font-style:normal;font-variant:normal;font-weight:normal;font-stretch:normal;font-size:medium;line-height:125%;font-family:FetteEgyptienne;-inkscape-font-specification:FetteEgyptienne;letter-spacing:2px;word-spacing:0px;fill:#ffffff;fill-opacity:1;stroke:#000000;stroke-width:1px;stroke-linecap:butt;stroke-linejoin:miter;stroke-opacity:1" />
      <path
         inkscape:connector-curvature="0"
         id="path4119"
         d="m 217.9938,852.27373 8.55198,12.65028 -9.38009,13.28117 28.30309,-13.28117 -27.47498,-12.65028 z"
         style="font-style:normal;font-variant:normal;font-weight:normal;font-stretch:normal;font-size:medium;line-height:125%;font-family:FetteEgyptienne;-inkscape-font-specification:FetteEgyptienne;letter-spacing:2px;word-spacing:0px;fill:#ffffff;fill-opacity:1;stroke:#000000;stroke-width:1px;stroke-linecap:butt;stroke-linejoin:miter;stroke-opacity:1" />
      <path
         inkscape:connector-curvature="0"
         id="path4117"
         d="m 271.22177,854.34011 -10.34597,10.29587 0,4.85285 10.34597,0 0,-5.52756 -1.10364,0 c -0.42202,0 -0.634,-0.22609 -0.634,-0.67627 0,-0.11254 0.0565,-0.22402 0.16907,-0.33656 l 1.56857,-1.56857 0,-7.03976 z"
         style="font-style:normal;font-variant:normal;font-weight:normal;font-stretch:normal;font-size:medium;line-height:125%;font-family:FetteEgyptienne;-inkscape-font-specification:FetteEgyptienne;letter-spacing:2px;word-spacing:0px;fill:#ffffff;fill-opacity:1;stroke:#000000;stroke-width:1px;stroke-linecap:butt;stroke-linejoin:miter;stroke-opacity:1" />
      <path
         inkscape:connector-curvature="0"
         id="path3983"
         d="m 411.99519,854.97098 c -1.57561,0 -3.26349,0.37996 -5.06419,1.13963 -0.30949,0.14068 -1.0553,0.61956 -2.23701,1.43551 -0.90035,0.64712 -1.68698,0.97056 -2.36224,0.97056 l -0.80307,-0.59173 c -2.39155,-1.77256 -4.8535,-2.65811 -7.38573,-2.65811 -1.20985,0 -2.61668,0.25279 -4.22042,0.75924 -1.04102,0.33763 -2.1935,0.84477 -3.45961,1.52004 -0.19695,0.11254 -0.39479,0.16906 -0.59173,0.16906 -0.14068,0 -0.37935,-0.16957 -0.71697,-0.5072 0,-0.87219 -0.12718,-1.29454 -0.3804,-1.26644 l -12.28085,0 -0.38041,0.0845 -0.12523,0.29586 0,3.88229 c 0,0.19697 0.0141,0.31002 0.0422,0.33813 0.28136,0.0844 0.61893,0.19745 1.01283,0.33813 0.3939,0.11253 0.63257,0.18162 0.71697,0.20977 0.67527,0.42204 1.01284,1.13959 1.01284,2.15248 l 0,8.8635 c 0,0.56272 -0.25278,0.99921 -0.75924,1.3087 -0.59085,0.19695 -1.098,0.37909 -1.52004,0.54791 -0.11254,0.0563 -0.16907,0.18345 -0.16907,0.3804 l 0,3.67095 14.43646,0 0,-4.57264 c -0.0361,-0.0107 -0.0492,-0.0157 -0.0861,-0.0266 -0.7878,-0.33763 -1.1819,-0.76 -1.1819,-1.26643 l 0,-8.90577 c 0,-0.92849 0.40823,-1.67272 1.22416,-2.23545 0.73154,-0.47831 1.58883,-0.71853 2.57358,-0.71853 1.04104,0 1.92815,0.24022 2.65968,0.71853 0.87221,0.56273 1.30714,1.33522 1.30714,2.31998 l 0,8.77897 c 0,0.43219 -0.21818,0.7994 -0.62931,1.10832 l 0,4.79964 12.52349,0 0,-4.50064 c -0.77262,-0.35833 -1.17407,-0.82475 -1.17407,-1.40732 l -0.0422,-8.8635 c 0,-0.92849 0.46475,-1.67272 1.39324,-2.23545 0.78779,-0.47831 1.67334,-0.71853 2.6581,-0.71853 0.98476,0 1.85774,0.26692 2.61741,0.8015 0.78781,0.53458 1.18191,1.28039 1.18191,2.23701 l 0.0422,8.77897 c 0,0.43786 -0.27484,0.82666 -0.80776,1.17094 l 0,4.73702 13.93238,0 0,-3.67095 c 0,-0.19696 -0.43649,-0.46388 -1.30871,-0.80151 -0.69417,-0.26871 -1.10595,-0.62853 -1.24765,-1.07545 0.0288,-0.83858 0.0639,-2.70342 0.10801,-5.72011 0.0281,-2.1946 -0.154,-3.98139 -0.5479,-5.36005 -0.61899,-2.13832 -1.8845,-3.76968 -3.79775,-4.89512 -1.74442,-1.01289 -3.7997,-1.52003 -6.16312,-1.52003 z"
         style="font-style:normal;font-variant:normal;font-weight:normal;font-stretch:normal;font-size:medium;line-height:125%;font-family:FetteEgyptienne;-inkscape-font-specification:FetteEgyptienne;letter-spacing:2px;word-spacing:0px;fill:#ffffff;fill-opacity:1;stroke:#000000;stroke-width:1px;stroke-linecap:butt;stroke-linejoin:miter;stroke-opacity:1" />
    </g>
    <path
       style="fill:none;fill-rule:evenodd;stroke:#000000;stroke-width:1px;stroke-linecap:butt;stroke-linejoin:miter;stroke-opacity:1"
       d="m 51.842107,742.9089 -32.072343,0.25254"
       id="path3387"
       inkscape:connector-curvature="0" />
    <path
       style="fill:none;fill-rule:evenodd;stroke:#000000;stroke-width:1px;stroke-linecap:butt;stroke-linejoin:miter;stroke-opacity:1"
       d="m 407.85715,828.43364 33.92857,0"
       id="path3389"
       inkscape:connector-curvature="0" />
  </g>
</svg>
